<svg id="svg" version="1.1" xmlns="http://www.w3.org/2000/svg" xmlns:xlink="http://www.w3.org/1999/xlink" width="400" height="392.156862745098" viewBox="0, 0, 400,392.156862745098"><g id="svgg"><path id="path0" d="M195.686 16.419 C 195.363 16.607,193.955 16.858,192.559 16.978 C 191.162 17.098,189.956 17.386,189.879 17.618 C 189.802 17.850,188.959 18.039,188.007 18.039 C 187.054 18.039,186.275 18.216,186.275 18.431 C 186.275 18.647,185.756 18.824,185.121 18.824 C 184.487 18.824,183.859 19.000,183.725 19.216 C 183.592 19.431,183.141 19.608,182.722 19.608 C 182.303 19.608,181.961 19.784,181.961 20.000 C 181.961 20.216,181.705 20.392,181.392 20.392 C 180.650 20.392,175.320 23.133,174.338 24.020 C 173.920 24.397,173.442 24.706,173.277 24.706 C 173.112 24.706,172.571 25.103,172.074 25.588 C 171.577 26.074,170.466 26.994,169.605 27.633 C 166.634 29.839,161.817 35.039,160.392 37.579 C 160.069 38.156,159.716 38.716,159.608 38.824 C 159.269 39.162,158.453 40.535,157.743 41.961 C 157.367 42.716,156.926 43.392,156.765 43.464 C 156.603 43.536,156.471 43.935,156.471 44.352 C 156.471 44.768,156.294 45.459,156.078 45.888 C 155.863 46.316,155.510 47.017,155.294 47.446 C 154.582 48.860,153.737 51.554,153.731 52.428 C 153.728 52.900,153.549 53.396,153.333 53.529 C 153.118 53.663,152.941 54.722,152.941 55.882 C 152.941 57.043,152.765 58.102,152.549 58.235 C 152.313 58.381,152.157 61.107,152.157 65.098 C 152.157 69.089,152.313 71.815,152.549 71.961 C 152.765 72.094,152.941 73.252,152.941 74.533 C 152.941 75.825,153.116 76.863,153.333 76.863 C 153.549 76.863,153.725 77.470,153.725 78.212 C 153.725 78.954,153.902 79.671,154.118 79.804 C 154.333 79.937,154.510 80.455,154.510 80.956 C 154.510 81.456,154.775 82.084,155.098 82.353 C 155.422 82.621,155.686 83.250,155.686 83.750 C 155.686 84.250,155.863 84.769,156.078 84.902 C 156.294 85.035,156.471 85.487,156.471 85.905 C 156.471 86.324,156.647 86.667,156.863 86.667 C 157.078 86.667,157.255 87.020,157.255 87.451 C 157.255 87.882,157.431 88.235,157.647 88.235 C 157.863 88.235,158.039 88.492,158.039 88.806 C 158.039 89.119,158.480 89.817,159.020 90.357 C 159.559 90.896,160.000 91.576,160.000 91.869 C 160.000 92.162,160.353 92.780,160.784 93.243 C 161.216 93.706,161.570 94.225,161.572 94.395 C 161.577 94.892,166.150 99.608,166.626 99.608 C 166.864 99.608,167.059 99.802,167.059 100.039 C 167.059 100.563,168.812 102.235,170.734 103.544 C 171.514 104.075,172.153 104.642,172.154 104.804 C 172.156 104.966,172.422 105.098,172.745 105.098 C 173.069 105.098,173.333 105.275,173.333 105.490 C 173.333 105.706,173.686 105.882,174.118 105.882 C 174.549 105.882,174.902 106.059,174.902 106.275 C 174.902 106.490,175.255 106.667,175.686 106.667 C 176.118 106.667,176.471 106.823,176.471 107.013 C 176.471 107.204,176.779 107.473,177.157 107.611 C 178.485 108.098,180.000 109.066,180.000 109.429 C 180.000 109.816,179.526 110.424,177.162 113.067 C 176.357 113.969,175.695 114.926,175.692 115.196 C 175.689 115.466,175.510 115.686,175.294 115.686 C 175.078 115.686,174.902 116.039,174.902 116.471 C 174.902 116.902,174.741 117.255,174.545 117.255 C 174.090 117.255,172.157 121.107,172.157 122.015 C 172.157 122.391,171.980 122.808,171.765 122.941 C 171.549 123.074,171.373 123.579,171.373 124.062 C 171.373 124.546,171.164 125.149,170.910 125.404 C 170.655 125.659,170.346 126.620,170.223 127.541 C 170.012 129.123,169.924 129.222,168.627 129.326 C 167.873 129.386,166.902 129.596,166.471 129.792 C 166.039 129.987,165.069 130.232,164.314 130.334 C 162.552 130.574,160.000 131.477,160.000 131.861 C 160.000 132.024,159.674 132.157,159.276 132.157 C 158.289 132.157,156.165 133.237,154.518 134.577 C 153.768 135.187,153.013 135.686,152.840 135.686 C 152.473 135.686,147.843 140.236,147.843 140.596 C 147.843 140.730,147.270 141.665,146.569 142.674 C 144.871 145.121,144.314 146.215,144.314 147.104 C 144.314 147.510,144.137 147.843,143.922 147.843 C 143.706 147.843,143.529 148.209,143.529 148.655 C 143.529 149.102,143.265 149.732,142.941 150.056 C 142.618 150.380,142.353 151.327,142.353 152.162 C 142.353 152.996,142.176 153.788,141.961 153.922 C 141.728 154.066,141.569 156.540,141.569 160.023 C 141.569 163.668,141.717 165.882,141.961 165.882 C 143.129 165.882,142.341 168.986,141.078 169.362 C 139.643 169.789,137.541 170.516,136.078 171.092 C 135.539 171.304,134.745 171.607,134.314 171.765 C 133.210 172.171,128.864 174.272,128.627 174.515 C 128.520 174.626,127.637 175.119,126.667 175.610 C 123.995 176.963,116.336 182.802,114.554 184.843 C 114.206 185.242,113.151 186.389,112.210 187.392 C 111.268 188.395,110.033 189.833,109.465 190.588 C 108.896 191.343,108.048 192.386,107.579 192.905 C 107.110 193.424,106.316 194.660,105.814 195.650 C 105.312 196.641,104.770 197.510,104.608 197.582 C 104.446 197.654,104.314 197.968,104.314 198.280 C 104.314 198.593,104.049 198.950,103.725 199.074 C 103.402 199.198,103.137 199.634,103.137 200.042 C 103.137 200.450,102.961 200.784,102.745 200.784 C 102.529 200.784,102.353 201.044,102.353 201.361 C 102.353 201.678,102.000 202.565,101.569 203.333 C 101.137 204.101,100.784 205.056,100.784 205.454 C 100.784 205.853,100.520 206.398,100.196 206.667 C 99.873 206.935,99.608 207.476,99.608 207.868 C 99.608 208.260,99.431 208.690,99.216 208.824 C 99.000 208.957,98.824 209.574,98.824 210.196 C 98.824 210.818,98.647 211.435,98.431 211.569 C 98.216 211.702,98.039 212.408,98.039 213.137 C 98.039 213.867,97.863 214.573,97.647 214.706 C 97.431 214.839,97.255 215.810,97.255 216.863 C 97.255 217.916,97.078 218.886,96.863 219.020 C 96.647 219.153,96.471 220.821,96.471 222.726 C 96.471 225.444,96.344 226.239,95.882 226.416 C 95.035 226.741,95.035 233.410,95.882 234.258 C 96.318 234.694,96.471 235.762,96.471 238.380 C 96.471 240.324,96.647 242.024,96.863 242.157 C 97.078 242.290,97.255 243.271,97.255 244.337 C 97.255 245.403,97.431 246.275,97.647 246.275 C 97.863 246.275,98.039 246.980,98.039 247.843 C 98.039 248.706,98.216 249.412,98.431 249.412 C 98.647 249.412,98.824 249.931,98.824 250.565 C 98.824 251.199,99.000 251.827,99.216 251.961 C 99.431 252.094,99.608 252.524,99.608 252.916 C 99.608 253.309,99.873 253.849,100.196 254.118 C 100.520 254.386,100.784 255.025,100.784 255.538 C 100.784 256.051,100.961 256.471,101.176 256.471 C 101.392 256.471,101.569 256.912,101.569 257.451 C 101.569 257.990,101.745 258.431,101.961 258.431 C 102.176 258.431,102.353 258.784,102.353 259.216 C 102.353 259.647,102.529 260.000,102.745 260.000 C 102.961 260.000,103.140 260.309,103.144 260.686 C 103.148 261.064,103.589 261.788,104.124 262.296 C 104.660 262.804,105.098 263.466,105.098 263.767 C 105.098 264.068,105.275 264.314,105.490 264.314 C 105.706 264.314,105.883 264.623,105.883 265.000 C 105.883 265.802,107.535 267.843,108.183 267.843 C 108.427 267.843,108.627 268.162,108.627 268.551 C 108.627 269.343,111.040 272.157,111.720 272.157 C 111.960 272.157,112.157 272.338,112.157 272.559 C 112.157 273.086,118.283 279.216,118.810 279.216 C 119.033 279.216,119.216 279.392,119.216 279.608 C 119.216 279.824,119.410 280.000,119.647 280.000 C 119.884 280.000,120.696 280.618,121.451 281.373 C 122.206 282.127,123.144 282.745,123.536 282.745 C 123.928 282.745,124.307 282.877,124.379 283.039 C 124.637 283.619,127.411 285.490,128.013 285.490 C 128.351 285.490,128.629 285.623,128.631 285.784 C 128.635 286.182,130.574 287.059,131.451 287.059 C 131.943 287.059,132.157 287.356,132.157 288.039 C 132.157 288.578,131.982 289.020,131.769 289.020 C 131.556 289.020,131.268 289.729,131.130 290.597 C 130.991 291.464,130.724 292.269,130.537 292.385 C 130.349 292.501,130.196 293.114,130.196 293.749 C 130.196 294.383,130.020 294.902,129.804 294.902 C 129.578 294.902,129.412 296.136,129.412 297.820 C 129.412 299.425,129.588 300.847,129.804 300.980 C 130.020 301.114,130.196 301.565,130.196 301.984 C 130.196 302.403,130.381 302.745,130.606 302.745 C 130.832 302.745,131.457 303.186,131.996 303.725 C 132.657 304.386,133.411 304.706,134.308 304.706 C 135.041 304.706,135.749 304.882,135.882 305.098 C 136.039 305.352,143.730 305.490,157.670 305.490 L 179.216 305.490 179.216 336.275 C 179.216 356.536,179.350 367.059,179.608 367.059 C 179.824 367.059,180.000 368.019,180.000 369.193 C 180.000 370.366,180.142 371.414,180.314 371.521 C 180.487 371.628,180.878 372.628,181.182 373.745 C 181.486 374.861,181.962 375.862,182.240 375.968 C 182.518 376.075,182.745 376.496,182.745 376.905 C 182.745 377.313,182.922 377.647,183.137 377.647 C 183.353 377.647,183.529 377.912,183.529 378.235 C 183.529 378.559,183.706 378.824,183.922 378.824 C 184.137 378.824,184.314 379.096,184.314 379.430 C 184.314 380.112,186.019 381.961,186.649 381.961 C 186.874 381.961,187.059 382.161,187.059 382.405 C 187.059 382.993,189.068 384.705,189.758 384.705 C 190.056 384.706,190.586 385.031,190.934 385.429 C 191.583 386.170,193.229 386.980,195.714 387.783 C 197.448 388.343,207.699 388.393,208.039 387.843 C 208.173 387.627,208.698 387.451,209.207 387.451 C 210.148 387.451,212.638 386.320,212.876 385.784 C 212.948 385.623,213.257 385.490,213.562 385.490 C 213.868 385.490,214.118 385.314,214.118 385.098 C 214.118 384.882,214.338 384.706,214.608 384.705 C 215.258 384.705,217.255 382.970,217.255 382.405 C 217.255 382.161,217.439 381.961,217.665 381.961 C 218.197 381.961,220.000 380.158,220.000 379.626 C 220.000 379.400,220.176 379.216,220.392 379.216 C 220.608 379.216,220.784 378.938,220.784 378.599 C 220.784 378.261,221.005 377.737,221.275 377.437 C 222.526 376.041,222.745 375.666,222.745 374.919 C 222.745 374.478,222.922 374.118,223.137 374.118 C 223.353 374.118,223.529 373.687,223.529 373.160 C 223.529 372.634,223.706 372.094,223.922 371.961 C 224.137 371.827,224.314 371.122,224.314 370.392 C 224.314 369.663,224.490 368.957,224.706 368.824 C 224.962 368.665,225.098 357.643,225.098 337.036 L 225.098 305.490 231.938 305.490 C 236.074 305.490,238.873 305.335,239.020 305.098 C 239.153 304.882,239.855 304.706,240.579 304.706 C 242.597 304.706,244.840 302.356,245.660 299.383 C 247.062 294.303,246.205 129.969,244.769 128.533 C 244.518 128.283,244.314 127.408,244.314 126.588 C 244.314 125.769,244.137 125.098,243.922 125.098 C 243.706 125.098,243.529 124.579,243.529 123.945 C 243.529 123.310,243.353 122.682,243.137 122.549 C 242.922 122.416,242.745 121.964,242.745 121.545 C 242.745 121.127,242.569 120.784,242.353 120.784 C 242.137 120.784,241.961 120.426,241.961 119.988 C 241.961 119.550,241.696 119.089,241.373 118.965 C 241.049 118.841,240.784 118.406,240.784 117.997 C 240.784 117.589,240.608 117.255,240.392 117.255 C 240.176 117.255,240.000 117.055,240.000 116.812 C 240.000 116.396,238.195 113.710,236.593 111.741 C 235.345 110.208,233.553 108.466,231.979 107.255 C 229.479 105.332,228.563 103.922,229.815 103.922 C 230.037 103.922,230.839 103.348,231.597 102.647 C 234.418 100.040,234.946 99.608,235.312 99.608 C 235.518 99.608,235.686 99.475,235.687 99.314 C 235.687 99.015,236.731 97.712,238.837 95.379 C 239.477 94.671,240.000 93.921,240.000 93.712 C 240.000 93.504,240.176 93.333,240.392 93.333 C 240.608 93.333,240.784 92.980,240.784 92.549 C 240.784 92.113,241.046 91.765,241.373 91.765 C 241.696 91.765,241.961 91.579,241.961 91.352 C 241.961 91.125,242.373 90.333,242.876 89.592 L 243.791 88.245 245.628 90.005 C 246.638 90.973,247.726 91.765,248.046 91.765 C 248.366 91.765,248.627 91.928,248.627 92.128 C 248.627 92.547,250.843 93.725,251.629 93.725 C 251.919 93.725,252.157 93.902,252.157 94.118 C 252.157 94.333,252.775 94.510,253.529 94.510 C 254.284 94.510,254.902 94.686,254.902 94.902 C 254.902 95.148,257.378 95.294,261.545 95.294 C 265.551 95.294,268.285 95.138,268.431 94.902 C 268.565 94.686,269.281 94.510,270.023 94.510 C 270.765 94.510,271.373 94.345,271.373 94.144 C 271.373 93.943,271.706 93.673,272.113 93.543 C 274.170 92.890,276.111 85.892,274.510 84.902 C 274.294 84.769,274.118 84.348,274.118 83.967 C 274.118 83.586,273.676 82.860,273.137 82.353 C 272.554 81.805,272.157 80.997,272.157 80.356 C 272.157 79.765,271.936 79.192,271.667 79.083 C 271.275 78.925,271.275 78.879,271.667 78.854 C 271.996 78.834,272.157 78.109,272.157 76.639 C 272.157 75.219,272.363 74.248,272.745 73.866 C 273.069 73.542,273.333 72.771,273.333 72.152 C 273.333 71.533,273.510 70.918,273.725 70.784 C 273.941 70.651,274.118 69.945,274.118 69.216 C 274.118 68.486,274.294 67.780,274.510 67.647 C 274.725 67.514,274.902 66.797,274.902 66.055 C 274.902 65.313,275.078 64.706,275.294 64.706 C 275.510 64.706,275.686 64.035,275.686 63.216 C 275.686 62.396,275.861 61.551,276.075 61.337 C 276.604 60.808,277.306 57.565,277.511 54.706 C 277.604 53.412,277.865 51.981,278.091 51.527 C 278.615 50.477,277.935 41.843,277.260 40.980 C 277.091 40.765,276.831 40.015,276.681 39.314 C 276.531 38.613,276.246 38.039,276.047 38.039 C 275.849 38.039,275.686 37.684,275.686 37.250 C 275.686 36.544,275.036 35.032,274.508 34.510 C 274.399 34.402,273.576 33.343,272.680 32.157 C 270.511 29.287,268.238 27.014,266.207 25.686 C 265.877 25.471,264.879 24.809,263.988 24.216 C 263.097 23.623,262.012 23.137,261.576 23.137 C 261.141 23.137,260.784 22.961,260.784 22.745 C 260.784 22.529,259.912 22.353,258.847 22.353 C 257.781 22.353,256.800 22.176,256.667 21.961 C 256.533 21.745,256.004 21.569,255.490 21.569 C 254.976 21.569,254.447 21.745,254.314 21.961 C 254.180 22.176,253.298 22.353,252.353 22.353 C 251.408 22.353,250.525 22.529,250.392 22.745 C 250.259 22.961,249.892 23.137,249.576 23.137 C 248.074 23.137,242.663 27.760,240.166 31.176 C 238.338 33.677,237.255 34.481,237.255 33.337 C 237.255 33.123,235.975 31.666,234.412 30.100 C 231.778 27.462,230.929 26.724,229.336 25.686 C 229.004 25.471,227.783 24.671,226.622 23.910 C 225.460 23.149,223.098 21.849,221.373 21.022 C 219.647 20.194,217.929 19.361,217.554 19.170 C 217.180 18.980,216.528 18.824,216.107 18.824 C 215.685 18.824,215.231 18.647,215.098 18.431 C 214.965 18.216,214.195 18.039,213.389 18.039 C 212.582 18.039,211.745 17.862,211.528 17.646 C 210.565 16.682,197.038 15.635,195.686 16.419 M205.294 31.373 C 205.427 31.588,206.320 31.765,207.278 31.765 C 208.236 31.765,209.020 31.941,209.020 32.157 C 209.020 32.373,209.505 32.555,210.098 32.561 C 210.691 32.568,211.519 32.833,211.938 33.150 C 212.356 33.466,213.018 33.725,213.408 33.725 C 213.798 33.725,214.118 33.902,214.118 34.118 C 214.118 34.333,214.471 34.510,214.902 34.510 C 215.333 34.510,215.686 34.686,215.686 34.902 C 215.686 35.118,216.006 35.294,216.397 35.294 C 216.787 35.294,217.486 35.647,217.949 36.078 C 218.412 36.510,219.063 36.863,219.395 36.863 C 219.728 36.863,220.001 37.083,220.002 37.353 C 220.003 37.623,220.930 38.437,222.061 39.163 C 223.192 39.889,224.735 41.274,225.490 42.242 C 226.245 43.210,227.083 44.236,227.353 44.522 C 227.623 44.808,227.843 45.231,227.843 45.462 C 227.843 45.693,228.020 45.882,228.235 45.882 C 228.451 45.882,228.627 46.122,228.627 46.416 C 228.627 46.709,229.069 47.280,229.608 47.685 C 230.147 48.090,230.588 48.699,230.588 49.039 C 230.588 49.379,230.941 50.387,231.373 51.280 C 231.804 52.173,232.157 53.166,232.157 53.487 C 232.157 53.809,232.333 54.180,232.549 54.314 C 232.765 54.447,232.941 55.062,232.941 55.681 C 232.941 56.300,233.206 57.071,233.529 57.395 C 234.382 58.247,234.371 71.593,233.517 72.722 C 233.200 73.141,232.941 73.899,232.941 74.408 C 232.941 74.916,232.588 76.063,232.157 76.955 C 231.725 77.848,231.373 78.810,231.373 79.093 C 231.373 79.376,231.196 79.608,230.980 79.608 C 230.765 79.608,230.588 79.968,230.588 80.409 C 230.588 80.850,230.147 81.686,229.608 82.268 C 229.069 82.850,228.627 83.467,228.627 83.640 C 228.627 83.813,228.275 84.333,227.843 84.796 L 227.059 85.638 227.059 82.646 C 227.059 81.001,226.882 79.545,226.667 79.412 C 226.451 79.278,226.275 78.407,226.275 77.476 C 226.275 76.449,226.043 75.590,225.686 75.294 C 225.363 75.026,225.098 74.397,225.098 73.897 C 225.098 73.397,224.922 72.878,224.706 72.745 C 224.490 72.612,224.314 71.984,224.314 71.349 C 224.314 70.715,224.137 70.196,223.922 70.196 C 223.706 70.196,223.529 69.854,223.529 69.435 C 223.529 69.016,223.353 68.565,223.137 68.431 C 222.922 68.298,222.745 67.846,222.745 67.428 C 222.745 67.009,222.569 66.667,222.353 66.667 C 222.137 66.667,221.961 66.424,221.961 66.126 C 221.961 65.829,221.696 65.367,221.373 65.098 C 221.049 64.830,220.784 64.279,220.784 63.874 C 220.784 63.469,220.608 63.137,220.392 63.137 C 220.176 63.137,220.000 62.784,220.000 62.353 C 220.000 61.922,219.862 61.569,219.692 61.569 C 219.523 61.569,219.051 60.995,218.643 60.294 C 218.236 59.593,217.792 58.931,217.658 58.824 C 217.523 58.716,216.984 58.010,216.459 57.255 C 214.500 54.437,209.172 49.019,206.969 47.605 C 204.672 46.132,201.494 46.284,197.931 48.039 C 196.399 48.794,194.737 49.412,194.239 49.412 C 193.741 49.412,193.333 49.588,193.333 49.804 C 193.333 50.028,192.165 50.196,190.611 50.196 C 189.114 50.196,187.780 50.373,187.647 50.588 C 187.511 50.809,185.625 50.980,183.333 50.980 C 181.042 50.980,179.156 50.809,179.020 50.588 C 178.886 50.373,177.376 50.196,175.663 50.196 C 173.848 50.196,172.549 50.032,172.549 49.804 C 172.549 49.588,172.064 49.409,171.471 49.406 C 170.877 49.402,170.569 49.270,170.785 49.112 C 171.001 48.953,171.428 48.338,171.734 47.745 C 172.039 47.152,172.436 46.667,172.615 46.667 C 172.795 46.667,172.941 46.402,172.941 46.078 C 172.941 45.755,173.118 45.490,173.333 45.490 C 173.549 45.490,173.725 45.137,173.725 44.706 C 173.725 44.275,173.858 43.921,174.020 43.921 C 174.412 43.920,176.471 42.138,176.471 41.799 C 176.471 41.421,178.331 39.608,178.719 39.608 C 178.897 39.608,179.297 39.255,179.608 38.824 C 179.919 38.392,180.355 38.036,180.577 38.032 C 180.799 38.029,181.396 37.588,181.904 37.052 C 182.412 36.517,183.162 36.078,183.571 36.078 C 183.979 36.078,184.314 35.946,184.314 35.784 C 184.315 35.623,185.462 34.967,186.863 34.327 C 188.265 33.687,189.412 33.026,189.412 32.857 C 189.412 32.687,190.029 32.549,190.784 32.549 C 191.539 32.549,192.157 32.373,192.157 32.157 C 192.157 31.941,192.941 31.765,193.898 31.765 C 194.856 31.765,195.749 31.588,195.882 31.373 C 196.021 31.148,198.036 30.980,200.588 30.980 C 203.141 30.980,205.156 31.148,205.294 31.373 M259.203 39.257 C 260.967 41.244,261.176 41.529,261.176 41.944 C 261.176 42.169,261.353 42.353,261.569 42.353 C 261.784 42.353,261.961 42.695,261.961 43.114 C 261.961 43.533,262.137 43.984,262.353 44.118 C 262.569 44.251,262.745 45.217,262.745 46.265 C 262.745 47.433,262.935 48.239,263.235 48.347 C 263.627 48.489,263.627 48.691,263.235 49.355 C 262.966 49.812,262.745 51.324,262.745 52.717 C 262.745 54.109,262.569 55.357,262.353 55.490 C 262.137 55.623,261.961 56.418,261.961 57.255 C 261.961 58.092,261.784 58.886,261.569 59.020 C 261.353 59.153,261.176 59.759,261.176 60.367 C 261.176 60.975,260.912 61.692,260.588 61.961 C 260.265 62.229,260.000 62.946,260.000 63.554 C 260.000 64.162,259.824 64.769,259.608 64.902 C 259.392 65.035,259.216 65.741,259.216 66.471 C 259.216 67.200,259.039 67.906,258.824 68.039 C 258.608 68.173,258.431 69.154,258.431 70.219 C 258.431 71.285,258.255 72.157,258.039 72.157 C 257.807 72.157,257.647 73.595,257.647 75.686 C 257.647 78.523,257.534 79.216,257.073 79.216 C 256.367 79.216,252.797 74.988,252.027 73.239 C 251.717 72.536,251.090 71.124,250.634 70.102 C 250.177 69.080,249.804 67.902,249.804 67.483 C 249.804 67.065,249.539 66.458,249.216 66.134 C 248.761 65.680,248.627 64.522,248.627 61.032 C 248.627 58.445,248.460 56.413,248.235 56.275 C 248.020 56.141,247.843 55.160,247.843 54.095 C 247.843 53.029,247.667 52.157,247.451 52.157 C 247.235 52.157,247.059 51.275,247.059 50.196 C 247.059 49.118,247.235 48.235,247.451 48.235 C 247.667 48.235,247.843 47.882,247.843 47.451 C 247.843 47.020,248.020 46.667,248.235 46.667 C 248.451 46.667,248.627 46.424,248.627 46.126 C 248.627 45.829,248.892 45.367,249.216 45.098 C 249.539 44.830,249.804 44.317,249.804 43.960 C 249.804 43.603,250.157 43.056,250.588 42.745 C 251.020 42.434,251.373 41.954,251.373 41.678 C 251.373 41.402,251.507 41.176,251.672 41.176 C 251.836 41.176,252.145 40.791,252.358 40.320 C 253.501 37.794,257.370 37.193,259.203 39.257 M202.590 63.431 C 203.002 63.809,203.602 64.647,203.924 65.294 C 204.632 66.716,205.290 67.451,205.854 67.451 C 206.085 67.451,206.275 67.804,206.275 68.235 C 206.275 68.667,206.451 69.020,206.667 69.020 C 206.882 69.020,207.059 69.284,207.059 69.608 C 207.059 69.931,207.235 70.196,207.451 70.196 C 207.667 70.196,207.843 70.549,207.843 70.980 C 207.843 71.412,208.020 71.765,208.235 71.765 C 208.451 71.765,208.627 72.002,208.627 72.293 C 208.627 73.079,209.806 75.294,210.225 75.294 C 210.425 75.294,210.588 75.813,210.588 76.447 C 210.588 77.082,210.765 77.710,210.980 77.843 C 211.196 77.976,211.373 78.771,211.373 79.608 C 211.373 80.445,211.549 81.239,211.765 81.373 C 211.995 81.515,212.157 83.787,212.157 86.863 C 212.157 89.938,211.995 92.211,211.765 92.353 C 211.549 92.486,211.373 93.291,211.373 94.141 C 211.373 94.991,211.196 95.686,210.980 95.686 C 210.765 95.686,210.588 95.996,210.588 96.375 C 210.588 98.449,193.553 99.589,192.323 97.598 C 192.206 97.409,191.589 97.255,190.952 97.255 C 190.315 97.255,189.487 97.098,189.112 96.907 C 188.738 96.715,187.373 96.059,186.078 95.449 C 184.784 94.838,183.667 94.201,183.595 94.032 C 183.523 93.863,183.293 93.725,183.084 93.725 C 181.889 93.725,172.941 85.576,172.941 84.488 C 172.941 84.164,170.802 80.988,170.490 80.850 C 170.328 80.778,170.196 80.292,170.196 79.771 C 170.196 79.250,170.020 78.824,169.804 78.824 C 169.588 78.824,169.412 78.471,169.412 78.039 C 169.412 77.608,169.235 77.255,169.020 77.255 C 168.804 77.255,168.627 76.637,168.627 75.882 C 168.627 75.127,168.451 74.510,168.235 74.510 C 168.020 74.510,167.843 73.814,167.843 72.964 C 167.843 72.114,167.667 71.310,167.451 71.176 C 167.235 71.043,167.059 69.356,167.059 67.428 L 167.059 63.922 169.759 63.922 C 171.392 63.922,172.904 64.153,173.583 64.507 C 175.242 65.373,192.608 65.375,193.473 64.510 C 193.842 64.142,194.805 63.922,196.050 63.922 C 197.144 63.922,198.039 63.755,198.039 63.551 C 198.039 63.347,198.877 63.114,199.902 63.033 C 200.926 62.953,201.782 62.855,201.803 62.816 C 201.824 62.777,202.178 63.054,202.590 63.431 M210.784 113.333 C 210.918 113.549,211.712 113.725,212.549 113.725 C 213.386 113.725,214.180 113.902,214.314 114.118 C 214.447 114.333,214.987 114.510,215.513 114.510 C 216.040 114.510,216.471 114.686,216.471 114.902 C 216.471 115.118,216.893 115.294,217.409 115.294 C 217.925 115.294,218.449 115.559,218.573 115.882 C 218.697 116.206,219.069 116.471,219.399 116.471 C 219.730 116.471,220.000 116.619,220.000 116.801 C 220.000 116.983,220.794 117.540,221.765 118.039 C 222.735 118.538,223.529 119.102,223.529 119.291 C 223.529 119.612,223.876 120.037,226.176 122.536 C 226.662 123.063,227.059 123.766,227.059 124.100 C 227.059 124.433,227.235 124.706,227.451 124.706 C 227.667 124.706,227.843 124.971,227.843 125.294 C 227.843 125.618,228.020 125.882,228.235 125.882 C 228.451 125.882,228.627 126.223,228.627 126.639 C 228.627 127.055,228.892 127.660,229.216 127.983 C 229.539 128.307,229.804 128.937,229.804 129.384 C 229.804 129.831,229.980 130.196,230.196 130.196 C 230.412 130.196,230.588 131.167,230.588 132.353 C 230.588 133.539,230.765 134.510,230.980 134.510 C 231.241 134.510,231.373 160.784,231.373 212.549 L 231.373 290.588 189.020 290.588 C 165.725 290.588,146.667 290.487,146.667 290.364 C 146.667 290.241,146.931 289.875,147.255 289.552 C 147.578 289.228,147.843 288.545,147.843 288.034 C 147.843 287.523,148.020 286.996,148.235 286.863 C 148.451 286.729,148.627 285.284,148.627 283.650 L 148.627 280.680 146.689 278.771 C 145.622 277.722,144.463 276.863,144.112 276.863 C 143.761 276.863,143.209 276.598,142.885 276.275 C 142.562 275.951,141.967 275.686,141.564 275.686 C 141.161 275.686,140.722 275.510,140.588 275.294 C 140.455 275.078,140.003 274.902,139.585 274.902 C 139.166 274.902,138.824 274.725,138.824 274.510 C 138.824 274.294,138.471 274.118,138.039 274.118 C 137.608 274.118,137.255 273.941,137.255 273.725 C 137.255 273.510,136.828 273.333,136.307 273.333 C 135.786 273.333,135.301 273.201,135.229 273.039 C 135.088 272.723,131.081 269.941,129.543 269.092 C 128.210 268.356,120.784 260.842,120.784 260.229 C 120.784 259.948,120.343 259.386,119.804 258.981 C 119.265 258.577,118.824 257.934,118.824 257.554 C 118.824 257.174,118.647 256.863,118.431 256.863 C 118.216 256.863,118.039 256.598,118.039 256.275 C 118.039 255.951,117.863 255.686,117.647 255.686 C 117.431 255.686,117.255 255.333,117.255 254.902 C 117.255 254.471,117.078 254.118,116.863 254.118 C 116.647 254.118,116.471 253.875,116.471 253.577 C 116.471 253.280,116.206 252.818,115.882 252.549 C 115.559 252.281,115.294 251.729,115.294 251.325 C 115.294 250.920,115.118 250.588,114.902 250.588 C 114.686 250.588,114.510 250.235,114.510 249.804 C 114.510 249.373,114.333 249.020,114.118 249.020 C 113.902 249.020,113.725 248.589,113.725 248.062 C 113.725 247.536,113.549 246.996,113.333 246.863 C 113.118 246.729,112.941 246.200,112.941 245.686 C 112.941 245.173,112.765 244.643,112.549 244.510 C 112.333 244.377,112.157 243.870,112.157 243.385 C 112.157 242.900,111.898 242.160,111.581 241.742 C 111.252 241.306,111.000 240.109,110.993 238.945 C 110.986 237.825,110.804 236.800,110.588 236.667 C 110.354 236.522,110.196 233.991,110.196 230.392 C 110.196 226.794,110.354 224.262,110.588 224.118 C 110.804 223.984,110.986 222.959,110.993 221.840 C 111.000 220.675,111.252 219.478,111.581 219.043 C 111.898 218.624,112.157 217.884,112.157 217.399 C 112.157 216.914,112.333 216.408,112.549 216.275 C 112.765 216.141,112.941 215.513,112.941 214.879 C 112.941 214.244,113.118 213.725,113.333 213.725 C 113.549 213.725,113.725 213.295,113.725 212.768 C 113.725 212.242,113.902 211.702,114.118 211.569 C 114.333 211.435,114.510 210.895,114.510 210.369 C 114.510 209.843,114.686 209.412,114.902 209.412 C 115.118 209.412,115.294 209.059,115.294 208.627 C 115.294 208.196,115.462 207.843,115.668 207.843 C 115.873 207.843,116.335 207.225,116.693 206.471 C 117.051 205.716,117.501 205.098,117.692 205.098 C 117.883 205.098,118.039 204.745,118.039 204.314 C 118.039 203.882,118.216 203.529,118.431 203.529 C 118.647 203.529,118.824 203.345,118.824 203.121 C 118.824 202.699,118.986 202.475,120.735 200.488 C 121.301 199.843,122.294 198.640,122.941 197.813 C 123.588 196.987,124.536 195.950,125.048 195.508 C 125.560 195.067,126.459 194.265,127.046 193.725 C 127.633 193.186,128.596 192.392,129.187 191.961 C 129.777 191.529,130.731 190.780,131.306 190.295 C 131.882 189.810,132.574 189.413,132.843 189.412 C 133.113 189.412,133.333 189.235,133.333 189.020 C 133.333 188.804,133.598 188.627,133.922 188.627 C 134.245 188.627,134.510 188.451,134.510 188.235 C 134.510 188.020,134.760 187.843,135.066 187.843 C 135.766 187.843,138.033 186.571,138.037 186.176 C 138.038 186.015,138.306 185.882,138.633 185.882 C 138.959 185.882,139.621 185.678,140.103 185.429 C 141.987 184.455,142.368 184.314,143.109 184.314 C 143.530 184.314,143.972 184.157,144.091 183.965 C 144.209 183.773,144.882 183.518,145.585 183.398 C 149.573 182.719,150.766 182.408,150.898 182.011 C 150.991 181.732,152.196 181.569,154.150 181.569 C 155.959 181.569,157.255 181.405,157.255 181.176 C 157.255 180.961,157.533 180.784,157.873 180.784 C 158.864 180.784,160.784 178.605,160.784 177.481 C 160.784 176.925,160.961 176.471,161.176 176.471 C 161.392 176.471,161.569 175.687,161.569 174.729 C 161.569 173.771,161.392 172.878,161.176 172.745 C 160.961 172.612,160.784 172.087,160.784 171.578 C 160.784 171.070,160.649 170.595,160.483 170.523 C 159.904 170.271,157.255 166.359,157.255 165.755 C 157.255 165.419,157.078 165.035,156.863 164.902 C 156.637 164.762,156.471 162.676,156.471 159.977 C 156.471 157.116,156.623 155.294,156.863 155.294 C 157.078 155.294,157.255 154.765,157.255 154.118 C 157.255 153.471,157.431 152.941,157.647 152.941 C 157.863 152.941,158.039 152.757,158.039 152.532 C 158.039 152.047,158.468 151.508,160.686 149.203 C 161.603 148.251,162.353 147.291,162.353 147.069 C 162.353 146.848,162.601 146.667,162.904 146.667 C 163.379 146.667,164.628 146.126,167.544 144.657 C 167.918 144.468,170.793 144.314,173.933 144.314 C 180.038 144.314,179.801 144.381,182.185 141.977 C 183.485 140.666,183.529 140.520,183.529 137.565 C 183.529 135.790,183.694 134.510,183.922 134.510 C 184.137 134.510,184.314 133.726,184.314 132.768 C 184.314 131.810,184.490 130.918,184.706 130.784 C 184.922 130.651,185.098 130.122,185.098 129.608 C 185.098 129.094,185.275 128.565,185.490 128.431 C 185.706 128.298,185.882 127.846,185.882 127.428 C 185.882 127.009,186.015 126.666,186.176 126.664 C 186.525 126.661,187.843 124.430,187.843 123.842 C 187.843 123.291,193.908 117.255,194.462 117.255 C 194.704 117.255,194.902 117.078,194.902 116.863 C 194.902 116.647,195.172 116.471,195.503 116.471 C 195.833 116.471,196.205 116.206,196.329 115.882 C 196.453 115.559,196.889 115.294,197.297 115.294 C 197.705 115.294,198.039 115.118,198.039 114.902 C 198.039 114.686,198.657 114.510,199.412 114.510 C 200.167 114.510,200.784 114.333,200.784 114.118 C 200.784 113.902,201.534 113.723,202.451 113.719 C 203.368 113.716,204.382 113.542,204.706 113.333 C 205.483 112.831,210.474 112.831,210.784 113.333 M134.706 199.608 C 134.573 199.824,133.942 200.000,133.305 200.000 C 132.668 200.000,131.840 200.157,131.465 200.349 C 131.091 200.540,130.123 201.022,129.314 201.418 C 128.505 201.815,127.843 202.255,127.843 202.396 C 127.843 202.538,127.516 202.739,127.116 202.844 C 126.503 203.004,125.557 204.042,121.951 208.513 C 121.741 208.773,121.569 209.248,121.569 209.568 C 121.569 209.888,121.392 210.259,121.176 210.392 C 120.961 210.525,120.784 211.065,120.784 211.592 C 120.784 212.118,120.608 212.549,120.392 212.549 C 120.148 212.549,120.000 214.771,120.000 218.431 C 120.000 222.092,120.148 224.314,120.392 224.314 C 120.608 224.314,120.784 225.009,120.784 225.859 C 120.784 226.709,120.961 227.514,121.176 227.647 C 121.392 227.780,121.569 228.232,121.569 228.651 C 121.569 229.069,121.745 229.412,121.961 229.412 C 122.176 229.412,122.353 229.853,122.353 230.392 C 122.353 230.931,122.529 231.373,122.745 231.373 C 122.961 231.373,123.137 231.643,123.137 231.973 C 123.137 232.303,123.402 232.675,123.725 232.799 C 124.049 232.924,124.314 233.408,124.314 233.877 C 124.314 234.345,124.667 234.983,125.098 235.294 C 125.529 235.605,125.882 236.173,125.882 236.557 C 125.882 236.941,126.059 237.255,126.275 237.255 C 126.490 237.255,126.667 237.520,126.667 237.843 C 126.667 238.167,126.931 238.431,127.255 238.431 C 127.578 238.431,127.843 238.745,127.843 239.129 C 127.843 239.513,128.196 240.081,128.627 240.392 C 129.059 240.703,129.412 241.103,129.412 241.281 C 129.412 241.459,129.809 242.035,130.294 242.563 C 132.524 244.984,132.941 245.477,132.941 245.690 C 132.941 245.995,134.801 247.843,135.108 247.843 C 135.420 247.843,136.471 248.890,136.471 249.201 C 136.471 249.606,139.167 252.157,139.595 252.157 C 139.818 252.157,140.000 252.339,140.000 252.562 C 140.000 252.990,142.551 255.686,142.956 255.686 C 143.284 255.686,144.314 256.745,144.314 257.083 C 144.314 258.862,151.044 260.075,153.424 258.725 C 154.469 258.132,165.758 246.886,166.863 245.336 C 167.294 244.731,168.088 243.752,168.627 243.159 C 169.167 242.567,169.961 241.592,170.392 240.992 C 170.824 240.392,171.574 239.490,172.059 238.988 C 172.544 238.486,172.941 237.890,172.941 237.665 C 172.941 237.439,173.118 237.255,173.333 237.255 C 173.549 237.255,173.725 236.902,173.725 236.471 C 173.725 236.039,173.862 235.686,174.028 235.686 C 174.195 235.686,174.664 235.069,175.071 234.314 C 175.477 233.559,175.958 232.941,176.140 232.941 C 176.322 232.941,176.471 232.588,176.471 232.157 C 176.471 231.725,176.647 231.373,176.863 231.373 C 177.078 231.373,177.255 230.942,177.255 230.415 C 177.255 229.889,177.431 229.349,177.647 229.216 C 177.863 229.082,178.039 228.561,178.039 228.058 C 178.039 227.555,178.304 227.041,178.627 226.917 C 179.014 226.769,179.216 226.156,179.216 225.133 C 179.216 224.277,179.392 223.467,179.608 223.333 C 179.834 223.194,180.000 221.115,180.000 218.431 C 180.000 215.748,179.834 213.669,179.608 213.529 C 179.392 213.396,179.216 212.869,179.216 212.358 C 179.216 211.847,178.951 211.164,178.627 210.840 C 178.304 210.517,178.035 210.019,178.030 209.734 C 178.026 209.449,177.677 208.775,177.255 208.235 C 176.833 207.696,176.484 207.116,176.479 206.946 C 176.471 206.647,173.768 203.935,172.293 202.745 C 171.891 202.422,170.858 201.822,169.997 201.413 C 169.136 201.004,168.125 200.518,167.750 200.334 C 167.376 200.151,166.725 200.000,166.303 200.000 C 165.881 200.000,165.427 199.824,165.294 199.608 C 165.159 199.389,163.337 199.216,161.176 199.216 C 159.016 199.216,157.194 199.389,157.059 199.608 C 156.926 199.824,156.209 200.000,155.467 200.000 C 154.725 200.000,154.118 200.154,154.118 200.343 C 154.118 200.532,153.632 200.784,153.039 200.904 C 152.446 201.024,151.571 201.488,151.095 201.934 C 150.049 202.914,149.570 202.914,148.039 201.936 C 147.392 201.523,146.598 201.082,146.275 200.956 C 145.951 200.830,145.380 200.563,145.005 200.364 C 144.631 200.164,143.979 200.000,143.558 200.000 C 143.136 200.000,142.682 199.824,142.549 199.608 C 142.415 199.391,140.657 199.216,138.627 199.216 C 136.598 199.216,134.840 199.391,134.706 199.608 M141.081 215.503 C 141.781 216.266,142.353 217.153,142.353 217.476 C 142.353 217.800,142.618 218.165,142.941 218.290 C 143.265 218.414,143.529 218.774,143.529 219.090 C 143.529 219.725,144.026 220.286,145.479 221.291 C 146.783 222.191,152.595 222.251,153.473 221.373 C 153.797 221.049,154.267 220.784,154.517 220.784 C 155.077 220.784,156.440 219.201,156.458 218.529 C 156.465 218.260,156.647 218.039,156.863 218.039 C 157.078 218.039,157.255 217.686,157.255 217.255 C 157.255 216.824,157.431 216.471,157.647 216.471 C 157.863 216.471,158.039 216.278,158.039 216.043 C 158.039 213.971,161.887 213.573,163.765 215.451 C 165.138 216.824,165.776 221.103,164.706 221.765 C 164.490 221.898,164.314 222.350,164.314 222.768 C 164.314 223.187,164.137 223.529,163.922 223.529 C 163.706 223.529,163.529 223.890,163.529 224.330 C 163.529 224.771,163.309 225.395,163.039 225.716 C 162.770 226.038,162.373 226.516,162.157 226.778 C 161.941 227.040,161.516 227.737,161.212 228.327 C 160.908 228.916,160.334 229.747,159.937 230.173 C 159.540 230.599,159.216 231.028,159.216 231.127 C 159.216 231.447,156.407 234.643,152.449 238.826 L 149.664 241.769 147.381 239.507 C 146.125 238.263,145.098 237.151,145.098 237.036 C 145.098 236.921,144.701 236.420,144.216 235.922 C 142.903 234.576,141.569 232.964,141.569 232.724 C 141.569 232.608,141.172 232.097,140.686 231.587 C 139.312 230.145,138.440 228.935,137.776 227.549 C 137.440 226.848,137.009 226.275,136.818 226.275 C 136.627 226.275,136.471 226.019,136.471 225.707 C 136.471 225.395,136.029 224.310,135.490 223.296 C 132.351 217.391,136.942 210.993,141.081 215.503 M212.916 240.284 C 210.613 241.997,210.588 242.155,210.588 255.176 L 210.588 267.059 201.157 267.059 C 193.349 267.059,191.521 267.165,190.534 267.675 C 188.782 268.581,187.059 270.228,187.059 270.997 C 187.059 271.367,186.794 271.888,186.471 272.157 C 186.083 272.479,185.882 273.355,185.882 274.726 C 185.882 276.053,186.096 277.020,186.471 277.395 C 186.794 277.718,187.059 278.180,187.059 278.421 C 187.059 279.174,189.116 280.958,190.570 281.464 C 194.419 282.806,221.569 281.955,221.569 280.493 C 221.569 280.222,221.769 280.000,222.013 280.000 C 222.258 280.000,222.875 279.515,223.385 278.922 L 224.313 277.843 224.313 260.294 C 224.314 249.701,224.169 242.745,223.948 242.745 C 223.747 242.745,223.480 242.436,223.354 242.059 C 222.428 239.272,215.794 238.144,212.916 240.284 M210.588 335.910 C 210.588 362.428,210.513 366.406,210.000 366.919 C 209.676 367.242,209.412 367.847,209.412 368.263 C 209.412 368.679,209.235 369.020,209.020 369.020 C 208.804 369.020,208.622 369.328,208.615 369.706 C 208.587 371.270,204.668 374.127,202.573 374.112 C 200.111 374.094,196.471 372.170,196.471 370.887 C 196.471 370.507,196.294 370.196,196.078 370.196 C 195.863 370.196,195.686 369.931,195.686 369.608 C 195.686 369.284,195.510 369.020,195.294 369.020 C 195.078 369.020,194.902 368.512,194.902 367.891 C 194.902 367.271,194.637 366.543,194.314 366.275 C 193.800 365.848,193.725 361.958,193.725 335.638 L 193.725 305.490 202.157 305.490 L 210.588 305.490 210.588 335.910 "></path><path id="path1" d="" stroke="none" fill="#080404" fill-rule="evenodd"></path><path id="path2" d="" stroke="none" fill="#080404" fill-rule="evenodd"></path><path id="path3" d="" stroke="none" fill="#080404" fill-rule="evenodd"></path><path id="path4" d="" stroke="none" fill="#080404" fill-rule="evenodd"></path></g></svg>