<svg id="svg" version="1.1" xmlns="http://www.w3.org/2000/svg" xmlns:xlink="http://www.w3.org/1999/xlink" width="400" height="369.6" viewBox="0, 0, 400,369.6"><g id="svgg"><path id="path0" d="M256.562 7.394 C 256.562 7.597,256.229 7.763,255.823 7.763 C 255.416 7.763,255.083 7.930,255.083 8.133 C 255.083 8.336,254.875 8.504,254.621 8.506 C 254.367 8.508,253.790 8.977,253.339 9.548 C 252.381 10.761,250.842 12.360,249.323 13.720 C 248.729 14.251,247.647 15.332,246.918 16.123 C 246.188 16.913,244.940 18.165,244.145 18.905 C 243.349 19.644,242.267 20.725,241.739 21.308 C 241.212 21.890,240.130 22.959,239.336 23.683 C 238.542 24.408,237.458 25.489,236.927 26.086 C 236.396 26.683,235.315 27.765,234.524 28.489 C 233.734 29.214,232.652 30.295,232.121 30.892 C 231.590 31.489,230.509 32.571,229.718 33.295 C 228.928 34.020,227.846 35.101,227.315 35.698 C 226.784 36.295,225.703 37.377,224.912 38.101 C 224.122 38.826,223.041 39.907,222.510 40.504 C 221.978 41.101,220.897 42.187,220.107 42.916 C 219.316 43.646,218.064 44.893,217.325 45.689 C 216.585 46.484,215.504 47.567,214.922 48.094 C 214.340 48.622,213.270 49.703,212.546 50.497 C 209.717 53.597,209.077 53.974,206.645 53.974 C 203.733 53.974,203.494 54.139,196.922 60.718 L 191.440 66.204 190.046 64.803 C 186.098 60.834,182.423 59.230,181.331 60.998 C 181.205 61.201,180.866 61.368,180.577 61.368 C 180.112 61.368,135.813 105.557,48.269 193.346 C 23.156 218.528,18.115 223.840,18.115 225.113 C 18.115 225.330,17.948 225.508,17.745 225.508 C 17.542 225.508,17.375 225.841,17.375 226.248 C 17.375 226.658,17.129 226.987,16.821 226.987 C 16.516 226.987,16.266 227.310,16.266 227.705 C 16.266 228.099,16.100 228.525,15.896 228.651 C 15.693 228.776,15.527 229.275,15.527 229.760 C 15.527 230.244,15.360 230.743,15.157 230.869 C 14.954 230.994,14.787 231.420,14.787 231.815 C 14.787 232.209,14.621 232.532,14.418 232.532 C 14.214 232.532,14.048 233.447,14.048 234.566 C 14.048 235.684,13.882 236.599,13.678 236.599 C 13.447 236.599,13.309 238.817,13.309 242.514 C 13.309 246.211,13.447 248.429,13.678 248.429 C 13.882 248.429,14.048 249.344,14.048 250.462 C 14.048 251.580,14.214 252.495,14.418 252.495 C 14.621 252.495,14.787 252.828,14.787 253.235 C 14.787 253.641,14.954 253.974,15.157 253.974 C 15.360 253.974,15.527 254.463,15.527 255.061 C 15.527 255.659,15.693 256.251,15.896 256.377 C 16.100 256.503,16.266 256.928,16.266 257.323 C 16.266 257.718,16.516 258.041,16.821 258.041 C 17.126 258.041,17.375 258.297,17.375 258.611 C 17.375 258.924,17.708 259.538,18.115 259.974 C 18.521 260.411,18.854 260.996,18.854 261.276 C 18.854 262.080,26.159 269.131,26.992 269.131 C 27.396 269.131,27.726 269.367,27.726 269.655 C 27.726 269.943,28.226 270.399,28.835 270.669 C 29.445 270.939,29.945 271.286,29.945 271.440 C 29.945 271.593,30.360 271.719,30.869 271.719 C 31.377 271.719,31.793 271.855,31.793 272.022 C 31.793 272.188,32.625 272.551,33.641 272.828 C 34.658 273.105,35.490 273.468,35.490 273.634 C 35.490 273.801,36.334 273.937,37.365 273.937 C 38.538 273.937,39.447 274.145,39.794 274.492 C 40.237 274.935,41.452 275.046,45.841 275.046 C 50.230 275.046,51.445 274.935,51.888 274.492 C 52.235 274.145,53.144 273.937,54.317 273.937 C 55.349 273.937,56.192 273.771,56.192 273.567 C 56.192 273.364,56.608 273.198,57.116 273.198 C 57.625 273.198,58.041 273.031,58.041 272.828 C 58.041 272.625,58.447 272.458,58.943 272.458 C 59.439 272.458,59.948 272.292,60.074 272.089 C 60.200 271.885,60.625 271.719,61.020 271.719 C 61.415 271.719,61.738 271.589,61.738 271.429 C 61.738 271.270,62.278 270.824,62.939 270.439 C 63.600 270.053,64.410 269.435,64.738 269.065 C 65.067 268.695,65.595 268.392,65.911 268.392 C 66.227 268.392,67.227 267.623,68.134 266.684 C 70.311 264.428,70.157 264.582,72.274 262.553 C 73.290 261.579,74.453 260.331,74.857 259.781 C 75.261 259.230,75.731 258.780,75.902 258.780 C 76.255 258.780,78.558 256.440,79.663 254.959 C 80.067 254.417,80.537 253.974,80.708 253.974 C 81.061 253.974,83.364 251.634,84.469 250.153 C 84.873 249.612,85.372 249.162,85.578 249.155 C 85.783 249.148,86.617 248.381,87.431 247.451 C 88.244 246.521,89.381 245.321,89.957 244.784 C 91.241 243.587,93.017 241.815,94.332 240.419 C 94.875 239.843,95.956 238.766,96.735 238.025 C 97.514 237.284,98.591 236.203,99.128 235.622 C 99.665 235.041,100.865 233.900,101.795 233.087 C 102.725 232.274,103.491 231.440,103.499 231.234 C 103.506 231.028,103.955 230.529,104.497 230.125 C 105.978 229.020,108.318 226.717,108.318 226.364 C 108.318 226.193,108.761 225.723,109.303 225.319 C 110.784 224.214,113.124 221.912,113.124 221.559 C 113.124 221.387,113.567 220.917,114.109 220.513 C 115.590 219.408,117.930 217.106,117.930 216.753 C 117.930 216.582,118.380 216.111,118.930 215.707 C 119.481 215.303,120.728 214.140,121.703 213.124 C 123.861 210.873,123.627 211.107,125.878 208.949 C 126.895 207.974,128.057 206.727,128.461 206.176 C 128.865 205.626,129.336 205.176,129.507 205.176 C 129.860 205.176,132.163 202.836,133.267 201.355 C 133.671 200.813,134.142 200.370,134.313 200.370 C 134.666 200.370,136.969 198.030,138.073 196.549 C 138.477 196.007,138.976 195.558,139.182 195.551 C 139.388 195.543,140.222 194.776,141.035 193.846 C 141.848 192.916,142.989 191.716,143.570 191.179 C 144.151 190.643,145.232 189.566,145.973 188.787 C 146.714 188.008,147.795 186.926,148.376 186.384 C 148.957 185.841,150.038 184.760,150.779 183.981 C 151.520 183.202,152.601 182.121,153.182 181.578 C 153.763 181.035,154.844 179.954,155.585 179.175 C 156.326 178.396,157.403 177.315,157.979 176.772 C 159.375 175.457,161.147 173.681,162.344 172.397 C 162.881 171.821,164.081 170.684,165.011 169.871 C 165.941 169.057,166.708 168.223,166.715 168.018 C 166.722 167.812,167.172 167.313,167.713 166.908 C 169.194 165.804,171.534 163.501,171.534 163.148 C 171.534 162.977,171.978 162.507,172.519 162.103 C 173.842 161.116,176.340 158.710,176.340 158.423 C 176.340 158.296,176.748 157.784,177.248 157.284 C 177.747 156.785,178.259 156.377,178.386 156.377 C 178.673 156.377,181.079 153.879,182.066 152.556 C 182.470 152.014,182.940 151.571,183.111 151.571 C 183.464 151.571,185.767 149.231,186.871 147.750 C 187.276 147.209,187.775 146.759,187.981 146.752 C 188.186 146.745,189.020 145.978,189.834 145.048 C 190.647 144.118,191.784 142.918,192.360 142.381 C 193.644 141.184,195.420 139.412,196.735 138.016 C 197.278 137.440,198.359 136.363,199.138 135.622 C 199.917 134.881,200.998 133.800,201.541 133.219 C 202.084 132.638,203.165 131.557,203.944 130.816 C 204.723 130.075,205.804 128.994,206.347 128.413 C 206.890 127.832,207.971 126.751,208.750 126.010 C 209.529 125.269,210.610 124.188,211.153 123.607 C 211.695 123.026,212.777 121.945,213.556 121.204 C 214.335 120.463,215.416 119.382,215.959 118.801 C 216.501 118.220,217.583 117.139,218.362 116.398 C 219.141 115.658,220.217 114.576,220.754 113.995 C 221.291 113.414,222.491 112.274,223.421 111.460 C 224.351 110.647,225.118 109.851,225.125 109.692 C 225.133 109.533,225.721 108.820,226.433 108.108 C 229.015 105.526,228.257 103.063,223.343 98.066 L 222.103 96.804 222.974 95.843 C 223.453 95.314,226.132 92.600,228.928 89.813 L 234.011 84.744 234.011 81.947 L 234.011 79.151 257.116 56.068 C 269.824 43.372,280.222 32.871,280.222 32.732 C 280.222 32.593,280.471 32.230,280.776 31.925 C 281.103 31.598,281.331 30.694,281.331 29.722 C 281.331 28.597,281.155 28.005,280.776 27.860 C 280.471 27.743,280.222 27.309,280.222 26.895 C 280.222 26.070,267.071 12.569,266.267 12.569 C 266.012 12.569,265.804 12.356,265.804 12.095 C 265.804 11.426,261.956 7.763,261.254 7.763 C 260.934 7.763,260.569 7.597,260.444 7.394 C 260.318 7.190,259.393 7.024,258.389 7.024 C 257.384 7.024,256.562 7.190,256.562 7.394 M263.073 24.974 C 266.640 28.543,267.618 29.725,267.311 30.096 C 265.782 31.937,225.878 71.540,225.878 71.215 C 225.878 70.990,223.865 68.787,221.404 66.321 L 216.930 61.836 237.578 41.114 C 248.934 29.716,258.273 20.378,258.330 20.362 C 258.388 20.346,260.522 22.421,263.073 24.974 M213.476 74.535 C 217.450 78.523,220.701 81.892,220.699 82.021 C 220.696 82.278,217.088 86.082,215.283 87.731 L 214.145 88.771 212.340 87.094 C 211.348 86.173,210.411 85.414,210.259 85.408 C 210.106 85.402,209.982 85.234,209.982 85.034 C 209.982 84.834,207.652 82.365,204.806 79.547 C 201.959 76.729,199.630 74.218,199.630 73.966 C 199.630 73.609,205.818 67.283,206.167 67.283 C 206.212 67.283,209.501 70.546,213.476 74.535 M198.746 89.241 C 207.162 97.659,214.048 104.645,214.048 104.766 C 214.048 105.274,58.530 260.628,58.021 260.628 C 57.715 260.628,57.225 260.961,56.932 261.368 C 56.639 261.774,56.184 262.107,55.921 262.107 C 55.658 262.107,55.154 262.254,54.801 262.434 C 50.695 264.522,42.048 264.926,38.730 263.184 C 38.377 262.998,37.763 262.847,37.365 262.847 C 36.968 262.847,36.540 262.680,36.414 262.477 C 36.288 262.274,35.899 262.107,35.550 262.107 C 35.200 262.107,34.674 261.774,34.381 261.368 C 34.088 260.961,33.666 260.628,33.443 260.628 C 32.872 260.628,28.466 256.361,28.466 255.809 C 28.466 255.558,28.050 254.967,27.542 254.496 C 27.033 254.025,26.617 253.382,26.617 253.068 C 26.617 252.753,26.451 252.495,26.248 252.495 C 26.044 252.495,25.878 252.163,25.878 251.756 C 25.878 251.349,25.712 251.017,25.508 251.017 C 25.305 251.017,25.139 250.527,25.139 249.929 C 25.139 249.331,24.972 248.739,24.769 248.614 C 24.566 248.488,24.399 247.490,24.399 246.396 C 24.399 245.301,24.217 244.293,23.995 244.156 C 23.746 244.002,23.676 243.320,23.814 242.378 C 23.936 241.538,24.138 239.811,24.261 238.540 C 24.384 237.269,24.632 236.229,24.812 236.229 C 24.992 236.229,25.139 235.906,25.139 235.512 C 25.139 235.117,25.305 234.691,25.508 234.566 C 25.712 234.440,25.878 233.931,25.878 233.435 C 25.878 232.938,26.044 232.532,26.248 232.532 C 26.451 232.532,26.617 232.359,26.617 232.147 C 26.617 231.784,26.907 231.366,28.004 230.143 C 28.258 229.860,28.466 229.474,28.466 229.286 C 28.466 229.099,28.965 228.423,29.575 227.785 C 30.185 227.146,30.684 226.528,30.684 226.409 C 30.684 226.127,31.678 225.139,31.961 225.139 C 32.249 225.139,35.490 221.898,35.490 221.610 C 35.490 221.323,36.480 220.333,36.767 220.333 C 37.098 220.333,40.296 217.071,40.296 216.733 C 40.296 216.573,40.746 216.111,41.296 215.707 C 41.847 215.303,43.094 214.140,44.069 213.124 C 45.043 212.107,45.988 211.131,46.167 210.955 C 46.347 210.779,47.409 209.720,48.528 208.602 C 49.646 207.483,50.727 206.402,50.931 206.199 C 51.134 205.995,52.215 204.914,53.334 203.796 C 54.452 202.677,55.533 201.596,55.737 201.393 C 55.940 201.189,57.021 200.108,58.140 198.990 C 59.258 197.871,60.339 196.790,60.542 196.587 C 60.746 196.384,61.849 195.280,62.995 194.134 C 64.140 192.989,65.244 191.885,65.447 191.682 C 65.651 191.479,66.732 190.397,67.850 189.279 C 68.968 188.161,70.005 187.121,70.154 186.968 C 70.303 186.816,71.257 185.894,72.274 184.919 C 73.290 183.945,74.453 182.697,74.857 182.147 C 75.261 181.596,75.731 181.146,75.902 181.146 C 76.255 181.146,78.558 178.806,79.663 177.325 C 80.067 176.783,80.537 176.340,80.708 176.340 C 81.061 176.340,83.364 174.000,84.469 172.519 C 84.873 171.978,85.334 171.534,85.495 171.534 C 85.875 171.534,89.094 168.315,89.094 167.935 C 89.094 167.774,89.538 167.313,90.079 166.908 C 91.560 165.804,93.900 163.501,93.900 163.148 C 93.900 162.977,94.343 162.507,94.885 162.103 C 96.366 160.998,98.706 158.695,98.706 158.342 C 98.706 158.171,99.156 157.701,99.707 157.297 C 100.257 156.893,101.505 155.730,102.479 154.713 C 103.454 153.697,104.420 152.699,104.627 152.495 C 104.834 152.292,105.874 151.255,106.938 150.191 C 108.002 149.127,109.083 148.046,109.341 147.788 C 109.599 147.531,110.680 146.449,111.744 145.385 C 112.808 144.321,113.845 143.285,114.048 143.081 C 114.251 142.878,115.333 141.797,116.451 140.678 C 117.569 139.560,118.651 138.479,118.854 138.275 C 119.057 138.072,120.161 136.968,121.306 135.823 C 122.452 134.677,123.533 133.593,123.709 133.413 C 123.885 133.234,124.861 132.289,125.878 131.315 C 126.895 130.340,128.057 129.093,128.461 128.542 C 128.865 127.992,129.336 127.542,129.507 127.542 C 129.860 127.542,132.163 125.202,133.267 123.721 C 133.671 123.179,134.142 122.736,134.313 122.736 C 134.666 122.736,136.969 120.396,138.073 118.915 C 138.477 118.373,138.948 117.930,139.119 117.930 C 139.290 117.930,140.040 117.275,140.787 116.474 C 141.533 115.673,142.583 114.550,143.120 113.978 C 143.657 113.407,144.857 112.274,145.787 111.460 C 146.717 110.647,147.484 109.813,147.491 109.607 C 147.499 109.401,147.948 108.902,148.490 108.498 C 149.971 107.394,152.311 105.091,152.311 104.738 C 152.311 104.567,152.754 104.096,153.296 103.692 C 154.777 102.588,157.116 100.285,157.116 99.932 C 157.116 99.761,157.560 99.290,158.102 98.886 C 159.583 97.782,161.922 95.479,161.922 95.126 C 161.922 94.955,162.373 94.484,162.923 94.080 C 163.473 93.676,164.721 92.514,165.695 91.497 C 166.670 90.481,167.592 89.527,167.745 89.378 C 168.106 89.026,172.091 85.040,172.508 84.615 C 172.684 84.435,173.660 83.491,174.677 82.516 C 175.693 81.542,176.856 80.294,177.260 79.744 C 177.664 79.193,178.134 78.743,178.305 78.743 C 178.658 78.743,180.961 76.403,182.066 74.922 C 183.132 73.493,182.197 72.691,198.746 89.241 M363.236 80.190 C 363.080 80.443,361.360 80.591,358.595 80.591 C 356.066 80.591,354.106 80.748,353.974 80.961 C 353.848 81.165,353.183 81.331,352.495 81.331 C 351.808 81.331,351.142 81.497,351.017 81.701 C 350.891 81.904,350.463 82.070,350.066 82.070 C 349.668 82.070,349.054 82.218,348.701 82.398 C 348.348 82.578,347.103 83.195,345.933 83.769 C 344.764 84.344,343.808 84.945,343.808 85.106 C 343.808 85.266,343.590 85.397,343.323 85.397 C 343.056 85.397,342.481 85.730,342.045 86.137 C 341.608 86.543,341.152 86.876,341.031 86.876 C 340.655 86.876,148.614 279.121,148.614 279.497 C 148.614 279.693,148.447 279.852,148.244 279.852 C 147.761 279.852,139.002 288.612,139.002 289.094 C 139.002 289.298,138.832 289.464,138.624 289.464 C 138.132 289.464,134.196 293.400,134.196 293.892 C 134.196 294.100,134.026 294.270,133.818 294.270 C 133.326 294.270,129.390 298.206,129.390 298.698 C 129.390 298.906,129.220 299.076,129.012 299.076 C 128.520 299.076,124.584 303.012,124.584 303.504 C 124.584 303.712,124.414 303.882,124.206 303.882 C 123.714 303.882,119.778 307.818,119.778 308.310 C 119.778 308.518,119.634 308.688,119.458 308.688 C 119.117 308.688,114.972 312.560,114.972 312.879 C 114.972 312.982,114.515 313.547,113.956 314.134 C 112.416 315.749,111.816 316.574,111.245 317.864 C 110.959 318.510,110.619 319.039,110.489 319.039 C 110.359 319.039,110.155 319.330,110.035 319.686 C 109.916 320.042,109.666 320.582,109.481 320.887 C 109.295 321.192,108.938 321.941,108.687 322.551 C 108.437 323.161,108.085 323.949,107.905 324.302 C 107.726 324.655,107.579 325.362,107.579 325.873 C 107.579 326.384,107.412 326.802,107.209 326.802 C 107.006 326.802,106.839 327.717,106.839 328.835 C 106.839 329.954,106.673 330.869,106.470 330.869 C 106.243 330.869,106.100 332.648,106.100 335.468 C 106.100 338.135,106.255 340.163,106.470 340.296 C 106.673 340.421,106.839 341.336,106.839 342.329 C 106.839 343.322,107.006 344.237,107.209 344.362 C 107.412 344.488,107.579 345.080,107.579 345.678 C 107.579 346.276,107.745 346.765,107.948 346.765 C 108.152 346.765,108.318 347.088,108.318 347.483 C 108.318 347.877,108.484 348.303,108.688 348.429 C 108.891 348.554,109.057 348.968,109.057 349.348 C 109.057 349.729,109.307 350.289,109.612 350.594 C 109.917 350.899,110.166 351.410,110.166 351.730 C 110.166 352.049,110.333 352.311,110.536 352.311 C 110.739 352.311,110.906 352.560,110.906 352.865 C 110.906 353.170,111.072 353.420,111.275 353.420 C 111.479 353.420,111.645 353.637,111.645 353.902 C 111.645 354.511,114.008 357.116,114.560 357.116 C 114.787 357.116,114.972 357.412,114.972 357.774 C 114.972 358.136,115.329 358.677,115.765 358.976 C 116.201 359.275,117.111 360.060,117.786 360.721 C 118.462 361.382,119.352 361.922,119.766 361.922 C 120.179 361.922,120.518 362.101,120.518 362.318 C 120.518 362.907,121.491 363.771,122.155 363.771 C 122.474 363.771,122.736 363.937,122.736 364.140 C 122.736 364.344,123.152 364.510,123.660 364.510 C 124.168 364.510,124.584 364.677,124.584 364.880 C 124.584 365.083,124.917 365.250,125.323 365.250 C 125.730 365.250,126.063 365.416,126.063 365.619 C 126.063 365.823,126.469 365.989,126.965 365.989 C 127.462 365.989,127.970 366.155,128.096 366.359 C 128.222 366.562,128.960 366.728,129.736 366.728 C 130.540 366.728,131.346 366.967,131.608 367.283 C 132.278 368.090,145.167 368.100,146.232 367.295 C 146.627 366.996,147.574 366.747,148.336 366.740 C 149.099 366.734,149.723 366.562,149.723 366.359 C 149.723 366.155,150.139 365.989,150.647 365.989 C 151.155 365.989,151.571 365.823,151.571 365.619 C 151.571 365.416,151.888 365.250,152.276 365.250 C 153.465 365.250,156.258 363.683,158.042 362.015 C 158.531 361.557,159.124 361.183,159.358 361.183 C 159.751 361.183,163.987 357.268,166.304 354.764 C 166.842 354.182,167.932 353.101,168.726 352.361 C 169.520 351.622,170.602 350.540,171.129 349.958 C 171.657 349.376,172.740 348.295,173.535 347.555 C 174.330 346.816,175.578 345.564,176.308 344.773 C 177.037 343.983,178.123 342.901,178.720 342.370 C 179.317 341.839,180.398 340.755,181.123 339.961 C 181.847 339.167,182.916 338.086,183.498 337.558 C 184.080 337.031,185.162 335.949,185.901 335.155 C 186.641 334.361,187.722 333.280,188.304 332.752 C 188.886 332.225,189.968 331.143,190.707 330.349 C 191.447 329.556,192.528 328.474,193.110 327.947 C 193.692 327.419,194.774 326.336,195.513 325.541 C 196.253 324.745,197.505 323.498,198.295 322.768 C 199.086 322.039,200.167 320.953,200.698 320.356 C 201.229 319.759,202.313 318.678,203.107 317.953 C 203.901 317.229,204.982 316.160,205.510 315.577 C 206.038 314.995,207.116 313.914,207.907 313.174 C 208.698 312.435,209.779 311.341,210.310 310.744 C 210.841 310.147,211.922 309.066,212.713 308.341 C 213.503 307.617,214.585 306.536,215.116 305.938 C 215.647 305.341,216.731 304.260,217.525 303.536 C 218.319 302.811,219.400 301.742,219.928 301.160 C 220.455 300.578,221.537 299.496,222.331 298.757 C 223.125 298.017,224.206 296.936,224.734 296.354 C 225.261 295.772,226.343 294.690,227.137 293.951 C 227.931 293.211,229.012 292.131,229.540 291.550 C 230.067 290.969,231.136 289.888,231.916 289.147 C 232.695 288.406,233.776 287.333,234.318 286.761 C 234.861 286.189,237.028 284.027,239.134 281.955 C 241.240 279.884,243.569 277.549,244.309 276.766 C 245.050 275.984,247.377 273.655,249.480 271.591 C 251.583 269.526,253.746 267.359,254.286 266.775 C 254.826 266.190,257.158 263.861,259.468 261.599 C 261.778 259.337,263.941 257.170,264.274 256.783 C 264.607 256.396,265.355 255.647,265.936 255.119 C 266.517 254.591,267.598 253.520,268.339 252.740 C 269.080 251.959,270.335 250.711,271.129 249.967 C 271.923 249.223,273.005 248.137,273.532 247.555 C 274.060 246.973,275.141 245.892,275.935 245.152 C 276.729 244.413,277.810 243.338,278.338 242.763 C 278.866 242.189,281.023 240.026,283.131 237.958 C 285.240 235.889,287.569 233.546,288.307 232.752 C 289.045 231.959,290.125 230.877,290.707 230.349 C 291.289 229.822,292.371 228.740,293.110 227.947 C 293.850 227.153,294.931 226.071,295.513 225.544 C 296.095 225.016,297.177 223.935,297.916 223.141 C 298.656 222.347,299.736 221.265,300.317 220.738 C 300.898 220.210,301.979 219.141,302.720 218.362 C 303.461 217.583,304.538 216.501,305.114 215.959 C 306.451 214.699,308.230 212.921,309.489 211.584 C 310.032 211.007,311.113 209.930,311.892 209.189 C 312.671 208.449,313.753 207.367,314.295 206.786 C 314.838 206.205,315.919 205.132,316.698 204.401 C 317.477 203.671,318.385 202.756,318.716 202.368 C 319.046 201.981,320.127 200.893,321.118 199.952 C 322.110 199.011,323.364 197.763,323.907 197.180 C 324.450 196.596,325.531 195.512,326.310 194.772 C 327.089 194.031,328.158 192.950,328.686 192.369 C 329.214 191.788,330.295 190.707,331.089 189.968 C 331.883 189.228,332.964 188.147,333.492 187.565 C 334.020 186.983,335.101 185.901,335.895 185.162 C 336.689 184.422,337.770 183.341,338.298 182.759 C 338.825 182.177,339.907 181.092,340.701 180.347 C 341.495 179.603,342.750 178.355,343.491 177.575 C 344.232 176.794,345.313 175.711,345.894 175.169 C 346.475 174.626,347.544 173.545,348.269 172.766 C 348.995 171.987,350.076 170.915,350.672 170.384 C 351.268 169.853,352.361 168.771,353.101 167.981 C 353.840 167.190,354.921 166.112,355.503 165.584 C 356.086 165.056,357.155 163.975,357.879 163.181 C 358.604 162.387,359.685 161.303,360.282 160.772 C 360.879 160.241,361.961 159.160,362.685 158.369 C 363.410 157.578,364.491 156.497,365.088 155.966 C 365.685 155.435,366.767 154.354,367.491 153.563 C 368.216 152.773,369.297 151.691,369.894 151.160 C 370.491 150.629,371.577 149.548,372.306 148.757 C 373.036 147.967,374.283 146.715,375.079 145.975 C 375.874 145.236,376.957 144.154,377.484 143.572 C 378.012 142.990,379.093 141.909,379.887 141.169 C 380.681 140.430,381.769 139.349,382.304 138.766 C 382.839 138.184,384.041 136.977,384.976 136.085 C 385.911 135.192,386.886 133.986,387.143 133.404 C 387.401 132.823,387.715 132.348,387.841 132.348 C 388.358 132.348,391.497 127.095,391.497 126.231 C 391.497 125.680,391.625 125.371,392.738 123.233 C 393.072 122.592,393.346 121.479,393.346 120.760 C 393.346 120.040,393.512 119.349,393.715 119.224 C 393.937 119.087,394.085 116.639,394.085 113.124 C 394.085 109.608,393.937 107.161,393.715 107.024 C 393.512 106.898,393.346 106.172,393.346 105.409 C 393.346 104.647,393.101 103.700,392.803 103.305 C 392.504 102.911,392.255 102.297,392.248 101.941 C 392.242 101.585,392.070 101.294,391.867 101.294 C 391.664 101.294,391.497 100.795,391.497 100.185 C 391.497 99.575,391.331 99.076,391.128 99.076 C 390.924 99.076,390.758 98.686,390.758 98.209 C 390.758 97.732,390.425 97.041,390.018 96.673 C 389.612 96.305,389.279 95.820,389.279 95.595 C 389.279 95.370,388.863 94.738,388.355 94.190 C 387.847 93.642,387.431 93.043,387.431 92.859 C 387.431 92.337,381.060 86.386,379.837 85.767 C 379.236 85.462,378.514 84.996,378.235 84.731 C 377.955 84.466,376.957 83.911,376.017 83.499 C 375.076 83.087,374.018 82.596,373.665 82.410 C 373.312 82.223,372.688 82.070,372.279 82.070 C 371.869 82.070,371.534 81.904,371.534 81.701 C 371.534 81.497,370.879 81.331,370.077 81.331 C 369.276 81.331,368.518 81.165,368.392 80.961 C 368.266 80.758,367.292 80.591,366.226 80.591 C 365.160 80.591,364.108 80.411,363.886 80.190 C 363.597 79.900,363.415 79.900,363.236 80.190 M364.695 91.312 C 364.821 91.516,365.579 91.682,366.380 91.682 C 367.182 91.682,367.837 91.848,367.837 92.052 C 367.837 92.255,368.336 92.421,368.946 92.421 C 369.556 92.421,370.055 92.588,370.055 92.791 C 370.055 92.994,370.388 93.161,370.795 93.161 C 371.201 93.161,371.534 93.327,371.534 93.530 C 371.534 93.734,371.784 93.900,372.089 93.900 C 372.394 93.900,372.643 94.067,372.643 94.270 C 372.643 94.473,372.976 94.640,373.383 94.640 C 373.793 94.640,374.122 94.886,374.122 95.194 C 374.122 95.499,374.254 95.749,374.416 95.749 C 374.894 95.749,378.928 99.666,378.928 100.130 C 378.928 100.363,379.094 100.555,379.298 100.555 C 379.501 100.555,379.667 100.851,379.667 101.212 C 379.667 101.574,380.000 102.110,380.407 102.403 C 380.841 102.716,381.146 103.360,381.146 103.963 C 381.146 104.528,381.312 104.991,381.516 104.991 C 381.719 104.991,381.885 105.407,381.885 105.915 C 381.885 106.423,382.029 106.839,382.204 106.839 C 382.379 106.839,382.625 107.712,382.751 108.778 C 382.878 109.844,383.150 110.773,383.357 110.842 C 383.933 111.034,383.805 114.751,383.182 115.947 C 382.878 116.529,382.628 117.382,382.627 117.841 C 382.625 118.685,381.548 121.399,380.538 123.105 C 380.237 123.614,379.899 124.321,379.786 124.677 C 379.673 125.032,379.434 125.323,379.254 125.323 C 379.075 125.323,378.928 125.500,378.928 125.715 C 378.928 126.328,377.605 127.678,345.505 159.804 L 315.224 190.110 312.745 187.569 C 311.382 186.171,309.662 184.492,308.922 183.838 C 308.183 183.183,307.579 182.554,307.579 182.439 C 307.579 182.184,305.087 179.667,304.835 179.667 C 304.600 179.667,302.773 177.840,302.773 177.605 C 302.773 177.353,300.256 174.861,300.001 174.861 C 299.886 174.861,299.257 174.256,298.602 173.517 C 297.948 172.777,296.944 171.737,296.373 171.206 C 295.801 170.675,294.678 169.629,293.877 168.883 C 293.077 168.136,292.421 167.386,292.421 167.215 C 292.421 167.044,291.978 166.573,291.436 166.169 C 290.114 165.183,287.616 162.777,287.616 162.489 C 287.616 162.151,285.852 160.444,285.503 160.444 C 284.500 160.444,284.348 158.987,285.266 158.159 C 285.789 157.687,286.989 156.500,287.933 155.521 C 288.877 154.541,290.124 153.293,290.705 152.748 C 291.286 152.202,292.367 151.119,293.108 150.340 C 293.849 149.560,294.930 148.479,295.511 147.937 C 296.092 147.394,297.173 146.313,297.914 145.534 C 298.655 144.755,299.736 143.673,300.317 143.131 C 300.898 142.588,301.979 141.507,302.720 140.728 C 303.461 139.949,304.542 138.867,305.123 138.325 C 305.704 137.782,306.785 136.701,307.526 135.922 C 308.266 135.143,309.348 134.061,309.929 133.519 C 310.510 132.976,311.591 131.895,312.332 131.116 C 313.072 130.337,314.154 129.256,314.735 128.713 C 315.316 128.170,316.397 127.089,317.138 126.310 C 317.878 125.531,318.960 124.450,319.541 123.907 C 320.122 123.364,321.203 122.283,321.944 121.504 C 322.684 120.725,323.766 119.644,324.346 119.101 C 324.927 118.559,326.009 117.477,326.749 116.698 C 327.490 115.919,328.574 114.838,329.157 114.295 C 329.741 113.753,330.989 112.498,331.930 111.507 C 332.871 110.516,333.955 109.434,334.339 109.104 C 335.238 108.328,337.903 105.663,338.679 104.764 C 339.009 104.380,340.090 103.314,341.082 102.394 C 342.073 101.474,343.214 100.268,343.618 99.714 C 344.022 99.159,344.487 98.706,344.651 98.706 C 344.815 98.706,345.857 97.791,346.966 96.673 C 348.075 95.555,349.233 94.640,349.538 94.640 C 349.843 94.640,350.092 94.473,350.092 94.270 C 350.092 94.067,350.342 93.900,350.647 93.900 C 350.952 93.900,351.201 93.734,351.201 93.530 C 351.201 93.327,351.453 93.161,351.761 93.161 C 352.069 93.161,352.693 92.968,353.147 92.733 C 354.974 91.789,355.300 91.682,356.350 91.682 C 356.951 91.682,357.545 91.516,357.671 91.312 C 357.797 91.109,359.377 90.943,361.183 90.943 C 362.989 90.943,364.569 91.109,364.695 91.312 M173.290 94.170 C 172.934 94.255,172.643 94.478,172.643 94.667 C 172.643 94.855,172.299 95.009,171.877 95.009 C 170.970 95.009,170.055 95.831,170.055 96.646 C 170.055 96.966,169.889 97.227,169.686 97.227 C 169.477 97.227,169.316 98.275,169.316 99.630 C 169.316 100.986,169.477 102.033,169.686 102.033 C 169.889 102.033,170.055 102.296,170.055 102.617 C 170.055 102.938,170.804 103.949,171.719 104.864 C 173.771 106.917,173.793 106.662,171.349 109.226 L 169.316 111.359 169.316 113.905 C 169.316 115.305,169.471 116.451,169.661 116.451 C 169.850 116.451,170.111 116.784,170.240 117.190 C 170.369 117.597,170.713 117.930,171.005 117.930 C 171.296 117.930,171.534 118.096,171.534 118.299 C 171.534 118.513,172.705 118.669,174.307 118.669 C 175.909 118.669,177.079 118.513,177.079 118.299 C 177.079 118.096,177.371 117.927,177.726 117.924 C 178.082 117.920,179.073 117.193,179.928 116.308 L 181.482 114.697 183.169 116.314 C 184.097 117.202,185.102 117.930,185.404 117.930 C 185.705 117.930,185.952 118.096,185.952 118.299 C 185.952 118.511,187.066 118.669,188.556 118.669 C 194.763 118.669,196.058 113.824,191.222 108.690 C 189.316 106.666,189.316 106.951,191.220 104.957 C 194.918 101.085,195.176 98.772,192.211 96.066 C 189.217 93.334,187.045 93.467,184.040 96.567 C 183.294 97.337,182.503 97.967,182.284 97.967 C 182.065 97.967,181.885 98.133,181.885 98.336 C 181.885 99.010,181.351 98.698,179.330 96.844 C 178.230 95.835,177.121 95.009,176.866 95.009 C 176.610 95.009,176.346 94.869,176.278 94.698 C 176.125 94.310,174.159 93.963,173.290 94.170 M348.538 100.421 C 346.500 101.496,344.679 107.579,346.396 107.579 C 346.599 107.579,346.765 107.832,346.765 108.142 C 346.765 108.999,365.504 127.542,366.371 127.542 C 366.771 127.542,367.098 127.708,367.098 127.911 C 367.098 128.368,370.198 128.402,371.077 127.954 C 371.430 127.775,372.181 127.412,372.746 127.147 C 373.310 126.883,373.869 126.281,373.987 125.810 C 374.105 125.339,374.350 124.954,374.532 124.954 C 375.091 124.954,374.896 122.180,374.244 120.852 C 373.574 119.488,369.239 114.972,368.599 114.972 C 368.384 114.972,368.204 114.764,368.201 114.510 C 368.194 114.032,359.639 105.360,359.174 105.360 C 358.865 105.360,357.856 104.395,357.856 104.099 C 357.856 103.599,354.595 100.555,354.059 100.555 C 353.731 100.555,353.360 100.388,353.235 100.185 C 352.901 99.645,349.703 99.806,348.538 100.421 M334.393 114.430 C 333.675 115.148,333.087 116.063,333.087 116.463 C 333.087 116.863,332.921 117.190,332.717 117.190 C 332.514 117.190,332.348 117.763,332.348 118.462 C 332.348 119.162,332.514 119.837,332.717 119.963 C 332.921 120.089,333.087 120.451,333.087 120.767 C 333.087 121.084,333.711 121.967,334.473 122.728 C 335.236 123.490,336.359 124.714,336.969 125.449 C 337.579 126.185,338.244 126.793,338.447 126.802 C 338.651 126.811,339.316 127.417,339.926 128.149 C 341.011 129.451,342.319 130.798,344.424 132.779 C 345.000 133.322,346.077 134.403,346.818 135.182 C 347.559 135.961,348.640 137.022,349.221 137.539 C 349.802 138.056,350.608 138.929,351.012 139.480 C 351.416 140.030,352.040 140.481,352.398 140.481 C 352.757 140.481,353.050 140.647,353.050 140.850 C 353.050 141.065,354.261 141.220,355.943 141.220 C 358.877 141.220,360.444 140.472,360.444 139.070 C 360.444 138.829,360.610 138.632,360.813 138.632 C 361.019 138.632,361.183 137.646,361.183 136.414 C 361.183 135.182,361.019 134.196,360.813 134.196 C 360.610 134.196,360.444 133.931,360.444 133.608 C 360.444 132.986,342.482 114.874,340.771 113.771 C 338.914 112.574,335.942 112.881,334.393 114.430 M323.290 126.433 C 323.165 126.636,322.747 126.802,322.363 126.802 C 320.343 126.802,318.865 132.256,320.240 134.636 C 321.039 136.019,339.320 154.159,339.915 154.159 C 340.226 154.159,340.481 154.325,340.481 154.529 C 340.481 155.063,343.935 154.984,344.967 154.426 C 346.856 153.404,347.505 152.846,347.505 152.243 C 347.505 151.898,347.671 151.512,347.874 151.386 C 348.078 151.261,348.244 150.595,348.244 149.908 C 348.244 149.220,348.078 148.554,347.874 148.429 C 347.671 148.303,347.505 147.822,347.505 147.360 C 347.505 146.819,346.747 145.795,345.379 144.487 C 344.210 143.369,342.819 141.968,342.288 141.375 C 341.757 140.781,340.675 139.703,339.885 138.978 C 339.094 138.254,338.013 137.172,337.482 136.575 C 336.951 135.978,335.869 134.885,335.079 134.145 C 334.288 133.406,333.215 132.324,332.694 131.742 C 328.971 127.584,324.232 124.908,323.290 126.433 M134.381 128.153 C 133.364 128.461,132.374 128.865,132.181 129.052 C 131.988 129.238,131.484 129.390,131.061 129.390 C 130.639 129.390,130.053 129.723,129.760 130.129 C 129.467 130.536,128.931 130.869,128.569 130.869 C 128.207 130.869,127.911 131.035,127.911 131.238 C 127.911 131.442,127.703 131.610,127.449 131.612 C 127.075 131.615,123.540 135.417,122.451 136.987 C 121.676 138.104,121.257 139.069,121.257 139.736 C 121.257 140.146,121.091 140.481,120.887 140.481 C 120.684 140.481,120.518 141.063,120.518 141.774 C 120.518 142.486,120.351 143.068,120.148 143.068 C 119.920 143.068,119.778 144.971,119.778 148.037 C 119.778 150.951,119.931 153.101,120.148 153.235 C 120.351 153.360,120.518 154.026,120.518 154.713 C 120.518 155.401,120.684 156.067,120.887 156.192 C 121.091 156.318,121.257 156.744,121.257 157.138 C 121.257 157.533,121.423 157.856,121.627 157.856 C 121.830 157.856,121.996 158.189,121.996 158.595 C 121.996 159.002,122.163 159.335,122.366 159.335 C 122.569 159.335,122.736 159.500,122.736 159.701 C 122.736 160.575,127.410 165.250,128.284 165.250 C 128.486 165.250,128.651 165.416,128.651 165.619 C 128.651 165.823,128.983 165.989,129.390 165.989 C 129.797 165.989,130.129 166.155,130.129 166.359 C 130.129 166.562,130.462 166.728,130.869 166.728 C 131.275 166.728,131.608 166.895,131.608 167.098 C 131.608 167.301,132.119 167.468,132.744 167.468 C 133.368 167.468,134.129 167.717,134.434 168.022 C 135.228 168.817,144.445 168.827,145.493 168.034 C 145.888 167.735,146.668 167.486,147.227 167.479 C 147.787 167.473,148.244 167.301,148.244 167.098 C 148.244 166.895,148.660 166.728,149.168 166.728 C 149.677 166.728,150.092 166.562,150.092 166.359 C 150.092 166.155,150.354 165.989,150.673 165.989 C 150.993 165.989,151.475 165.781,151.744 165.527 C 152.014 165.273,152.982 164.482,153.896 163.771 C 155.439 162.568,158.146 158.770,159.296 156.192 C 159.568 155.582,159.937 154.794,160.117 154.441 C 160.579 153.533,160.539 142.329,160.074 142.329 C 159.871 142.329,159.704 142.006,159.704 141.611 C 159.704 141.217,159.551 140.799,159.363 140.683 C 159.175 140.567,158.913 139.975,158.779 139.367 C 158.646 138.760,158.383 138.262,158.196 138.262 C 158.009 138.262,157.856 138.013,157.856 137.708 C 157.856 137.403,157.689 137.153,157.486 137.153 C 157.283 137.153,157.116 136.919,157.116 136.631 C 157.116 136.062,152.503 131.238,151.959 131.238 C 151.775 131.238,151.404 131.030,151.135 130.776 C 150.464 130.141,148.042 129.038,145.287 128.112 C 143.100 127.377,136.865 127.400,134.381 128.153 M141.837 138.413 C 142.413 138.699,143.383 139.156,143.993 139.428 C 144.603 139.700,145.850 140.702,146.765 141.655 C 149.134 144.121,149.353 144.427,149.353 145.271 C 149.353 145.686,149.519 146.026,149.723 146.026 C 149.926 146.026,150.092 146.931,150.092 148.037 C 150.092 149.144,149.926 150.152,149.723 150.277 C 149.519 150.403,149.353 150.912,149.353 151.408 C 149.353 151.904,149.187 152.311,148.983 152.311 C 148.780 152.311,148.614 152.476,148.614 152.677 C 148.614 153.444,145.774 156.377,145.032 156.377 C 144.765 156.377,144.547 156.530,144.547 156.717 C 144.547 156.905,144.050 157.167,143.442 157.300 C 142.835 157.434,142.243 157.697,142.127 157.884 C 141.687 158.595,138.336 158.244,136.563 157.301 C 135.607 156.793,134.676 156.377,134.494 156.377 C 133.460 156.377,130.869 152.553,130.869 151.027 C 130.869 150.537,130.702 150.033,130.499 149.908 C 130.296 149.782,130.129 149.033,130.129 148.244 C 130.129 147.455,130.296 146.706,130.499 146.580 C 130.702 146.455,130.869 145.956,130.869 145.471 C 130.869 144.987,131.035 144.488,131.238 144.362 C 131.442 144.237,131.608 143.889,131.608 143.589 C 131.608 141.034,139.291 137.147,141.837 138.413 M292.232 182.780 L 307.400 197.945 229.674 275.682 C 186.924 318.438,151.811 353.420,151.644 353.420 C 151.477 353.420,151.010 353.711,150.605 354.067 C 149.483 355.054,148.333 355.638,147.510 355.638 C 147.100 355.638,146.765 355.771,146.765 355.933 C 146.765 357.724,132.600 357.755,130.702 355.968 C 130.509 355.787,130.052 355.638,129.686 355.638 C 129.320 355.638,129.020 355.471,129.020 355.268 C 129.020 355.065,128.724 354.898,128.363 354.898 C 128.001 354.898,127.465 354.566,127.172 354.159 C 126.879 353.752,126.405 353.420,126.119 353.420 C 125.463 353.420,121.257 349.060,121.257 348.380 C 121.257 348.102,121.117 347.874,120.945 347.874 C 120.774 347.874,120.320 347.292,119.937 346.580 C 119.554 345.869,119.112 345.287,118.955 345.287 C 118.798 345.287,118.669 344.787,118.669 344.177 C 118.669 343.567,118.503 343.068,118.299 343.068 C 118.096 343.068,117.930 342.486,117.930 341.774 C 117.930 341.063,117.763 340.481,117.560 340.481 C 117.333 340.481,117.190 338.639,117.190 335.696 C 117.190 332.906,117.344 330.817,117.560 330.684 C 117.763 330.558,117.930 329.976,117.930 329.390 C 117.930 328.804,118.096 328.222,118.299 328.096 C 118.503 327.970,118.669 327.475,118.669 326.996 C 118.669 326.517,118.794 326.069,118.946 326.001 C 119.263 325.861,121.257 322.866,121.257 322.531 C 121.257 322.364,126.308 317.100,129.349 314.097 C 129.528 313.921,130.589 312.862,131.707 311.744 C 132.825 310.626,133.907 309.544,134.110 309.341 C 134.313 309.138,135.414 308.034,136.556 306.889 C 137.698 305.743,139.078 304.390,139.623 303.882 C 140.168 303.373,141.208 302.320,141.934 301.541 C 142.659 300.762,143.731 299.681,144.315 299.138 C 144.898 298.595,146.146 297.341,147.087 296.350 C 148.028 295.358,149.115 294.277,149.501 293.947 C 149.888 293.616,151.011 292.514,151.997 291.497 C 152.982 290.481,153.936 289.505,154.116 289.329 C 154.296 289.152,155.380 288.071,156.525 286.926 C 157.671 285.780,158.730 284.721,158.879 284.572 C 159.028 284.423,160.065 283.386,161.183 282.268 C 162.301 281.150,163.425 280.024,163.681 279.766 C 163.936 279.508,167.223 276.220,170.985 272.458 C 174.746 268.697,177.947 265.494,178.099 265.342 C 178.250 265.189,179.205 264.258,180.222 263.272 C 181.238 262.286,182.341 261.163,182.671 260.777 C 183.002 260.390,184.083 259.304,185.074 258.363 C 186.065 257.421,187.320 256.174,187.863 255.590 C 188.405 255.006,189.487 253.923,190.266 253.182 C 191.045 252.441,192.126 251.360,192.669 250.779 C 193.211 250.198,194.292 249.117,195.072 248.376 C 195.851 247.635,196.932 246.554,197.474 245.973 C 198.017 245.392,199.098 244.311,199.877 243.570 C 200.656 242.829,201.733 241.748,202.270 241.167 C 202.807 240.586,204.007 239.445,204.937 238.632 C 205.867 237.819,206.634 236.985,206.641 236.779 C 206.648 236.573,207.105 236.074,207.655 235.670 C 208.205 235.266,209.453 234.104,210.427 233.087 C 211.402 232.070,212.324 231.117,212.477 230.968 C 212.629 230.819,213.691 229.760,214.837 228.614 C 215.982 227.469,217.086 226.365,217.289 226.162 C 217.493 225.958,218.574 224.877,219.692 223.759 C 220.810 222.640,221.892 221.559,222.095 221.356 C 222.298 221.152,223.380 220.071,224.498 218.953 C 225.616 217.835,226.698 216.753,226.901 216.550 C 227.104 216.347,228.186 215.265,229.304 214.147 C 230.422 213.029,231.481 211.967,231.658 211.787 C 231.834 211.607,232.810 210.653,233.826 209.668 C 234.843 208.682,235.945 207.559,236.276 207.172 C 236.606 206.786,237.687 205.699,238.679 204.758 C 239.670 203.817,240.925 202.569,241.467 201.986 C 242.010 201.402,243.091 200.335,243.870 199.616 C 244.649 198.896,245.617 197.857,246.021 197.305 C 246.425 196.754,246.924 196.297,247.130 196.290 C 247.336 196.283,248.170 195.516,248.983 194.586 C 249.797 193.656,250.934 192.456,251.510 191.919 C 252.847 190.673,254.628 188.891,255.874 187.554 C 256.411 186.978,257.612 185.841,258.541 185.028 C 259.471 184.214,260.238 183.381,260.246 183.175 C 260.253 182.969,260.702 182.470,261.244 182.066 C 262.725 180.961,265.065 178.658,265.065 178.305 C 265.065 178.134,265.516 177.664,266.067 177.260 C 266.618 176.856,267.658 175.888,268.377 175.108 C 269.097 174.329,270.157 173.248,270.733 172.706 C 272.849 170.714,274.146 169.406,275.153 168.253 C 276.464 166.751,274.685 165.238,292.232 182.780 M80.776 182.625 C 80.651 182.828,80.245 182.994,79.875 182.994 C 79.274 182.994,77.405 184.598,75.739 186.544 C 75.409 186.930,74.327 188.016,73.336 188.957 C 72.345 189.898,71.090 191.146,70.548 191.730 C 70.005 192.314,68.924 193.397,68.145 194.138 C 67.366 194.878,66.284 195.960,65.742 196.541 C 65.199 197.122,64.118 198.203,63.339 198.944 C 62.560 199.684,61.478 200.766,60.936 201.347 C 60.393 201.928,59.312 203.009,58.533 203.750 C 57.754 204.490,56.673 205.572,56.130 206.153 C 55.587 206.734,54.506 207.802,53.727 208.528 C 52.948 209.253,51.876 210.335,51.345 210.931 C 50.814 211.527,49.733 212.608,48.942 213.332 C 48.151 214.057,47.058 215.138,46.513 215.735 C 45.967 216.332,44.886 217.409,44.110 218.129 C 43.334 218.849,42.366 219.907,41.959 220.480 C 41.553 221.054,41.012 221.743,40.758 222.011 C 40.489 222.295,40.296 223.470,40.296 224.829 L 40.296 227.160 42.329 229.067 C 43.447 230.116,44.362 231.119,44.362 231.296 C 44.362 231.473,44.810 231.948,45.357 232.352 C 46.636 233.296,49.143 235.804,50.088 237.083 C 50.492 237.630,50.955 238.078,51.117 238.078 C 51.452 238.078,53.974 240.529,53.974 240.855 C 53.974 241.133,55.724 242.884,56.003 242.884 C 56.288 242.884,58.780 245.385,58.780 245.670 C 58.780 246.043,59.810 246.950,60.232 246.950 C 60.450 246.950,60.628 247.116,60.628 247.320 C 60.628 247.536,61.886 247.689,63.663 247.689 L 66.697 247.689 85.330 229.113 C 105.744 208.760,106.100 208.367,106.100 206.180 C 106.100 204.639,105.008 202.446,104.059 202.082 C 103.758 201.966,103.512 201.699,103.512 201.489 C 103.512 200.894,86.163 183.734,85.561 183.734 C 85.268 183.734,85.026 183.609,85.025 183.457 C 85.016 182.594,81.251 181.857,80.776 182.625 M279.945 187.691 C 279.284 187.777,278.743 188.003,278.743 188.193 C 278.743 188.384,278.511 188.540,278.227 188.540 C 277.943 188.540,277.229 189.080,276.641 189.741 C 274.568 192.069,274.562 192.069,272.776 190.221 C 271.890 189.303,270.873 188.549,270.518 188.546 C 270.162 188.542,269.871 188.373,269.871 188.170 C 269.871 187.357,264.942 187.745,263.956 188.637 C 262.299 190.134,261.178 194.824,262.477 194.824 C 262.680 194.824,262.849 195.116,262.853 195.471 C 262.856 195.827,263.601 196.835,264.507 197.710 C 265.414 198.586,266.237 199.434,266.336 199.594 C 266.435 199.755,265.775 200.682,264.870 201.654 C 261.367 205.416,261.220 209.265,264.491 211.547 C 265.244 212.073,269.785 211.863,270.372 211.275 C 270.677 210.970,271.035 210.721,271.167 210.721 C 271.299 210.721,272.063 210.038,272.865 209.204 C 274.462 207.542,274.478 207.544,276.525 209.629 C 279.164 212.318,283.067 212.771,285.523 210.674 C 287.667 208.842,287.567 205.301,285.305 202.904 C 282.073 199.480,282.214 199.881,283.710 198.385 C 284.435 197.660,285.028 196.895,285.028 196.685 C 285.028 196.475,285.206 196.303,285.424 196.303 C 286.414 196.303,286.876 195.186,286.876 192.791 C 286.876 190.513,286.414 189.279,285.560 189.279 C 285.416 189.279,285.029 188.968,284.699 188.588 C 284.055 187.845,281.892 187.437,279.945 187.691 M87.405 200.563 C 90.164 203.312,92.421 205.714,92.421 205.901 C 92.421 206.341,63.959 234.750,63.518 234.750 C 63.333 234.750,60.950 232.499,58.221 229.748 L 53.258 224.745 54.725 223.234 C 55.532 222.403,56.192 221.576,56.192 221.397 C 56.192 221.218,56.362 221.072,56.570 221.072 C 57.062 221.072,60.998 217.136,60.998 216.644 C 60.998 216.436,61.165 216.266,61.369 216.266 C 61.573 216.266,66.355 211.620,71.997 205.941 C 77.639 200.262,82.285 195.604,82.322 195.590 C 82.359 195.575,84.646 197.813,87.405 200.563 M230.684 220.579 C 230.176 220.681,229.602 220.917,229.409 221.103 C 229.215 221.290,228.425 221.442,227.652 221.442 C 226.880 221.442,226.248 221.608,226.248 221.811 C 226.248 222.015,225.780 222.181,225.208 222.181 C 224.637 222.181,223.812 222.514,223.375 222.921 C 222.939 223.327,222.470 223.660,222.333 223.660 C 221.926 223.660,218.324 226.317,218.008 226.851 C 217.847 227.121,217.250 227.853,216.681 228.476 C 215.404 229.874,214.048 232.362,214.048 233.307 C 214.048 233.694,213.882 234.011,213.678 234.011 C 213.475 234.011,213.309 234.760,213.309 235.675 C 213.309 236.590,213.142 237.338,212.939 237.338 C 212.716 237.338,212.569 238.879,212.569 241.220 C 212.569 243.561,212.716 245.102,212.939 245.102 C 213.142 245.102,213.309 245.850,213.309 246.765 C 213.309 247.680,213.475 248.429,213.678 248.429 C 213.882 248.429,214.048 248.928,214.048 249.538 C 214.048 250.148,214.214 250.647,214.418 250.647 C 214.621 250.647,214.787 250.896,214.787 251.201 C 214.787 251.506,214.954 251.756,215.157 251.756 C 215.360 251.756,215.527 252.049,215.527 252.408 C 215.527 252.766,215.943 253.372,216.451 253.753 C 216.959 254.135,217.377 254.632,217.379 254.858 C 217.380 255.083,217.838 255.628,218.395 256.069 C 218.953 256.509,219.908 257.299,220.518 257.824 C 221.128 258.349,221.918 258.779,222.274 258.780 C 222.629 258.780,222.921 258.946,222.921 259.150 C 222.921 259.353,223.239 259.519,223.629 259.519 C 224.019 259.519,224.399 259.703,224.474 259.928 C 224.664 260.499,227.281 261.356,228.854 261.362 C 229.576 261.365,230.348 261.550,230.571 261.772 C 231.090 262.292,238.527 261.647,239.372 261.009 C 239.575 260.856,240.199 260.621,240.758 260.488 C 241.317 260.354,241.774 260.082,241.774 259.882 C 241.774 259.683,242.190 259.519,242.699 259.519 C 243.207 259.519,243.623 259.353,243.623 259.150 C 243.623 258.946,243.831 258.777,244.085 258.773 C 244.588 258.766,246.713 257.155,247.655 256.066 C 247.979 255.691,248.785 254.785,249.445 254.053 C 250.106 253.320,250.647 252.504,250.647 252.238 C 250.647 251.973,250.810 251.756,251.010 251.756 C 251.209 251.756,251.477 251.340,251.604 250.832 C 251.732 250.323,251.984 249.908,252.166 249.908 C 252.347 249.908,252.495 249.585,252.495 249.190 C 252.495 248.795,252.662 248.370,252.865 248.244 C 253.068 248.118,253.235 247.287,253.235 246.396 C 253.235 245.505,253.401 244.673,253.604 244.547 C 253.808 244.421,253.974 243.007,253.974 241.405 C 253.974 239.802,253.808 238.388,253.604 238.262 C 253.401 238.137,253.235 237.459,253.235 236.757 C 253.235 236.054,253.085 235.191,252.903 234.838 C 252.721 234.485,252.279 233.489,251.923 232.625 C 251.566 231.761,251.133 231.054,250.960 231.054 C 250.788 231.054,250.647 230.804,250.647 230.499 C 250.647 230.194,250.481 229.945,250.277 229.945 C 250.074 229.945,249.908 229.682,249.908 229.361 C 249.908 228.623,245.717 224.570,244.309 223.947 C 243.729 223.690,243.253 223.354,243.253 223.200 C 243.253 223.046,242.921 222.921,242.514 222.921 C 242.107 222.921,241.774 222.754,241.774 222.551 C 241.774 222.348,241.368 222.181,240.872 222.181 C 240.376 222.181,239.867 222.015,239.741 221.811 C 239.616 221.608,238.974 221.442,238.315 221.442 C 237.656 221.442,236.958 221.284,236.765 221.091 C 236.350 220.677,232.010 220.311,230.684 220.579 M235.331 231.793 C 236.029 231.793,236.599 231.959,236.599 232.163 C 236.599 232.366,236.863 232.532,237.185 232.532 C 238.014 232.532,242.144 236.826,242.144 237.689 C 242.144 238.082,242.311 238.506,242.514 238.632 C 242.717 238.758,242.884 240.006,242.884 241.405 C 242.884 242.804,242.717 244.052,242.514 244.177 C 242.311 244.303,242.144 244.704,242.144 245.067 C 242.144 245.823,238.340 249.775,237.292 250.107 C 236.911 250.228,236.599 250.482,236.599 250.672 C 236.599 251.495,230.486 251.049,228.692 250.096 C 226.259 248.802,224.399 246.721,224.399 245.292 C 224.399 244.984,224.233 244.732,224.030 244.732 C 223.811 244.732,223.660 243.384,223.660 241.427 C 223.660 239.609,223.826 238.018,224.030 237.893 C 224.233 237.767,224.399 237.341,224.399 236.947 C 224.399 236.552,224.566 236.229,224.769 236.229 C 224.972 236.229,225.139 235.972,225.139 235.658 C 225.139 235.021,226.744 233.272,227.329 233.272 C 227.535 233.272,228.296 232.939,229.020 232.532 C 229.744 232.126,230.633 231.793,230.994 231.793 C 231.356 231.793,231.965 231.564,232.348 231.284 C 232.940 230.851,233.122 230.851,233.554 231.284 C 233.835 231.564,234.634 231.793,235.331 231.793 M168.571 279.842 C 166.337 282.073,164.510 283.998,164.510 284.120 C 164.510 284.407,163.520 285.397,163.233 285.397 C 162.945 285.397,159.704 288.638,159.704 288.926 C 159.704 289.048,159.467 289.385,159.176 289.675 C 158.886 289.966,158.549 290.203,158.427 290.203 C 158.139 290.203,154.898 293.444,154.898 293.732 C 154.898 294.031,153.903 295.009,153.599 295.009 C 153.465 295.009,152.458 295.966,151.361 297.135 C 150.263 298.304,149.193 299.427,148.983 299.630 C 148.587 300.013,145.014 303.582,144.362 304.245 C 144.159 304.452,143.161 305.419,142.144 306.393 C 141.128 307.368,139.965 308.615,139.561 309.166 C 139.157 309.716,138.695 310.166,138.535 310.166 C 138.197 310.166,134.935 313.364,134.935 313.695 C 134.935 313.817,134.727 314.148,134.473 314.431 C 133.242 315.804,133.087 316.154,133.087 317.557 C 133.087 319.161,133.697 320.351,135.490 322.243 C 136.100 322.886,137.043 323.885,137.585 324.461 C 138.128 325.037,139.209 326.114,139.988 326.855 C 140.767 327.596,141.849 328.677,142.391 329.258 C 142.934 329.839,144.015 330.920,144.794 331.661 C 145.573 332.402,146.655 333.483,147.197 334.064 C 147.740 334.645,148.821 335.709,149.600 336.428 C 150.379 337.148,151.347 338.188,151.751 338.739 C 152.155 339.290,152.696 339.741,152.953 339.741 C 153.210 339.741,153.420 339.908,153.420 340.111 C 153.420 340.314,153.919 340.481,154.529 340.481 C 155.139 340.481,155.638 340.647,155.638 340.850 C 155.638 341.054,156.127 341.220,156.725 341.220 C 157.323 341.220,157.915 341.054,158.041 340.850 C 158.166 340.647,158.658 340.481,159.133 340.481 C 159.608 340.481,160.388 340.047,160.867 339.517 C 161.346 338.986,162.375 337.947,163.154 337.206 C 163.933 336.465,165.014 335.384,165.557 334.803 C 166.100 334.222,167.181 333.141,167.960 332.400 C 168.739 331.660,169.820 330.578,170.363 329.997 C 170.905 329.416,171.987 328.335,172.766 327.594 C 173.545 326.854,174.626 325.776,175.169 325.200 C 177.151 323.096,178.498 321.787,179.799 320.702 C 180.531 320.092,181.137 319.427,181.146 319.224 C 181.155 319.020,181.756 318.355,182.481 317.745 C 184.849 315.754,185.952 314.681,185.960 314.362 C 185.964 314.189,186.561 313.549,187.287 312.939 C 189.655 310.948,190.758 309.875,190.766 309.556 C 190.770 309.383,191.373 308.743,192.105 308.133 C 196.980 304.070,198.891 301.534,198.891 299.126 L 198.891 296.960 193.623 291.598 C 190.726 288.650,186.595 284.426,184.445 282.213 C 180.190 277.833,178.750 276.525,178.186 276.525 C 177.984 276.525,177.819 276.359,177.819 276.155 C 177.819 275.944,176.708 275.786,175.225 275.786 L 172.631 275.786 168.571 279.842 M176.720 290.038 C 176.987 290.536,177.353 290.943,177.536 290.943 C 177.825 290.943,180.126 293.190,181.940 295.243 C 182.276 295.623,183.288 296.591,184.190 297.395 L 185.830 298.856 171.318 313.384 C 163.337 321.374,156.728 327.911,156.631 327.911 C 156.534 327.911,155.953 327.454,155.340 326.895 C 154.727 326.335,153.631 325.379,152.906 324.769 C 152.181 324.159,151.584 323.519,151.579 323.347 C 151.575 323.175,150.472 321.998,149.129 320.732 C 147.595 319.286,146.735 318.197,146.818 317.804 C 147.012 316.886,175.264 288.760,175.789 288.962 C 176.035 289.056,176.454 289.541,176.720 290.038 "></path><path id="path1" d="" stroke="none" fill="#080404" fill-rule="evenodd"></path><path id="path2" d="" stroke="none" fill="#080404" fill-rule="evenodd"></path><path id="path3" d="" stroke="none" fill="#080404" fill-rule="evenodd"></path><path id="path4" d="" stroke="none" fill="#080404" fill-rule="evenodd"></path></g></svg>