<svg id="svg" version="1.1" xmlns="http://www.w3.org/2000/svg" xmlns:xlink="http://www.w3.org/1999/xlink" width="400" height="364.8822269807281" viewBox="0, 0, 400,364.8822269807281"><g id="svgg"><path id="path0" d="M195.438 13.869 C 195.312 14.072,193.617 14.234,191.606 14.234 C 189.595 14.234,187.899 14.395,187.774 14.599 C 187.650 14.799,186.755 14.964,185.787 14.964 C 184.818 14.964,183.555 15.209,182.980 15.509 C 182.405 15.809,181.236 16.055,180.383 16.056 C 179.530 16.057,178.832 16.223,178.832 16.423 C 178.832 16.624,178.185 16.788,177.394 16.788 C 176.603 16.788,175.854 16.953,175.730 17.153 C 175.606 17.354,175.033 17.518,174.457 17.518 C 173.881 17.518,173.163 17.765,172.862 18.066 C 172.561 18.367,171.808 18.613,171.189 18.613 C 170.570 18.613,169.778 18.758,169.429 18.936 C 169.081 19.113,168.303 19.459,167.701 19.704 C 165.933 20.424,164.098 21.225,163.417 21.573 C 163.069 21.752,162.590 21.898,162.354 21.898 C 161.669 21.898,159.124 23.103,159.124 23.428 C 159.124 23.590,158.910 23.723,158.648 23.723 C 158.029 23.723,154.234 25.598,154.075 25.982 C 154.009 26.144,153.721 26.277,153.437 26.277 C 153.152 26.277,152.920 26.442,152.920 26.642 C 152.920 26.843,152.668 27.007,152.359 27.007 C 151.751 27.007,150.236 27.899,149.110 28.920 C 148.721 29.273,148.258 29.562,148.082 29.562 C 147.906 29.562,147.223 29.973,146.565 30.474 C 145.907 30.976,145.254 31.387,145.114 31.387 C 144.973 31.387,144.416 31.797,143.875 32.299 C 143.333 32.801,142.768 33.212,142.617 33.212 C 142.293 33.212,141.005 34.230,140.195 35.128 C 139.878 35.479,139.487 35.766,139.325 35.766 C 138.664 35.766,124.818 49.336,124.818 49.984 C 124.818 50.175,124.432 50.717,123.961 51.188 C 123.490 51.659,122.792 52.529,122.410 53.121 C 121.735 54.166,121.313 54.718,119.982 56.291 C 119.630 56.706,119.343 57.267,119.343 57.538 C 119.343 57.808,119.209 58.029,119.046 58.029 C 118.883 58.029,118.524 58.604,118.248 59.307 C 117.973 60.009,117.562 60.584,117.336 60.584 C 117.110 60.584,116.699 61.159,116.423 61.861 C 116.148 62.564,115.789 63.139,115.625 63.139 C 115.462 63.139,115.328 63.450,115.328 63.830 C 115.328 64.210,115.082 64.615,114.781 64.731 C 114.480 64.846,114.234 65.274,114.234 65.682 C 114.234 66.090,114.069 66.423,113.869 66.423 C 113.668 66.423,113.504 66.834,113.504 67.336 C 113.504 67.838,113.339 68.248,113.139 68.248 C 112.938 68.248,112.774 68.559,112.774 68.939 C 112.774 69.319,112.527 69.724,112.226 69.840 C 111.925 69.956,111.679 70.384,111.679 70.791 C 111.679 71.199,111.515 71.533,111.314 71.533 C 111.113 71.533,110.949 71.943,110.949 72.445 C 110.949 72.947,110.785 73.358,110.584 73.358 C 110.383 73.358,110.219 73.856,110.219 74.464 C 110.219 75.111,109.992 75.658,109.672 75.780 C 109.370 75.896,109.124 76.384,109.124 76.864 C 109.124 77.344,108.960 77.737,108.759 77.737 C 108.558 77.737,108.394 78.138,108.394 78.628 C 108.394 79.118,108.230 79.620,108.029 79.745 C 107.828 79.869,107.664 80.351,107.664 80.816 C 107.664 81.282,107.418 81.867,107.117 82.117 C 106.816 82.367,106.569 83.116,106.569 83.782 C 106.569 84.448,106.405 85.095,106.204 85.219 C 106.004 85.343,105.839 85.918,105.839 86.496 C 105.839 87.075,105.675 87.650,105.474 87.774 C 105.274 87.898,105.109 88.564,105.109 89.255 C 105.109 90.128,104.943 90.511,104.562 90.511 C 104.158 90.511,104.015 90.934,104.015 92.132 C 104.015 93.023,103.850 93.854,103.650 93.978 C 103.449 94.102,103.285 95.084,103.285 96.159 C 103.285 97.254,103.108 98.173,102.884 98.248 C 102.664 98.321,102.395 99.485,102.287 100.833 C 102.178 102.181,101.948 103.285,101.775 103.285 C 101.602 103.285,101.460 104.589,101.460 106.183 C 101.460 107.777,101.296 109.183,101.095 109.307 C 100.596 109.615,100.596 135.640,101.095 135.949 C 101.296 136.073,101.460 137.563,101.460 139.260 C 101.460 140.957,101.616 142.631,101.807 142.979 C 101.998 143.328,102.256 144.557,102.381 145.712 C 102.505 146.866,102.760 147.810,102.946 147.810 C 103.132 147.810,103.285 148.714,103.285 149.818 C 103.285 150.922,103.449 151.825,103.650 151.825 C 103.850 151.825,104.015 152.405,104.015 153.114 C 104.015 153.923,104.218 154.481,104.562 154.613 C 104.934 154.755,105.109 155.337,105.109 156.426 C 105.109 157.308,105.274 158.029,105.474 158.029 C 105.675 158.029,105.839 158.604,105.839 159.307 C 105.839 160.009,106.004 160.584,106.204 160.584 C 106.405 160.584,106.569 161.159,106.569 161.861 C 106.569 162.753,106.734 163.139,107.117 163.139 C 107.499 163.139,107.664 163.524,107.664 164.416 C 107.664 165.119,107.828 165.693,108.029 165.693 C 108.230 165.693,108.394 166.268,108.394 166.971 C 108.394 167.673,108.558 168.248,108.759 168.248 C 108.960 168.248,109.124 168.659,109.124 169.161 C 109.124 169.728,109.331 170.073,109.672 170.073 C 110.012 170.073,110.219 170.418,110.219 170.985 C 110.219 171.487,110.383 171.898,110.584 171.898 C 110.785 171.898,110.949 172.226,110.949 172.628 C 110.949 173.029,111.113 173.358,111.314 173.358 C 111.515 173.358,111.679 173.768,111.679 174.270 C 111.679 174.838,111.886 175.182,112.226 175.182 C 112.567 175.182,112.774 175.527,112.774 176.095 C 112.774 176.597,112.938 177.007,113.139 177.007 C 113.339 177.007,113.504 177.336,113.504 177.737 C 113.504 178.139,113.668 178.467,113.869 178.467 C 114.069 178.467,114.234 178.801,114.234 179.209 C 114.234 179.616,114.480 180.044,114.781 180.160 C 115.082 180.276,115.328 180.650,115.328 180.992 C 115.328 181.334,115.657 181.967,116.058 182.398 C 116.460 182.829,116.788 183.440,116.788 183.755 C 116.788 184.071,117.035 184.424,117.336 184.540 C 117.637 184.655,117.883 185.061,117.883 185.441 C 117.883 185.820,118.047 186.131,118.248 186.131 C 118.449 186.131,118.613 186.339,118.613 186.592 C 118.613 186.846,119.024 187.361,119.526 187.738 C 120.027 188.115,120.438 188.693,120.438 189.022 C 120.438 189.351,120.766 189.857,121.168 190.146 C 121.569 190.435,121.898 190.875,121.898 191.122 C 121.898 191.370,122.308 191.983,122.810 192.485 C 123.312 192.987,123.723 193.628,123.723 193.910 C 123.723 194.192,124.133 194.732,124.635 195.108 C 125.137 195.485,125.553 196.042,125.559 196.346 C 125.574 197.063,126.424 198.175,126.956 198.175 C 127.185 198.175,127.372 198.473,127.372 198.836 C 127.372 199.200,127.701 199.850,128.102 200.281 C 128.504 200.712,128.832 201.235,128.832 201.445 C 128.832 201.654,129.078 201.825,129.380 201.825 C 129.684 201.825,129.927 202.149,129.927 202.555 C 129.927 202.956,130.091 203.285,130.292 203.285 C 130.493 203.285,130.657 203.531,130.657 203.832 C 130.657 204.133,130.821 204.380,131.022 204.380 C 131.223 204.380,131.387 204.631,131.387 204.938 C 131.387 205.246,131.633 205.592,131.934 205.707 C 132.235 205.823,132.482 206.146,132.482 206.426 C 132.482 206.706,132.626 206.934,132.802 206.934 C 132.979 206.934,133.322 207.415,133.566 208.003 C 133.809 208.591,134.404 209.369,134.888 209.732 C 135.371 210.095,135.766 210.693,135.766 211.062 C 135.766 211.797,136.584 212.774,137.200 212.774 C 137.415 212.774,137.591 213.124,137.591 213.552 C 137.591 213.980,137.896 214.596,138.269 214.921 C 138.642 215.245,139.063 215.880,139.206 216.332 L 139.465 217.153 116.357 217.159 C 103.647 217.162,93.080 217.285,92.875 217.433 C 92.270 217.867,91.241 219.636,91.241 220.243 C 91.241 220.551,91.077 220.803,90.876 220.803 C 90.675 220.803,90.511 221.214,90.511 221.715 C 90.511 222.217,90.378 222.628,90.216 222.628 C 90.054 222.628,89.628 223.326,89.269 224.179 C 87.978 227.250,87.566 228.075,87.217 228.291 C 87.021 228.411,86.861 228.829,86.861 229.219 C 86.861 229.608,86.697 229.927,86.496 229.927 C 86.296 229.927,86.131 230.246,86.131 230.635 C 86.131 231.025,85.967 231.445,85.766 231.569 C 85.566 231.693,85.401 232.196,85.401 232.686 C 85.401 233.234,85.191 233.577,84.854 233.577 C 84.513 233.577,84.307 233.921,84.307 234.489 C 84.307 234.991,84.142 235.401,83.942 235.401 C 83.741 235.401,83.577 235.624,83.577 235.897 C 83.577 236.170,83.002 237.495,82.299 238.843 C 81.597 240.191,81.022 241.528,81.022 241.815 C 81.022 242.101,80.871 242.336,80.686 242.336 C 80.501 242.336,80.242 242.828,80.109 243.431 C 79.977 244.033,79.718 244.526,79.533 244.526 C 79.348 244.526,79.197 244.774,79.197 245.078 C 79.197 245.382,79.045 245.916,78.859 246.264 C 78.673 246.613,78.425 247.144,78.307 247.445 C 78.190 247.746,77.779 248.485,77.395 249.088 C 77.010 249.690,76.684 250.470,76.669 250.821 C 76.654 251.172,76.478 251.460,76.277 251.460 C 76.077 251.460,75.912 251.857,75.912 252.342 C 75.912 252.827,75.779 253.279,75.617 253.345 C 75.276 253.486,73.358 257.266,73.358 257.798 C 73.358 257.994,73.138 258.413,72.870 258.730 C 72.602 259.047,72.172 259.881,71.915 260.584 C 71.295 262.277,70.558 263.809,69.718 265.146 C 69.341 265.748,69.019 266.610,69.005 267.062 C 68.990 267.514,68.814 267.883,68.613 267.883 C 68.412 267.883,68.248 268.194,68.248 268.574 C 68.248 268.954,68.002 269.360,67.701 269.475 C 67.400 269.591,67.153 270.009,67.153 270.405 C 67.153 270.801,66.989 271.226,66.788 271.350 C 66.588 271.474,66.423 271.895,66.423 272.284 C 66.423 272.674,66.259 272.993,66.058 272.993 C 65.858 272.993,65.693 273.390,65.693 273.875 C 65.693 274.360,65.560 274.811,65.398 274.878 C 64.965 275.056,63.139 278.870,63.139 279.595 C 63.139 279.935,62.892 280.308,62.591 280.424 C 62.290 280.539,62.044 280.853,62.044 281.121 C 62.044 281.749,60.173 285.546,59.785 285.706 C 59.622 285.773,59.489 286.224,59.489 286.709 C 59.489 287.194,59.325 287.591,59.124 287.591 C 58.923 287.591,58.759 287.841,58.759 288.146 C 58.759 288.451,58.349 289.351,57.847 290.146 C 57.345 290.941,56.934 291.761,56.934 291.969 C 56.934 292.311,56.640 292.970,55.793 294.526 C 55.629 294.827,55.230 295.648,54.906 296.350 C 54.583 297.053,54.168 297.913,53.984 298.261 C 53.800 298.610,53.650 299.149,53.650 299.459 C 53.650 299.769,53.403 300.117,53.102 300.233 C 52.801 300.349,52.555 300.744,52.555 301.112 C 52.555 301.481,52.391 301.883,52.190 302.007 C 51.989 302.131,51.825 302.552,51.825 302.941 C 51.825 303.331,51.661 303.650,51.460 303.650 C 51.259 303.650,51.095 304.043,51.095 304.523 C 51.095 305.003,50.849 305.491,50.547 305.606 C 50.246 305.722,50.000 306.150,50.000 306.558 C 50.000 306.966,49.836 307.299,49.635 307.299 C 49.434 307.299,49.270 307.710,49.270 308.212 C 49.270 308.714,49.106 309.124,48.905 309.124 C 48.704 309.124,48.540 309.432,48.540 309.809 C 48.540 310.186,48.321 310.677,48.053 310.899 C 47.785 311.121,47.341 312.004,47.066 312.860 C 46.791 313.716,46.278 314.909,45.926 315.511 C 45.574 316.113,45.019 317.181,44.693 317.883 C 44.366 318.586,43.949 319.446,43.765 319.794 C 43.581 320.143,43.431 320.759,43.431 321.163 C 43.431 321.573,43.189 321.898,42.883 321.898 C 42.582 321.898,42.336 322.217,42.336 322.606 C 42.336 322.996,42.172 323.416,41.971 323.540 C 41.770 323.664,41.606 324.071,41.606 324.444 C 41.606 324.817,41.483 325.176,41.332 325.243 C 41.182 325.310,40.753 326.022,40.379 326.825 C 40.006 327.628,39.554 328.570,39.376 328.918 C 39.197 329.267,39.051 329.730,39.051 329.948 C 39.051 330.166,38.805 330.590,38.504 330.892 C 38.203 331.193,37.956 331.756,37.956 332.143 C 37.956 332.530,37.792 332.847,37.591 332.847 C 37.391 332.847,37.226 333.068,37.226 333.338 C 37.226 333.966,36.192 336.051,35.743 336.328 C 35.555 336.444,35.401 336.858,35.401 337.248 C 35.401 337.637,35.237 337.956,35.036 337.956 C 34.836 337.956,34.672 338.367,34.672 338.869 C 34.672 339.370,34.507 339.781,34.307 339.781 C 34.106 339.781,33.942 340.192,33.942 340.693 C 33.942 341.195,33.785 341.606,33.594 341.606 C 33.101 341.606,32.003 344.046,32.288 344.507 C 32.544 344.922,371.336 345.083,372.415 344.669 C 373.046 344.427,373.217 343.431,372.628 343.431 C 372.427 343.431,372.263 343.097,372.263 342.689 C 372.263 342.282,372.016 341.853,371.715 341.738 C 371.414 341.622,371.168 341.135,371.168 340.654 C 371.168 340.174,371.004 339.781,370.803 339.781 C 370.602 339.781,370.438 339.370,370.438 338.869 C 370.438 338.367,370.274 337.956,370.073 337.956 C 369.872 337.956,369.708 337.637,369.708 337.248 C 369.708 336.858,369.548 336.441,369.353 336.320 C 369.003 336.104,368.592 335.279,367.300 332.208 C 366.941 331.355,366.515 330.657,366.353 330.657 C 366.191 330.657,366.058 330.246,366.058 329.745 C 366.058 329.243,365.894 328.832,365.693 328.832 C 365.493 328.832,365.328 328.641,365.328 328.407 C 365.328 327.726,364.122 325.182,363.798 325.182 C 363.636 325.182,363.504 324.772,363.504 324.270 C 363.504 323.768,363.339 323.358,363.139 323.358 C 362.938 323.358,362.774 323.043,362.774 322.658 C 362.774 322.273,362.651 321.904,362.500 321.837 C 362.349 321.770,361.957 321.141,361.628 320.438 C 360.383 317.778,359.083 315.126,358.766 314.599 C 358.585 314.297,358.159 313.271,357.819 312.318 C 357.478 311.364,357.058 310.584,356.885 310.584 C 356.711 310.584,356.569 310.265,356.569 309.876 C 356.569 309.486,356.405 309.066,356.204 308.942 C 356.004 308.818,355.839 308.397,355.839 308.008 C 355.839 307.618,355.675 307.299,355.474 307.299 C 355.274 307.299,355.109 306.966,355.109 306.558 C 355.109 306.150,354.863 305.722,354.562 305.606 C 354.261 305.491,354.015 305.003,354.015 304.523 C 354.015 304.043,353.850 303.650,353.650 303.650 C 353.449 303.650,353.285 303.331,353.285 302.941 C 353.285 302.552,353.120 302.131,352.920 302.007 C 352.719 301.883,352.555 301.481,352.555 301.112 C 352.555 300.744,352.308 300.349,352.007 300.233 C 351.706 300.117,351.460 299.699,351.460 299.303 C 351.460 298.907,351.296 298.482,351.095 298.358 C 350.894 298.234,350.730 297.813,350.730 297.424 C 350.730 297.034,350.566 296.715,350.365 296.715 C 350.164 296.715,350.000 296.399,350.000 296.011 C 350.000 295.624,349.754 295.061,349.453 294.760 C 349.151 294.459,348.905 293.873,348.905 293.457 C 348.905 293.041,348.741 292.701,348.540 292.701 C 348.339 292.701,348.175 292.480,348.175 292.209 C 348.175 291.582,347.141 289.497,346.692 289.219 C 346.504 289.103,346.350 288.689,346.350 288.300 C 346.350 287.910,346.186 287.591,345.985 287.591 C 345.785 287.591,345.620 287.194,345.620 286.709 C 345.620 286.224,345.497 285.773,345.347 285.706 C 345.196 285.639,344.643 284.681,344.117 283.577 C 343.151 281.546,340.918 276.797,339.828 274.453 C 339.501 273.750,339.110 273.120,338.960 273.054 C 338.809 272.987,338.686 272.535,338.686 272.050 C 338.686 271.565,338.522 271.168,338.321 271.168 C 338.120 271.168,337.956 270.935,337.956 270.650 C 337.956 269.999,336.772 267.889,336.405 267.886 C 336.255 267.884,336.131 267.482,336.131 266.992 C 336.131 266.502,335.967 266.000,335.766 265.876 C 335.566 265.752,335.401 265.332,335.401 264.942 C 335.401 264.552,335.245 264.234,335.054 264.234 C 334.707 264.234,334.082 263.006,333.194 260.584 C 332.937 259.881,332.507 259.047,332.239 258.730 C 331.971 258.413,331.752 257.889,331.752 257.566 C 331.752 257.242,331.588 256.876,331.387 256.752 C 331.186 256.628,331.022 256.207,331.022 255.818 C 331.022 255.428,330.858 255.109,330.657 255.109 C 330.456 255.109,330.292 254.776,330.292 254.368 C 330.292 253.960,330.046 253.532,329.745 253.417 C 329.443 253.301,329.197 252.814,329.197 252.333 C 329.197 251.853,329.033 251.460,328.832 251.460 C 328.631 251.460,328.467 251.141,328.467 250.751 C 328.467 250.362,328.303 249.942,328.102 249.818 C 327.901 249.693,327.737 249.273,327.737 248.884 C 327.737 248.494,327.605 248.175,327.442 248.175 C 327.119 248.175,325.912 245.631,325.912 244.950 C 325.912 244.717,325.748 244.526,325.547 244.526 C 325.347 244.526,325.182 244.209,325.182 243.822 C 325.182 243.435,324.936 242.871,324.635 242.570 C 324.334 242.269,324.088 241.775,324.088 241.471 C 324.088 241.167,323.923 240.817,323.723 240.693 C 323.522 240.569,323.358 240.228,323.358 239.935 C 323.358 239.641,322.947 238.751,322.445 237.956 C 321.943 237.161,321.533 236.261,321.533 235.956 C 321.533 235.651,321.369 235.401,321.168 235.401 C 320.967 235.401,320.803 234.991,320.803 234.489 C 320.803 233.987,320.656 233.577,320.478 233.577 C 320.299 233.577,320.049 233.166,319.923 232.664 C 319.797 232.162,319.533 231.752,319.336 231.752 C 319.139 231.752,318.978 231.341,318.978 230.839 C 318.978 230.338,318.814 229.927,318.613 229.927 C 318.412 229.927,318.248 229.599,318.248 229.197 C 318.248 228.796,318.084 228.467,317.883 228.467 C 317.682 228.467,317.518 228.159,317.518 227.782 C 317.518 227.405,317.272 226.892,316.971 226.642 C 316.670 226.392,316.423 226.017,316.423 225.808 C 316.423 225.161,315.205 222.628,314.893 222.628 C 314.731 222.628,314.599 222.217,314.599 221.715 C 314.599 221.214,314.434 220.803,314.234 220.803 C 314.033 220.803,313.869 220.531,313.869 220.199 C 313.869 219.866,313.450 219.045,312.938 218.374 L 312.007 217.153 289.762 217.153 C 268.745 217.153,265.887 217.026,268.066 216.190 C 268.367 216.075,268.613 215.745,268.613 215.457 C 268.613 215.169,268.942 214.580,269.343 214.149 C 269.745 213.719,270.073 213.069,270.073 212.705 C 270.073 212.341,270.278 212.042,270.529 212.039 C 270.934 212.035,272.628 209.820,272.628 209.294 C 272.628 209.181,273.038 208.709,273.540 208.244 C 274.042 207.779,274.453 207.152,274.453 206.852 C 274.453 206.552,274.863 205.998,275.365 205.621 C 275.867 205.245,276.278 204.688,276.278 204.384 C 276.279 204.081,276.772 203.257,277.375 202.555 C 277.978 201.852,278.563 200.990,278.676 200.639 C 278.789 200.287,279.034 200.000,279.222 200.000 C 279.409 200.000,279.562 199.829,279.562 199.620 C 279.562 199.410,279.730 199.041,279.934 198.798 C 281.700 196.706,282.116 196.084,282.116 195.529 C 282.117 195.178,282.304 194.891,282.533 194.891 C 283.068 194.891,283.915 193.777,283.930 193.055 C 283.936 192.748,284.280 192.255,284.694 191.960 C 285.108 191.665,285.691 190.912,285.990 190.287 C 286.288 189.661,286.820 188.840,287.172 188.462 C 287.523 188.083,288.125 187.240,288.509 186.588 C 288.894 185.935,289.337 185.401,289.495 185.401 C 289.652 185.401,289.781 185.068,289.781 184.660 C 289.781 184.252,290.027 183.824,290.328 183.709 C 290.630 183.593,290.876 183.188,290.876 182.808 C 290.876 182.428,291.040 182.117,291.241 182.117 C 291.442 182.117,291.606 181.870,291.606 181.569 C 291.606 181.268,291.770 181.022,291.971 181.022 C 292.172 181.022,292.336 180.711,292.336 180.331 C 292.336 179.951,292.582 179.546,292.883 179.430 C 293.184 179.315,293.431 178.886,293.431 178.479 C 293.431 178.071,293.595 177.737,293.796 177.737 C 293.996 177.737,294.161 177.327,294.161 176.825 C 294.161 176.323,294.313 175.912,294.499 175.912 C 294.888 175.912,295.985 173.851,295.985 173.119 C 295.985 172.849,296.150 172.628,296.350 172.628 C 296.551 172.628,296.715 172.217,296.715 171.715 C 296.715 171.214,296.876 170.803,297.073 170.803 C 297.270 170.803,297.534 170.392,297.660 169.891 C 297.786 169.389,298.036 168.978,298.215 168.978 C 298.394 168.978,298.540 168.403,298.540 167.701 C 298.540 166.998,298.704 166.423,298.905 166.423 C 299.106 166.423,299.270 165.951,299.270 165.373 C 299.270 164.796,299.516 164.118,299.818 163.869 C 300.119 163.619,300.365 163.116,300.365 162.751 C 300.365 162.386,300.529 161.985,300.730 161.861 C 300.931 161.737,301.095 161.245,301.095 160.766 C 301.095 160.288,301.259 159.796,301.460 159.672 C 301.661 159.547,301.825 158.734,301.825 157.864 C 301.825 156.795,302.002 156.214,302.372 156.072 C 302.734 155.934,302.920 155.362,302.920 154.391 C 302.920 153.582,303.084 152.920,303.285 152.920 C 303.485 152.920,303.650 152.181,303.650 151.277 C 303.650 150.374,303.814 149.635,304.015 149.635 C 304.215 149.635,304.385 148.691,304.391 147.536 C 304.398 146.273,304.616 145.156,304.939 144.730 C 305.265 144.297,305.474 143.203,305.474 141.923 C 305.474 140.768,305.639 139.723,305.839 139.599 C 306.050 139.469,306.204 137.534,306.204 135.036 C 306.204 132.539,306.359 130.604,306.569 130.474 C 306.791 130.338,306.934 127.673,306.934 123.701 C 306.934 119.579,306.799 117.153,306.569 117.153 C 306.343 117.153,306.204 115.214,306.204 112.065 C 306.204 109.067,306.054 106.885,305.839 106.752 C 305.639 106.628,305.474 105.324,305.474 103.855 C 305.474 101.926,305.322 101.058,304.927 100.730 C 304.565 100.429,304.380 99.612,304.380 98.313 C 304.380 97.234,304.215 96.350,304.015 96.350 C 303.814 96.350,303.650 95.621,303.650 94.730 C 303.650 93.838,303.485 93.007,303.285 92.883 C 303.084 92.759,302.920 92.005,302.920 91.208 C 302.920 90.256,302.732 89.686,302.372 89.548 C 302.037 89.419,301.825 88.866,301.825 88.121 C 301.825 87.452,301.661 86.803,301.460 86.679 C 301.259 86.555,301.095 85.898,301.095 85.219 C 301.095 84.540,300.949 83.895,300.771 83.785 C 300.593 83.675,300.340 83.008,300.207 82.303 C 300.075 81.599,299.810 81.022,299.618 81.022 C 299.427 81.022,299.270 80.621,299.270 80.131 C 299.270 79.641,299.106 79.139,298.905 79.015 C 298.704 78.891,298.540 78.525,298.540 78.203 C 298.540 77.400,297.373 74.818,297.010 74.818 C 296.848 74.818,296.715 74.325,296.715 73.723 C 296.715 73.120,296.551 72.628,296.350 72.628 C 296.150 72.628,295.985 72.217,295.985 71.715 C 295.985 71.214,295.824 70.803,295.627 70.803 C 295.430 70.803,295.166 70.392,295.040 69.891 C 294.914 69.389,294.665 68.978,294.486 68.978 C 294.307 68.978,294.161 68.757,294.161 68.487 C 294.161 67.755,293.063 65.693,292.674 65.693 C 292.488 65.693,292.336 65.396,292.336 65.032 C 292.336 64.669,292.007 64.019,291.606 63.588 C 291.204 63.157,290.876 62.469,290.876 62.059 C 290.876 61.649,290.660 61.314,290.397 61.314 C 290.133 61.314,289.692 60.739,289.416 60.036 C 289.140 59.334,288.781 58.759,288.618 58.759 C 288.455 58.759,288.321 58.520,288.321 58.228 C 288.321 57.936,287.911 57.287,287.409 56.785 C 286.907 56.283,286.496 55.631,286.496 55.335 C 286.496 55.039,286.086 54.475,285.584 54.080 C 285.082 53.685,284.672 53.180,284.672 52.958 C 284.672 52.736,284.507 52.555,284.307 52.555 C 284.106 52.555,283.942 52.373,283.942 52.150 C 283.942 51.688,283.353 51.010,279.653 47.212 C 278.198 45.718,277.007 44.347,277.007 44.164 C 277.007 43.981,276.776 43.701,276.492 43.540 C 276.209 43.380,275.392 42.714,274.677 42.062 C 273.962 41.410,273.209 40.876,273.002 40.876 C 272.796 40.876,272.628 40.704,272.628 40.494 C 272.628 39.999,270.950 38.321,270.455 38.321 C 270.245 38.321,270.073 38.103,270.073 37.835 C 270.073 37.568,269.662 37.130,269.161 36.861 C 268.659 36.593,268.248 36.237,268.248 36.070 C 268.248 35.903,268.038 35.766,267.782 35.766 C 267.525 35.766,267.056 35.479,266.739 35.128 C 265.935 34.237,264.924 33.445,263.568 32.644 C 262.930 32.268,262.409 31.831,262.409 31.673 C 262.409 31.516,262.162 31.387,261.861 31.387 C 261.560 31.387,261.313 31.264,261.312 31.113 C 261.309 30.798,259.239 29.562,258.713 29.562 C 258.519 29.562,257.950 29.151,257.449 28.650 C 256.947 28.148,256.297 27.737,256.005 27.737 C 255.713 27.737,255.474 27.573,255.474 27.372 C 255.474 27.172,255.146 27.007,254.745 27.007 C 254.343 27.007,254.015 26.862,254.015 26.685 C 254.015 26.508,253.727 26.270,253.376 26.158 C 253.025 26.045,251.867 25.451,250.803 24.838 C 249.739 24.224,248.648 23.723,248.379 23.723 C 248.109 23.723,247.794 23.476,247.678 23.175 C 247.563 22.874,247.144 22.628,246.748 22.628 C 246.352 22.628,245.927 22.464,245.803 22.263 C 245.679 22.062,245.094 21.898,244.504 21.898 C 243.914 21.898,243.431 21.734,243.431 21.533 C 243.431 21.332,243.198 21.168,242.913 21.168 C 242.628 21.168,241.848 20.894,241.179 20.559 C 238.927 19.430,238.698 19.343,237.983 19.343 C 237.590 19.343,237.168 19.179,237.044 18.978 C 236.920 18.777,236.273 18.613,235.607 18.613 C 234.941 18.613,234.191 18.367,233.942 18.066 C 233.692 17.765,233.015 17.518,232.437 17.518 C 231.859 17.518,231.387 17.354,231.387 17.153 C 231.387 16.953,230.648 16.788,229.745 16.788 C 228.841 16.788,228.102 16.624,228.102 16.423 C 228.102 16.223,227.486 16.051,226.734 16.042 C 225.981 16.034,224.708 15.790,223.905 15.500 C 223.102 15.211,221.747 14.972,220.894 14.969 C 220.041 14.966,219.343 14.799,219.343 14.599 C 219.343 14.376,217.708 14.234,215.168 14.234 C 212.778 14.234,210.896 14.078,210.766 13.869 C 210.462 13.376,195.743 13.376,195.438 13.869 M213.686 41.241 C 213.810 41.442,214.805 41.606,215.897 41.606 C 216.990 41.606,217.883 41.770,217.883 41.971 C 217.883 42.172,218.634 42.336,219.552 42.336 C 220.548 42.336,221.441 42.556,221.767 42.883 C 222.069 43.184,222.714 43.431,223.201 43.431 C 223.689 43.431,224.088 43.595,224.088 43.796 C 224.088 43.996,224.662 44.161,225.365 44.161 C 226.068 44.161,226.642 44.325,226.642 44.526 C 226.642 44.726,227.200 44.891,227.881 44.891 C 228.645 44.891,229.199 45.100,229.329 45.438 C 229.445 45.739,229.873 45.985,230.281 45.985 C 230.688 45.985,231.022 46.150,231.022 46.350 C 231.022 46.551,231.432 46.715,231.934 46.715 C 232.436 46.715,232.847 46.880,232.847 47.080 C 232.847 47.281,233.175 47.445,233.577 47.445 C 233.978 47.445,234.307 47.606,234.307 47.803 C 234.307 48.000,234.717 48.264,235.219 48.390 C 235.721 48.516,236.131 48.766,236.131 48.945 C 236.131 49.124,236.460 49.270,236.861 49.270 C 237.263 49.270,237.591 49.434,237.591 49.635 C 237.591 49.836,238.002 50.000,238.504 50.000 C 239.071 50.000,239.416 50.207,239.416 50.547 C 239.416 50.849,239.662 51.095,239.964 51.095 C 240.265 51.095,240.511 51.259,240.511 51.460 C 240.511 51.661,240.839 51.825,241.241 51.825 C 241.642 51.825,241.971 51.989,241.971 52.190 C 241.971 52.391,242.217 52.555,242.518 52.555 C 242.819 52.555,243.066 52.724,243.066 52.931 C 243.066 53.138,243.346 53.415,243.688 53.546 C 244.275 53.772,244.587 54.001,246.437 55.566 C 246.852 55.917,247.322 56.204,247.480 56.204 C 247.882 56.204,257.299 65.659,257.299 66.062 C 257.299 66.243,257.710 66.801,258.212 67.303 C 258.714 67.804,259.124 68.316,259.124 68.440 C 259.124 68.812,260.138 69.708,260.558 69.708 C 260.773 69.708,260.949 70.082,260.949 70.540 C 260.949 70.997,261.277 71.608,261.679 71.898 C 262.080 72.187,262.412 72.675,262.415 72.982 C 262.419 73.289,262.829 73.927,263.327 74.400 C 263.826 74.872,264.234 75.570,264.234 75.951 C 264.234 76.331,264.398 76.642,264.599 76.642 C 264.799 76.642,264.964 76.976,264.964 77.384 C 264.964 77.791,265.210 78.220,265.511 78.335 C 265.812 78.451,266.058 78.856,266.058 79.236 C 266.058 79.616,266.223 79.927,266.423 79.927 C 266.624 79.927,266.788 80.338,266.788 80.839 C 266.788 81.341,266.953 81.752,267.153 81.752 C 267.354 81.752,267.518 82.085,267.518 82.493 C 267.518 82.901,267.765 83.329,268.066 83.445 C 268.367 83.560,268.613 84.050,268.613 84.533 C 268.613 85.016,268.758 85.697,268.936 86.045 C 269.540 87.233,270.016 88.502,270.234 89.507 C 270.354 90.059,270.613 90.511,270.810 90.511 C 271.007 90.511,271.168 91.250,271.168 92.153 C 271.168 93.057,271.332 93.796,271.533 93.796 C 271.734 93.796,271.898 94.523,271.898 95.412 C 271.898 96.362,272.123 97.254,272.445 97.576 C 272.841 97.972,272.993 98.937,272.993 101.069 C 272.993 102.789,273.144 104.015,273.358 104.015 C 273.587 104.015,273.723 106.448,273.723 110.584 C 273.723 114.720,273.587 117.153,273.358 117.153 C 273.142 117.153,272.993 118.478,272.993 120.399 C 272.993 122.947,272.875 123.690,272.445 123.855 C 272.072 123.998,271.898 124.583,271.898 125.697 C 271.898 126.595,271.734 127.431,271.533 127.555 C 271.332 127.679,271.168 128.428,271.168 129.219 C 271.168 130.010,271.011 130.657,270.819 130.657 C 270.628 130.657,270.363 131.232,270.231 131.934 C 270.100 132.637,269.846 133.212,269.667 133.212 C 269.489 133.212,269.343 133.786,269.343 134.489 C 269.343 135.192,269.179 135.766,268.978 135.766 C 268.777 135.766,268.613 136.159,268.613 136.640 C 268.613 137.120,268.367 137.608,268.066 137.723 C 267.765 137.839,267.518 138.339,267.518 138.836 C 267.518 139.332,267.354 139.839,267.153 139.964 C 266.953 140.088,266.788 140.590,266.788 141.080 C 266.788 141.570,266.624 141.971,266.423 141.971 C 266.223 141.971,266.058 142.222,266.058 142.530 C 266.058 142.837,265.812 143.183,265.511 143.299 C 265.210 143.414,264.964 143.738,264.964 144.017 C 264.964 144.297,264.799 144.526,264.599 144.526 C 264.398 144.526,264.234 144.854,264.234 145.255 C 264.234 145.657,264.069 145.985,263.869 145.985 C 263.668 145.985,263.504 146.396,263.504 146.898 C 263.504 147.400,263.316 147.810,263.088 147.810 C 262.555 147.810,261.706 148.922,261.690 149.640 C 261.684 149.943,261.268 150.500,260.766 150.877 C 260.265 151.254,259.854 151.831,259.854 152.160 C 259.854 152.489,259.526 152.995,259.124 153.285 C 258.723 153.574,258.394 154.021,258.394 154.278 C 258.394 154.534,258.218 154.745,258.003 154.745 C 257.498 154.745,256.569 155.673,256.569 156.178 C 256.569 156.393,256.405 156.569,256.204 156.569 C 256.004 156.569,255.839 156.898,255.839 157.299 C 255.839 157.705,255.596 158.029,255.292 158.029 C 254.991 158.029,254.744 158.152,254.744 158.303 C 254.743 158.769,253.040 160.584,252.604 160.584 C 252.376 160.584,252.190 160.770,252.190 160.998 C 252.190 161.499,250.344 163.138,249.777 163.138 C 249.555 163.138,249.064 163.549,248.687 164.051 C 248.310 164.553,247.865 164.964,247.698 164.964 C 247.263 164.964,246.350 165.934,246.350 166.397 C 246.350 166.612,246.045 166.788,245.671 166.788 C 245.298 166.788,244.383 167.363,243.638 168.066 C 242.893 168.768,242.049 169.343,241.762 169.343 C 241.476 169.343,241.241 169.507,241.241 169.708 C 241.241 169.909,240.995 170.073,240.693 170.073 C 240.392 170.073,240.146 170.237,240.146 170.438 C 240.146 170.639,239.835 170.803,239.455 170.803 C 239.075 170.803,238.670 171.049,238.554 171.350 C 238.439 171.651,238.010 171.898,237.603 171.898 C 237.195 171.898,236.861 172.062,236.861 172.263 C 236.861 172.464,236.533 172.628,236.131 172.628 C 235.730 172.628,235.401 172.792,235.401 172.993 C 235.401 173.193,235.173 173.358,234.893 173.358 C 234.613 173.358,234.290 173.604,234.175 173.905 C 234.053 174.222,233.507 174.453,232.880 174.453 C 232.283 174.453,231.693 174.617,231.569 174.818 C 231.445 175.018,231.025 175.182,230.635 175.182 C 230.246 175.182,229.927 175.347,229.927 175.547 C 229.927 175.748,229.599 175.912,229.197 175.912 C 228.792 175.912,228.467 176.156,228.467 176.460 C 228.467 176.840,228.084 177.007,227.211 177.007 C 226.521 177.007,225.854 177.172,225.730 177.372 C 225.606 177.573,224.959 177.737,224.293 177.737 C 223.627 177.737,222.492 177.984,221.772 178.285 C 221.051 178.586,219.963 178.832,219.355 178.832 C 218.746 178.832,218.248 178.996,218.248 179.197 C 218.248 179.398,217.460 179.562,216.496 179.562 C 215.533 179.562,214.589 179.711,214.398 179.893 C 213.290 180.952,193.644 180.952,192.536 179.893 C 192.346 179.711,191.329 179.562,190.277 179.562 C 189.225 179.562,188.269 179.407,188.152 179.218 C 188.035 179.029,187.202 178.764,186.301 178.629 C 185.400 178.493,184.573 178.238,184.463 178.060 C 184.353 177.883,183.698 177.737,183.008 177.737 C 182.317 177.737,181.752 177.573,181.752 177.372 C 181.752 177.172,181.442 177.007,181.064 177.007 C 180.685 177.007,179.905 176.762,179.330 176.462 C 178.755 176.162,177.997 175.916,177.646 175.915 C 177.295 175.913,177.007 175.748,177.007 175.547 C 177.007 175.347,176.597 175.182,176.095 175.182 C 175.593 175.182,175.182 175.018,175.182 174.818 C 175.182 174.617,174.772 174.453,174.270 174.453 C 173.768 174.453,173.358 174.291,173.358 174.095 C 173.358 173.898,172.947 173.633,172.445 173.508 C 171.943 173.382,171.533 173.132,171.533 172.953 C 171.533 172.774,171.204 172.628,170.803 172.628 C 170.401 172.628,170.073 172.464,170.073 172.263 C 170.073 172.062,169.662 171.898,169.161 171.898 C 168.593 171.898,168.248 171.691,168.248 171.350 C 168.248 171.049,168.002 170.803,167.701 170.803 C 167.400 170.803,167.153 170.639,167.153 170.438 C 167.153 170.237,166.825 170.073,166.423 170.073 C 166.022 170.073,165.693 169.944,165.693 169.787 C 165.693 169.629,165.160 169.187,164.507 168.804 C 163.855 168.420,163.145 167.933,162.930 167.721 C 162.715 167.509,161.936 166.925,161.199 166.423 C 160.462 165.922,159.858 165.388,159.857 165.237 C 159.855 165.087,159.688 164.964,159.486 164.964 C 159.069 164.964,150.365 156.284,150.365 155.868 C 150.365 155.719,149.954 155.378,149.453 155.109 C 148.951 154.841,148.535 154.362,148.529 154.044 C 148.514 153.306,147.672 152.190,147.131 152.190 C 146.903 152.190,146.715 151.943,146.715 151.642 C 146.715 151.341,146.551 151.095,146.350 151.095 C 146.150 151.095,145.985 150.826,145.985 150.498 C 145.985 150.170,145.575 149.521,145.073 149.056 C 144.571 148.591,144.161 147.956,144.161 147.645 C 144.161 147.334,143.996 147.080,143.796 147.080 C 143.595 147.080,143.425 146.793,143.419 146.442 C 143.405 145.653,142.583 144.526,142.022 144.526 C 141.793 144.526,141.606 144.115,141.606 143.613 C 141.606 143.111,141.442 142.701,141.241 142.701 C 141.040 142.701,140.876 142.290,140.876 141.788 C 140.876 141.286,140.712 140.876,140.511 140.876 C 140.310 140.876,140.146 140.565,140.146 140.185 C 140.146 139.805,139.900 139.400,139.599 139.284 C 139.279 139.161,139.051 138.614,139.051 137.968 C 139.051 137.359,138.887 136.861,138.686 136.861 C 138.485 136.861,138.321 136.451,138.321 135.949 C 138.321 135.447,138.157 135.036,137.956 135.036 C 137.755 135.036,137.591 134.539,137.591 133.930 C 137.591 133.283,137.364 132.737,137.044 132.614 C 136.706 132.484,136.496 131.929,136.496 131.165 C 136.496 130.484,136.332 129.927,136.131 129.927 C 135.931 129.927,135.766 129.198,135.766 128.306 C 135.766 127.415,135.602 126.584,135.401 126.460 C 135.201 126.336,135.036 125.372,135.036 124.318 C 135.036 123.199,134.814 122.108,134.501 121.694 C 134.110 121.178,133.962 119.941,133.953 117.135 C 133.946 114.840,133.780 113.123,133.541 112.884 C 133.283 112.626,133.225 111.722,133.379 110.347 C 133.510 109.173,133.701 106.324,133.803 104.016 C 133.941 100.897,134.123 99.745,134.513 99.527 C 134.868 99.328,135.036 98.593,135.036 97.245 C 135.036 96.151,135.201 95.255,135.401 95.255 C 135.602 95.255,135.766 94.516,135.766 93.613 C 135.766 92.710,135.931 91.971,136.131 91.971 C 136.332 91.971,136.496 91.466,136.496 90.850 C 136.496 90.233,136.743 89.483,137.044 89.181 C 137.345 88.880,137.591 88.235,137.591 87.748 C 137.591 87.260,137.755 86.861,137.956 86.861 C 138.157 86.861,138.321 86.286,138.321 85.584 C 138.321 84.881,138.485 84.307,138.686 84.307 C 138.887 84.307,139.051 83.973,139.051 83.565 C 139.051 83.157,139.297 82.729,139.599 82.614 C 139.900 82.498,140.146 82.102,140.146 81.734 C 140.146 81.366,140.310 80.963,140.511 80.839 C 140.712 80.715,140.876 80.295,140.876 79.905 C 140.876 79.516,141.040 79.197,141.241 79.197 C 141.442 79.197,141.606 78.786,141.606 78.285 C 141.606 77.717,141.813 77.372,142.153 77.372 C 142.457 77.372,142.701 77.048,142.701 76.642 C 142.701 76.241,142.865 75.912,143.066 75.912 C 143.266 75.912,143.431 75.541,143.431 75.087 C 143.431 74.632,143.841 73.953,144.343 73.576 C 144.845 73.199,145.255 72.729,145.255 72.532 C 145.255 72.026,148.199 67.971,149.775 66.306 C 150.501 65.539,151.095 64.779,151.095 64.617 C 151.095 64.180,156.490 58.759,156.925 58.759 C 157.131 58.759,157.299 58.513,157.299 58.212 C 157.299 57.911,157.515 57.664,157.778 57.664 C 158.041 57.664,158.609 57.336,159.040 56.934 C 159.471 56.533,159.995 56.204,160.204 56.204 C 160.413 56.204,160.584 56.028,160.584 55.813 C 160.584 55.240,161.337 54.587,162.682 53.994 C 163.335 53.707,163.869 53.265,163.869 53.013 C 163.869 52.761,164.197 52.555,164.599 52.555 C 165.000 52.555,165.328 52.391,165.328 52.190 C 165.328 51.989,165.575 51.825,165.876 51.825 C 166.177 51.825,166.423 51.661,166.423 51.460 C 166.423 51.259,166.670 51.095,166.971 51.095 C 167.272 51.095,167.518 50.943,167.518 50.757 C 167.518 50.367,169.580 49.270,170.312 49.270 C 170.582 49.270,170.803 49.106,170.803 48.905 C 170.803 48.704,171.137 48.540,171.544 48.540 C 171.952 48.540,172.380 48.294,172.496 47.993 C 172.611 47.692,173.017 47.445,173.397 47.445 C 173.777 47.445,174.088 47.281,174.088 47.080 C 174.088 46.880,174.498 46.715,175.000 46.715 C 175.502 46.715,175.912 46.569,175.912 46.391 C 175.912 46.213,176.487 45.959,177.190 45.827 C 177.892 45.695,178.467 45.431,178.467 45.239 C 178.467 45.047,178.878 44.891,179.380 44.891 C 179.881 44.891,180.292 44.726,180.292 44.526 C 180.292 44.325,180.867 44.161,181.569 44.161 C 182.272 44.161,182.847 43.996,182.847 43.796 C 182.847 43.595,183.308 43.431,183.872 43.431 C 184.436 43.431,185.216 43.190,185.605 42.895 C 185.995 42.600,187.002 42.354,187.843 42.347 C 188.685 42.341,189.474 42.172,189.599 41.971 C 189.723 41.770,190.626 41.606,191.606 41.606 C 192.586 41.606,193.489 41.442,193.613 41.241 C 193.754 41.012,197.503 40.876,203.650 40.876 C 209.797 40.876,213.545 41.012,213.686 41.241 M143.042 228.545 C 143.327 229.190,143.942 230.071,144.408 230.503 C 144.874 230.935,145.255 231.497,145.255 231.752 C 145.255 232.007,145.625 232.564,146.077 232.990 C 146.528 233.416,147.144 234.256,147.445 234.857 C 148.108 236.179,148.720 236.861,149.244 236.861 C 149.459 236.861,149.635 237.236,149.635 237.693 C 149.635 238.151,149.964 238.762,150.365 239.051 C 150.766 239.340,151.095 239.846,151.095 240.175 C 151.095 240.504,151.505 241.082,152.007 241.459 C 152.509 241.836,152.920 242.434,152.920 242.787 C 152.920 243.141,153.084 243.431,153.285 243.431 C 153.485 243.431,153.650 243.677,153.650 243.978 C 153.650 244.279,153.856 244.526,154.108 244.526 C 154.360 244.526,154.798 245.059,155.082 245.712 C 155.366 246.364,155.981 247.259,156.449 247.702 C 156.916 248.144,157.299 248.759,157.299 249.070 C 157.299 249.381,157.438 249.635,157.607 249.635 C 157.776 249.635,158.224 250.210,158.602 250.912 C 158.981 251.615,159.417 252.190,159.572 252.190 C 159.727 252.190,159.854 252.400,159.854 252.657 C 159.854 252.913,160.182 253.360,160.584 253.650 C 160.985 253.939,161.314 254.445,161.314 254.774 C 161.314 255.103,161.724 255.681,162.226 256.057 C 162.728 256.434,163.139 257.020,163.139 257.359 C 163.139 257.699,163.549 258.299,164.051 258.694 C 164.553 259.089,164.964 259.634,164.964 259.907 C 164.964 260.179,165.375 260.879,165.876 261.462 C 166.378 262.045,166.788 262.638,166.788 262.779 C 166.788 262.921,167.363 263.646,168.066 264.391 C 168.768 265.136,169.343 265.905,169.343 266.100 C 169.343 266.294,169.672 266.806,170.073 267.237 C 170.474 267.668,170.803 268.318,170.803 268.682 C 170.803 269.046,171.049 269.343,171.350 269.343 C 171.651 269.343,171.898 269.589,171.898 269.891 C 171.898 270.192,172.062 270.438,172.263 270.438 C 172.464 270.438,172.628 270.707,172.628 271.035 C 172.628 271.363,173.038 272.012,173.540 272.477 C 174.042 272.942,174.453 273.577,174.453 273.888 C 174.453 274.198,174.617 274.453,174.818 274.453 C 175.018 274.453,175.182 274.624,175.182 274.833 C 175.182 275.191,175.468 275.604,176.551 276.811 C 176.802 277.091,177.007 277.496,177.007 277.711 C 177.007 277.926,177.153 278.102,177.331 278.102 C 177.509 278.102,177.909 278.636,178.220 279.288 C 178.532 279.941,179.125 280.716,179.539 281.011 C 179.953 281.306,180.292 281.852,180.292 282.223 C 180.292 282.964,181.108 283.942,181.726 283.942 C 181.941 283.942,182.117 284.278,182.117 284.688 C 182.117 285.099,182.527 285.845,183.029 286.347 C 183.531 286.849,183.942 287.462,183.942 287.710 C 183.942 287.957,184.270 288.397,184.672 288.686 C 185.073 288.975,185.401 289.481,185.401 289.810 C 185.401 290.139,185.790 290.701,186.265 291.058 C 186.741 291.414,187.346 292.259,187.611 292.933 C 187.876 293.608,188.277 294.161,188.504 294.161 C 188.730 294.161,189.140 294.735,189.416 295.438 C 189.692 296.141,190.051 296.715,190.214 296.715 C 190.377 296.715,190.511 296.962,190.511 297.263 C 190.511 297.564,190.757 297.810,191.058 297.810 C 191.363 297.810,191.606 298.135,191.606 298.540 C 191.606 298.942,191.770 299.270,191.971 299.270 C 192.172 299.270,192.336 299.516,192.336 299.818 C 192.336 300.119,192.500 300.365,192.701 300.365 C 192.901 300.365,193.066 300.616,193.066 300.924 C 193.066 301.231,193.312 301.577,193.613 301.693 C 193.914 301.808,194.161 302.132,194.161 302.411 C 194.161 302.691,194.325 302.920,194.526 302.920 C 194.726 302.920,194.891 303.142,194.891 303.414 C 194.891 303.686,195.260 304.310,195.712 304.802 C 196.163 305.294,196.778 306.180,197.078 306.771 C 197.378 307.363,197.994 308.180,198.447 308.588 C 198.900 308.996,199.270 309.576,199.270 309.876 C 199.270 310.177,199.599 310.660,200.000 310.949 C 200.401 311.238,200.730 311.660,200.730 311.886 C 200.730 312.855,202.111 313.869,203.431 313.869 C 204.845 313.869,206.934 312.228,206.934 311.119 C 206.934 310.825,207.080 310.584,207.258 310.584 C 207.436 310.584,207.854 310.009,208.187 309.307 C 208.521 308.604,208.950 308.029,209.141 308.029 C 209.333 308.029,209.489 307.783,209.489 307.482 C 209.489 307.181,209.618 306.934,209.775 306.934 C 209.933 306.934,210.373 306.401,210.753 305.748 C 211.133 305.096,211.744 304.296,212.109 303.972 C 212.475 303.647,212.774 303.096,212.774 302.747 C 212.774 302.398,213.184 301.789,213.686 301.395 C 214.188 301.000,214.599 300.421,214.599 300.108 C 214.599 299.794,214.898 299.273,215.263 298.948 C 215.629 298.623,216.239 297.824,216.619 297.172 C 217.000 296.519,217.439 295.985,217.597 295.985 C 217.754 295.985,217.883 295.814,217.883 295.605 C 217.883 295.247,218.169 294.834,219.252 293.627 C 219.503 293.347,219.708 292.942,219.708 292.727 C 219.708 292.512,219.872 292.336,220.073 292.336 C 220.274 292.336,220.438 292.082,220.438 291.771 C 220.438 291.460,220.849 290.826,221.350 290.360 C 221.852 289.895,222.263 289.246,222.263 288.918 C 222.263 288.590,222.427 288.321,222.628 288.321 C 222.828 288.321,222.993 288.075,222.993 287.774 C 222.993 287.473,223.239 287.226,223.540 287.226 C 223.844 287.226,224.088 286.902,224.088 286.496 C 224.088 286.095,224.252 285.766,224.453 285.766 C 224.653 285.766,224.818 285.520,224.818 285.219 C 224.818 284.918,224.982 284.672,225.182 284.672 C 225.383 284.672,225.547 284.343,225.547 283.942 C 225.547 283.536,225.791 283.212,226.095 283.212 C 226.396 283.212,226.642 282.965,226.642 282.664 C 226.642 282.363,226.776 282.117,226.939 282.117 C 227.102 282.117,227.462 281.542,227.737 280.839 C 228.013 280.137,228.395 279.562,228.586 279.562 C 229.063 279.562,229.901 278.408,229.915 277.733 C 229.922 277.429,230.338 276.872,230.839 276.495 C 231.341 276.119,231.752 275.579,231.752 275.297 C 231.752 275.015,232.162 274.374,232.664 273.872 C 233.166 273.370,233.577 272.757,233.577 272.509 C 233.577 272.262,233.905 271.822,234.307 271.533 C 234.708 271.243,235.036 270.761,235.036 270.460 C 235.036 270.160,235.407 269.580,235.860 269.172 C 236.313 268.764,236.929 267.939,237.229 267.339 C 237.528 266.738,238.143 265.898,238.595 265.472 C 239.047 265.046,239.416 264.429,239.416 264.100 C 239.416 263.772,239.580 263.504,239.781 263.504 C 239.982 263.504,240.146 263.275,240.146 262.995 C 240.146 262.716,240.392 262.392,240.693 262.277 C 240.995 262.161,241.241 261.815,241.241 261.508 C 241.241 261.200,241.405 260.949,241.606 260.949 C 241.807 260.949,241.971 260.703,241.971 260.401 C 241.971 260.100,242.135 259.854,242.336 259.854 C 242.536 259.854,242.701 259.603,242.701 259.295 C 242.701 258.988,242.947 258.642,243.248 258.526 C 243.549 258.411,243.796 258.163,243.796 257.975 C 243.796 257.787,244.124 257.281,244.526 256.850 C 244.927 256.419,245.255 255.769,245.255 255.406 C 245.255 255.042,245.431 254.745,245.647 254.745 C 246.262 254.745,247.080 253.768,247.080 253.032 C 247.080 252.664,247.491 252.055,247.993 251.678 C 248.495 251.301,248.905 250.723,248.905 250.394 C 248.905 250.065,249.234 249.559,249.635 249.270 C 250.036 248.981,250.365 248.551,250.365 248.316 C 250.365 248.081,250.611 247.794,250.912 247.678 C 251.214 247.563,251.460 247.217,251.460 246.909 C 251.460 246.602,251.624 246.350,251.825 246.350 C 252.026 246.350,252.190 246.179,252.190 245.970 C 252.190 245.612,252.475 245.199,253.558 243.992 C 253.809 243.712,254.015 243.307,254.015 243.092 C 254.015 242.877,254.179 242.701,254.380 242.701 C 254.580 242.701,254.745 242.447,254.745 242.136 C 254.745 241.825,255.116 241.209,255.571 240.767 C 256.025 240.325,256.641 239.471,256.939 238.869 C 257.238 238.266,257.851 237.474,258.303 237.109 C 258.755 236.743,259.124 236.201,259.124 235.906 C 259.124 235.610,259.535 234.958,260.036 234.456 C 260.538 233.954,260.949 233.341,260.949 233.093 C 260.949 232.846,261.277 232.406,261.679 232.117 C 262.080 231.827,262.409 231.420,262.409 231.211 C 262.409 231.003,262.819 230.389,263.321 229.848 C 263.823 229.307,264.234 228.763,264.234 228.639 C 264.234 228.516,264.470 228.179,264.758 227.891 C 265.562 227.087,305.437 227.292,305.870 228.102 C 306.030 228.403,306.449 229.348,306.801 230.201 C 307.152 231.054,307.572 231.752,307.734 231.752 C 307.897 231.752,308.029 232.080,308.029 232.482 C 308.029 232.883,308.193 233.212,308.394 233.212 C 308.595 233.212,308.759 233.622,308.759 234.124 C 308.759 234.626,308.906 235.036,309.085 235.036 C 309.263 235.036,309.513 235.447,309.639 235.949 C 309.765 236.451,310.029 236.861,310.226 236.861 C 310.423 236.861,310.584 237.272,310.584 237.774 C 310.584 238.276,310.748 238.686,310.949 238.686 C 311.150 238.686,311.314 239.015,311.314 239.416 C 311.314 239.818,311.478 240.146,311.679 240.146 C 311.880 240.146,312.044 240.454,312.044 240.831 C 312.044 241.208,312.290 241.721,312.591 241.971 C 312.892 242.221,313.139 242.596,313.139 242.805 C 313.139 243.453,314.357 245.985,314.669 245.985 C 314.831 245.985,314.964 246.396,314.964 246.898 C 314.964 247.400,315.128 247.810,315.328 247.810 C 315.529 247.810,315.693 248.129,315.693 248.519 C 315.693 248.908,315.858 249.328,316.058 249.453 C 316.259 249.577,316.423 250.002,316.423 250.398 C 316.423 250.794,316.670 251.212,316.971 251.328 C 317.272 251.443,317.518 251.839,317.518 252.207 C 317.518 252.575,317.682 252.978,317.883 253.102 C 318.084 253.226,318.248 253.647,318.248 254.036 C 318.248 254.426,318.412 254.745,318.613 254.745 C 318.814 254.745,318.978 255.155,318.978 255.657 C 318.978 256.225,319.185 256.569,319.526 256.569 C 319.866 256.569,320.073 256.914,320.073 257.482 C 320.073 257.984,320.237 258.394,320.438 258.394 C 320.639 258.394,320.803 258.713,320.803 259.103 C 320.803 259.492,320.967 259.912,321.168 260.036 C 321.369 260.161,321.533 260.563,321.533 260.931 C 321.533 261.300,321.779 261.695,322.080 261.811 C 322.381 261.926,322.628 262.437,322.628 262.945 C 322.628 263.453,322.792 263.869,322.993 263.869 C 323.193 263.869,323.358 264.279,323.358 264.781 C 323.358 265.283,323.504 265.693,323.683 265.693 C 323.862 265.693,324.112 266.104,324.237 266.606 C 324.363 267.108,324.628 267.518,324.824 267.518 C 325.021 267.518,325.182 267.929,325.182 268.431 C 325.182 268.932,325.347 269.343,325.547 269.343 C 325.748 269.343,325.912 269.564,325.912 269.834 C 325.912 270.462,326.947 272.547,327.395 272.825 C 327.583 272.941,327.737 273.355,327.737 273.744 C 327.737 274.134,327.901 274.453,328.102 274.453 C 328.303 274.453,328.467 274.863,328.467 275.365 C 328.467 275.867,328.631 276.277,328.832 276.277 C 329.033 276.277,329.197 276.596,329.197 276.986 C 329.197 277.375,329.357 277.793,329.552 277.914 C 329.748 278.034,330.168 278.742,330.485 279.486 C 331.194 281.145,332.795 284.627,333.245 285.488 C 333.427 285.836,333.577 286.370,333.577 286.674 C 333.577 286.978,333.738 287.226,333.935 287.226 C 334.132 287.226,334.396 287.637,334.522 288.139 C 334.648 288.641,334.897 289.051,335.076 289.051 C 335.255 289.051,335.401 289.462,335.401 289.964 C 335.401 290.465,335.566 290.876,335.766 290.876 C 335.967 290.876,336.131 291.210,336.131 291.617 C 336.131 292.025,336.378 292.453,336.679 292.569 C 336.980 292.684,337.226 293.090,337.226 293.470 C 337.226 293.850,337.391 294.161,337.591 294.161 C 337.792 294.161,337.956 294.561,337.956 295.051 C 337.956 295.541,338.120 296.044,338.321 296.168 C 338.522 296.292,338.686 296.695,338.686 297.063 C 338.686 297.431,338.932 297.827,339.234 297.942 C 339.535 298.058,339.781 298.406,339.781 298.716 C 339.781 299.026,339.936 299.565,340.124 299.914 C 340.313 300.262,340.755 301.245,341.107 302.099 C 341.459 302.952,341.879 303.650,342.041 303.650 C 342.203 303.650,342.336 303.968,342.336 304.358 C 342.336 304.748,342.500 305.168,342.701 305.292 C 342.901 305.416,343.066 305.836,343.066 306.226 C 343.066 306.616,343.230 306.934,343.431 306.934 C 343.631 306.934,343.796 307.268,343.796 307.676 C 343.796 308.083,344.042 308.512,344.343 308.627 C 344.644 308.743,344.891 309.230,344.891 309.711 C 344.891 310.191,345.055 310.584,345.255 310.584 C 345.456 310.584,345.620 310.903,345.620 311.292 C 345.620 311.682,345.785 312.102,345.985 312.226 C 346.186 312.350,346.350 312.753,346.350 313.121 C 346.350 313.489,346.597 313.885,346.898 314.001 C 347.199 314.116,347.445 314.464,347.445 314.775 C 347.445 315.085,347.600 315.624,347.789 315.972 C 347.977 316.321,348.420 317.304,348.771 318.157 C 349.123 319.010,349.543 319.708,349.705 319.708 C 349.867 319.708,350.000 320.119,350.000 320.620 C 350.000 321.122,350.164 321.533,350.365 321.533 C 350.566 321.533,350.730 321.724,350.730 321.958 C 350.730 322.639,351.937 325.182,352.260 325.182 C 352.422 325.182,352.555 325.511,352.555 325.912 C 352.555 326.314,352.719 326.642,352.920 326.642 C 353.120 326.642,353.285 327.053,353.285 327.555 C 353.285 328.057,353.431 328.467,353.610 328.467 C 353.789 328.467,354.039 328.878,354.164 329.380 C 354.290 329.881,354.555 330.292,354.751 330.292 C 354.948 330.292,355.109 330.703,355.109 331.204 C 355.109 331.706,355.274 332.117,355.474 332.117 C 355.675 332.117,355.839 332.450,355.839 332.858 C 355.839 333.266,356.086 333.694,356.387 333.810 C 356.688 333.925,356.934 334.331,356.934 334.711 C 356.934 335.387,353.786 335.401,202.737 335.401 C 35.414 335.401,47.909 335.550,48.905 333.572 C 49.106 333.173,49.434 332.520,49.635 332.122 C 49.836 331.723,50.000 331.166,50.000 330.883 C 50.000 330.601,50.246 330.276,50.547 330.160 C 50.849 330.044,51.095 329.616,51.095 329.209 C 51.095 328.801,51.259 328.467,51.460 328.467 C 51.661 328.467,51.825 328.057,51.825 327.555 C 51.825 327.053,51.989 326.642,52.190 326.642 C 52.391 326.642,52.555 326.331,52.555 325.951 C 52.555 325.571,52.801 325.166,53.102 325.051 C 53.403 324.935,53.650 324.507,53.650 324.099 C 53.650 323.691,53.814 323.358,54.015 323.358 C 54.215 323.358,54.380 322.947,54.380 322.445 C 54.380 321.943,54.544 321.533,54.745 321.533 C 54.945 321.533,55.109 321.122,55.109 320.620 C 55.109 320.119,55.242 319.708,55.404 319.708 C 55.566 319.708,55.987 319.010,56.338 318.157 C 56.690 317.304,57.132 316.321,57.321 315.972 C 57.510 315.624,57.664 315.008,57.664 314.603 C 57.664 314.194,57.906 313.869,58.212 313.869 C 58.513 313.869,58.759 313.550,58.759 313.160 C 58.759 312.771,58.923 312.350,59.124 312.226 C 59.325 312.102,59.489 311.682,59.489 311.292 C 59.489 310.903,59.653 310.584,59.854 310.584 C 60.055 310.584,60.219 310.173,60.219 309.672 C 60.219 309.104,60.426 308.759,60.766 308.759 C 61.107 308.759,61.314 308.414,61.314 307.847 C 61.314 307.345,61.478 306.934,61.679 306.934 C 61.880 306.934,62.044 306.606,62.044 306.204 C 62.044 305.803,62.208 305.474,62.409 305.474 C 62.609 305.474,62.774 305.081,62.774 304.601 C 62.774 304.121,63.020 303.633,63.321 303.518 C 63.622 303.402,63.869 302.984,63.869 302.588 C 63.869 302.192,64.033 301.766,64.234 301.642 C 64.434 301.518,64.599 301.118,64.599 300.753 C 64.599 300.388,64.845 299.885,65.146 299.635 C 65.447 299.385,65.693 298.872,65.693 298.495 C 65.693 298.119,65.858 297.810,66.058 297.810 C 66.259 297.810,66.423 297.400,66.423 296.898 C 66.423 296.396,66.588 295.985,66.788 295.985 C 66.989 295.985,67.153 295.575,67.153 295.073 C 67.153 294.571,67.305 294.161,67.492 294.161 C 67.881 294.161,68.978 292.099,68.978 291.367 C 68.978 291.097,69.142 290.876,69.343 290.876 C 69.544 290.876,69.708 290.465,69.708 289.964 C 69.708 289.462,69.869 289.051,70.066 289.051 C 70.263 289.051,70.527 288.641,70.653 288.139 C 70.779 287.637,71.028 287.226,71.207 287.226 C 71.386 287.226,71.533 286.908,71.533 286.518 C 71.533 286.128,71.697 285.708,71.898 285.584 C 72.099 285.460,72.263 285.040,72.263 284.650 C 72.263 284.260,72.405 283.942,72.578 283.942 C 72.752 283.942,73.172 283.161,73.512 282.208 C 73.853 281.255,74.285 280.189,74.474 279.841 C 74.663 279.492,74.818 278.976,74.818 278.694 C 74.818 278.411,75.064 278.086,75.365 277.970 C 75.666 277.855,75.912 277.427,75.912 277.019 C 75.912 276.611,76.077 276.277,76.277 276.277 C 76.478 276.277,76.642 275.867,76.642 275.365 C 76.642 274.863,76.807 274.453,77.007 274.453 C 77.208 274.453,77.372 274.142,77.372 273.762 C 77.372 273.382,77.619 272.976,77.920 272.861 C 78.221 272.745,78.467 272.317,78.467 271.909 C 78.467 271.502,78.631 271.168,78.832 271.168 C 79.033 271.168,79.197 270.757,79.197 270.255 C 79.197 269.754,79.361 269.343,79.562 269.343 C 79.763 269.343,79.927 268.950,79.927 268.470 C 79.927 267.989,80.173 267.502,80.474 267.386 C 80.776 267.271,81.022 266.843,81.022 266.435 C 81.022 266.027,81.186 265.693,81.387 265.693 C 81.588 265.693,81.752 265.375,81.752 264.985 C 81.752 264.595,81.916 264.175,82.117 264.051 C 82.318 263.927,82.482 263.419,82.482 262.923 C 82.482 262.427,82.728 261.926,83.029 261.811 C 83.330 261.695,83.577 261.208,83.577 260.727 C 83.577 260.247,83.741 259.854,83.942 259.854 C 84.142 259.854,84.307 259.526,84.307 259.124 C 84.307 258.723,84.468 258.394,84.665 258.394 C 84.861 258.394,85.126 257.984,85.252 257.482 C 85.378 256.980,85.627 256.569,85.806 256.569 C 85.985 256.569,86.131 256.159,86.131 255.657 C 86.131 255.155,86.296 254.745,86.496 254.745 C 86.697 254.745,86.861 254.495,86.861 254.190 C 86.861 253.885,87.272 252.985,87.774 252.190 C 88.276 251.395,88.686 250.495,88.686 250.190 C 88.686 249.885,88.850 249.635,89.051 249.635 C 89.252 249.635,89.416 249.224,89.416 248.723 C 89.416 248.221,89.549 247.810,89.711 247.810 C 89.873 247.810,90.293 247.112,90.645 246.259 C 90.996 245.406,91.439 244.423,91.627 244.074 C 91.816 243.726,91.971 243.110,91.971 242.706 C 91.971 242.296,92.213 241.971,92.518 241.971 C 92.859 241.971,93.066 241.626,93.066 241.058 C 93.066 240.557,93.230 240.146,93.431 240.146 C 93.631 240.146,93.796 239.818,93.796 239.416 C 93.796 239.015,93.960 238.686,94.161 238.686 C 94.361 238.686,94.526 238.293,94.526 237.813 C 94.526 237.332,94.772 236.845,95.073 236.729 C 95.374 236.614,95.620 236.186,95.620 235.778 C 95.620 235.370,95.785 235.036,95.985 235.036 C 96.186 235.036,96.350 234.718,96.350 234.328 C 96.350 233.938,96.515 233.518,96.715 233.394 C 96.916 233.270,97.080 232.850,97.080 232.460 C 97.080 232.071,97.213 231.752,97.375 231.752 C 97.679 231.752,98.905 229.226,98.905 228.600 C 98.905 227.415,99.682 227.372,121.152 227.372 L 142.523 227.372 143.042 228.545 "></path><path id="path1" d="" stroke="none" fill="#080404" fill-rule="evenodd"></path><path id="path2" d="" stroke="none" fill="#080404" fill-rule="evenodd"></path><path id="path3" d="" stroke="none" fill="#080404" fill-rule="evenodd"></path><path id="path4" d="" stroke="none" fill="#080404" fill-rule="evenodd"></path></g></svg>