<svg id="svg" version="1.1" xmlns="http://www.w3.org/2000/svg" xmlns:xlink="http://www.w3.org/1999/xlink" width="400" height="398.19413092550786" viewBox="0, 0, 400,398.19413092550786"><g id="svgg"><path id="path0" d="M231.673 70.518 C 231.538 70.737,230.900 70.916,230.255 70.916 C 229.611 70.916,229.084 71.096,229.084 71.315 C 229.084 71.534,228.635 71.713,228.088 71.713 C 227.468 71.713,227.092 71.939,227.092 72.311 C 227.092 72.639,226.801 72.908,226.447 72.908 C 225.724 72.908,223.522 75.225,223.512 75.996 C 223.509 76.270,223.327 76.494,223.108 76.494 C 222.888 76.494,222.709 76.833,222.709 77.248 C 222.709 77.663,222.440 78.106,222.112 78.232 C 221.783 78.358,221.514 78.815,221.514 79.247 C 221.514 79.679,221.335 80.143,221.116 80.279 C 220.896 80.414,220.717 81.311,220.717 82.271 C 220.717 83.231,220.538 84.128,220.319 84.263 C 220.095 84.401,219.920 86.307,219.920 88.614 L 219.920 92.718 218.918 92.527 C 218.367 92.421,217.819 92.177,217.700 91.984 C 217.580 91.791,216.625 91.633,215.576 91.633 C 214.175 91.633,213.478 91.422,212.948 90.837 C 212.472 90.311,211.721 90.040,210.738 90.040 C 209.782 90.040,209.167 89.826,209.019 89.442 C 208.851 89.003,208.158 88.845,206.411 88.845 C 205.102 88.845,203.920 88.665,203.785 88.446 C 203.634 88.202,200.461 88.048,195.594 88.048 C 190.563 88.048,187.649 88.194,187.649 88.446 C 187.649 88.665,186.766 88.845,185.686 88.845 C 184.472 88.845,183.494 89.073,183.125 89.442 C 182.796 89.771,182.016 90.040,181.391 90.040 C 180.713 90.040,180.024 90.360,179.681 90.837 C 179.232 91.460,178.650 91.633,177.004 91.633 C 175.847 91.633,174.900 91.813,174.900 92.032 C 174.900 92.251,174.465 92.430,173.933 92.430 C 173.401 92.430,172.696 92.699,172.368 93.028 C 172.039 93.357,171.399 93.625,170.945 93.625 C 170.491 93.625,170.120 93.805,170.120 94.024 C 170.120 94.243,169.761 94.422,169.323 94.422 C 168.884 94.422,168.526 94.602,168.526 94.821 C 168.526 95.040,168.265 95.219,167.946 95.219 C 167.628 95.219,166.919 95.667,166.371 96.215 C 165.823 96.763,165.098 97.211,164.759 97.211 C 164.420 97.211,164.143 97.390,164.143 97.610 C 164.143 97.829,163.917 98.008,163.640 98.008 C 163.364 98.008,162.801 98.456,162.389 99.004 C 161.978 99.552,161.433 100.000,161.177 100.000 C 160.562 100.000,157.769 102.574,157.769 103.141 C 157.769 103.386,157.583 103.586,157.357 103.586 C 156.933 103.586,151.394 108.954,151.394 109.366 C 151.394 109.492,151.212 109.812,150.988 110.077 C 149.110 112.302,148.606 113.017,148.606 113.464 C 148.606 113.747,148.157 114.462,147.610 115.053 C 147.062 115.644,146.614 116.353,146.614 116.629 C 146.614 116.906,146.434 117.131,146.215 117.131 C 145.996 117.131,145.817 117.490,145.817 117.928 C 145.817 118.367,145.637 118.725,145.418 118.725 C 145.199 118.725,145.020 119.173,145.020 119.721 C 145.020 120.269,144.841 120.717,144.622 120.717 C 144.402 120.717,144.223 121.054,144.223 121.465 C 144.223 121.877,143.954 122.436,143.625 122.709 C 143.297 122.982,143.028 123.631,143.028 124.152 C 143.028 124.673,142.849 125.100,142.629 125.100 C 142.410 125.100,142.231 125.727,142.231 126.494 C 142.231 127.261,142.052 127.888,141.833 127.888 C 141.614 127.888,141.434 128.618,141.434 129.511 C 141.434 130.421,141.172 131.395,140.837 131.730 C 140.467 132.100,140.239 133.077,140.239 134.291 C 140.239 135.380,140.055 136.255,139.826 136.255 C 138.762 136.255,139.883 158.912,140.966 159.273 C 141.223 159.359,141.434 160.044,141.434 160.796 C 141.434 161.547,141.602 162.474,141.806 162.854 C 142.011 163.235,142.414 164.420,142.703 165.488 C 142.991 166.557,143.451 167.517,143.725 167.623 C 143.999 167.728,144.223 168.143,144.223 168.545 C 144.223 168.947,144.402 169.386,144.622 169.522 C 144.841 169.657,145.020 170.116,145.020 170.541 C 145.020 170.967,145.199 171.315,145.418 171.315 C 145.637 171.315,145.817 171.673,145.817 172.112 C 145.817 172.550,145.996 172.908,146.215 172.908 C 146.434 172.908,146.614 173.273,146.614 173.718 C 146.614 174.163,146.882 174.630,147.211 174.756 C 147.540 174.882,147.809 175.325,147.809 175.740 C 147.809 176.155,147.960 176.494,148.145 176.494 C 148.329 176.494,148.895 177.301,149.402 178.287 C 149.910 179.273,150.565 180.080,150.859 180.080 C 151.154 180.080,151.394 180.309,151.394 180.589 C 151.394 180.870,151.753 181.357,152.191 181.673 C 152.629 181.989,152.988 182.407,152.988 182.602 C 152.988 182.988,153.923 184.077,156.360 186.530 C 157.730 187.909,157.851 188.169,157.276 188.491 C 156.911 188.695,156.380 189.092,156.095 189.374 C 155.811 189.655,155.264 190.004,154.880 190.149 C 154.497 190.294,154.183 190.598,154.183 190.824 C 154.183 191.050,153.914 191.235,153.586 191.235 C 153.257 191.235,152.988 191.414,152.988 191.633 C 152.988 191.853,152.629 192.032,152.191 192.032 C 151.753 192.032,151.394 192.181,151.394 192.363 C 151.394 192.545,150.946 192.934,150.398 193.227 C 149.851 193.520,149.402 193.999,149.402 194.290 C 149.402 194.582,149.044 194.821,148.606 194.821 C 148.167 194.821,147.809 195.000,147.809 195.219 C 147.809 195.438,147.606 195.618,147.357 195.618 C 147.109 195.618,146.526 196.036,146.062 196.548 C 145.599 197.060,144.592 197.905,143.825 198.427 C 142.042 199.640,141.434 200.236,141.434 200.768 C 141.434 201.003,141.249 201.195,141.023 201.195 C 140.487 201.195,137.849 203.834,137.849 204.369 C 137.849 204.596,137.663 204.781,137.437 204.781 C 136.901 204.781,134.263 207.419,134.263 207.955 C 134.263 208.181,134.076 208.367,133.846 208.367 C 133.306 208.367,131.474 210.198,131.474 210.739 C 131.474 210.968,131.295 211.155,131.076 211.155 C 130.857 211.155,130.677 211.514,130.677 211.952 C 130.677 212.390,130.485 212.749,130.250 212.749 C 129.773 212.749,128.685 213.735,128.685 214.168 C 128.685 214.322,128.359 214.738,127.960 215.093 C 127.561 215.447,126.895 216.320,126.479 217.032 C 126.064 217.744,125.584 218.327,125.412 218.327 C 125.240 218.327,125.100 218.620,125.100 218.978 C 125.100 219.337,124.651 220.045,124.104 220.553 C 123.556 221.061,123.108 221.714,123.108 222.005 C 123.108 222.295,122.749 222.792,122.311 223.108 C 121.873 223.423,121.514 224.009,121.514 224.408 C 121.514 224.808,121.066 225.618,120.518 226.209 C 119.970 226.799,119.522 227.509,119.522 227.785 C 119.522 228.061,119.343 228.287,119.124 228.287 C 118.904 228.287,118.725 228.645,118.725 229.084 C 118.725 229.522,118.546 229.880,118.327 229.880 C 118.108 229.880,117.928 230.329,117.928 230.876 C 117.928 231.424,117.749 231.873,117.530 231.873 C 117.311 231.873,117.131 232.212,117.131 232.627 C 117.131 233.042,116.863 233.484,116.534 233.610 C 116.205 233.736,115.936 234.204,115.936 234.649 C 115.936 235.094,115.757 235.458,115.538 235.458 C 115.319 235.458,115.139 235.806,115.139 236.231 C 115.139 236.657,114.960 237.116,114.741 237.251 C 114.522 237.386,114.343 238.010,114.343 238.636 C 114.343 239.262,114.145 239.840,113.902 239.921 C 113.420 240.082,112.366 242.812,112.357 243.924 C 112.353 244.308,112.171 244.622,111.952 244.622 C 111.733 244.622,111.554 245.249,111.554 246.016 C 111.554 246.783,111.375 247.410,111.155 247.410 C 110.936 247.410,110.751 248.083,110.744 248.904 C 110.737 249.726,110.468 250.746,110.147 251.172 C 109.825 251.597,109.562 252.718,109.562 253.662 C 109.562 254.606,109.382 255.378,109.163 255.378 C 108.931 255.378,108.765 256.699,108.765 258.542 C 108.765 260.282,108.586 261.817,108.367 261.952 C 108.128 262.100,107.968 264.745,107.968 268.549 C 107.968 272.518,108.118 274.900,108.367 274.900 C 108.596 274.900,108.765 276.154,108.765 277.865 C 108.765 279.495,108.944 280.940,109.163 281.076 C 109.382 281.211,109.562 282.034,109.562 282.905 C 109.562 283.944,109.767 284.566,110.159 284.716 C 110.528 284.858,110.757 285.464,110.757 286.298 C 110.757 287.041,110.936 287.649,111.155 287.649 C 111.375 287.649,111.554 288.277,111.554 289.044 C 111.554 289.811,111.733 290.438,111.952 290.438 C 112.171 290.438,112.351 290.691,112.351 290.999 C 112.351 291.669,114.405 295.760,114.837 295.950 C 115.003 296.023,115.139 296.426,115.139 296.846 C 115.139 297.266,115.319 297.610,115.538 297.610 C 115.757 297.610,115.936 297.943,115.936 298.351 C 115.936 298.758,116.384 299.428,116.932 299.840 C 117.480 300.251,117.928 300.904,117.928 301.290 C 117.928 301.676,118.108 301.992,118.327 301.992 C 118.546 301.992,118.725 302.170,118.725 302.387 C 118.725 302.747,119.733 304.073,121.016 305.403 C 121.290 305.687,121.514 306.030,121.514 306.165 C 121.514 306.577,123.442 308.367,123.886 308.367 C 124.115 308.367,124.303 308.552,124.303 308.778 C 124.303 309.314,126.941 311.952,127.477 311.952 C 127.703 311.952,127.888 312.144,127.888 312.379 C 127.888 312.931,128.902 313.944,129.454 313.944 C 129.688 313.944,129.880 314.124,129.880 314.343 C 129.880 314.562,130.239 314.741,130.677 314.741 C 131.116 314.741,131.474 314.944,131.474 315.193 C 131.474 315.774,133.507 317.529,134.181 317.529 C 134.465 317.530,135.146 317.978,135.694 318.526 C 136.241 319.074,136.911 319.522,137.181 319.522 C 137.452 319.522,137.931 319.880,138.247 320.319 C 138.563 320.757,139.130 321.116,139.507 321.116 C 139.884 321.116,140.303 321.295,140.438 321.514 C 140.574 321.733,141.013 321.912,141.415 321.912 C 141.817 321.912,142.249 322.181,142.375 322.510 C 142.501 322.839,142.969 323.108,143.414 323.108 C 143.859 323.108,144.223 323.287,144.223 323.506 C 144.223 323.725,144.582 323.904,145.020 323.904 C 145.458 323.904,145.817 324.084,145.817 324.303 C 145.817 324.522,146.265 324.701,146.813 324.701 C 147.361 324.701,147.809 324.880,147.809 325.100 C 147.809 325.319,148.145 325.498,148.557 325.498 C 148.968 325.498,149.528 325.767,149.801 326.096 C 150.074 326.424,150.723 326.693,151.244 326.693 C 151.765 326.693,152.191 326.873,152.191 327.092 C 152.191 327.311,152.639 327.490,153.187 327.490 C 153.735 327.490,154.183 327.669,154.183 327.888 C 154.183 328.108,154.644 328.287,155.208 328.287 C 155.771 328.287,156.501 328.556,156.830 328.884 C 157.159 329.213,157.863 329.482,158.395 329.482 C 158.927 329.482,159.363 329.661,159.363 329.880 C 159.363 330.100,160.349 330.279,161.554 330.279 C 162.759 330.279,163.745 330.100,163.745 329.880 C 163.745 329.661,163.987 329.482,164.282 329.482 C 164.968 329.482,166.534 328.134,166.534 327.543 C 166.534 327.295,166.713 327.092,166.932 327.092 C 167.162 327.092,167.331 325.830,167.331 324.104 C 167.331 322.377,167.162 321.116,166.932 321.116 C 166.713 321.116,166.534 320.834,166.534 320.489 C 166.534 319.320,163.726 317.530,161.891 317.530 C 161.377 317.530,160.956 317.351,160.956 317.131 C 160.956 316.912,160.418 316.733,159.761 316.733 C 159.104 316.733,158.566 316.554,158.566 316.335 C 158.566 316.116,158.137 315.936,157.612 315.936 C 157.088 315.936,156.556 315.667,156.430 315.339 C 156.296 314.989,155.699 314.741,154.993 314.741 C 154.328 314.741,153.785 314.562,153.785 314.343 C 153.785 314.124,153.426 313.944,152.988 313.944 C 152.550 313.944,152.191 313.765,152.191 313.546 C 152.191 313.327,151.743 313.147,151.195 313.147 C 150.271 313.147,150.199 313.009,150.199 311.235 C 150.199 310.183,150.008 309.131,149.773 308.897 C 149.132 308.255,149.957 294.420,150.663 293.984 C 150.879 293.850,151.156 292.997,151.278 292.089 C 151.400 291.181,151.655 290.438,151.845 290.438 C 152.036 290.438,152.191 289.990,152.191 289.442 C 152.191 288.894,152.371 288.446,152.590 288.446 C 152.809 288.446,152.988 288.088,152.988 287.649 C 152.988 287.211,153.167 286.853,153.386 286.853 C 153.606 286.853,153.785 286.404,153.785 285.857 C 153.785 285.263,154.013 284.861,154.349 284.861 C 154.659 284.861,155.151 284.323,155.442 283.665 C 155.733 283.008,156.107 282.470,156.273 282.470 C 156.438 282.470,156.574 282.278,156.574 282.043 C 156.574 281.492,157.587 280.478,158.139 280.478 C 158.374 280.478,158.566 280.299,158.566 280.080 C 158.566 279.861,158.859 279.681,159.217 279.681 C 159.576 279.681,160.284 279.233,160.792 278.685 C 161.300 278.137,161.992 277.689,162.332 277.689 C 162.671 277.689,162.948 277.510,162.948 277.291 C 162.948 277.072,163.475 276.892,164.120 276.892 C 164.764 276.892,165.402 276.713,165.538 276.494 C 165.673 276.275,166.317 276.096,166.968 276.096 C 167.653 276.096,168.249 275.844,168.382 275.498 C 168.725 274.602,186.255 274.602,186.598 275.498 C 186.779 275.968,187.596 276.096,190.438 276.096 C 193.280 276.096,194.098 275.968,194.278 275.498 C 194.404 275.169,194.680 274.900,194.892 274.900 C 195.550 274.900,196.414 273.799,196.414 272.960 C 196.414 272.519,196.594 272.048,196.813 271.912 C 197.032 271.777,197.211 271.049,197.211 270.295 C 197.211 269.541,197.390 268.924,197.610 268.924 C 197.829 268.924,198.008 268.495,198.008 267.971 C 198.008 267.447,198.277 266.914,198.606 266.788 C 198.934 266.662,199.203 266.195,199.203 265.750 C 199.203 265.304,199.382 264.940,199.602 264.940 C 199.821 264.940,200.000 264.582,200.000 264.143 C 200.000 263.705,200.179 263.347,200.398 263.347 C 200.618 263.347,200.797 263.160,200.797 262.931 C 200.797 262.464,201.223 261.910,203.088 259.952 C 203.800 259.204,204.382 258.407,204.382 258.181 C 204.382 257.954,204.612 257.769,204.892 257.769 C 205.172 257.769,205.660 257.410,205.976 256.972 C 206.292 256.534,206.754 256.175,207.002 256.175 C 207.250 256.175,207.937 255.727,208.528 255.179 C 209.119 254.631,209.862 254.183,210.180 254.183 C 210.497 254.183,210.757 254.004,210.757 253.785 C 210.757 253.566,211.384 253.386,212.151 253.386 C 212.918 253.386,213.546 253.207,213.546 252.988 C 213.546 252.769,214.252 252.590,215.116 252.590 C 215.979 252.590,216.797 252.410,216.932 252.191 C 217.071 251.967,218.995 251.793,221.338 251.793 C 223.846 251.793,225.498 251.951,225.498 252.191 C 225.498 252.410,226.473 252.590,227.666 252.590 C 228.858 252.590,229.944 252.769,230.080 252.988 C 230.215 253.207,230.853 253.386,231.498 253.386 C 232.142 253.386,232.669 253.566,232.669 253.785 C 232.669 254.004,233.028 254.183,233.466 254.183 C 233.909 254.183,234.263 254.449,234.263 254.781 C 234.263 255.110,234.424 255.378,234.622 255.378 C 235.218 255.378,239.841 260.165,239.841 260.781 C 239.841 261.097,240.020 261.355,240.239 261.355 C 240.458 261.355,240.637 261.624,240.637 261.952 C 240.637 262.281,240.817 262.550,241.036 262.550 C 241.255 262.550,241.434 262.908,241.434 263.347 C 241.434 263.789,241.700 264.143,242.032 264.143 C 242.400 264.143,242.629 264.517,242.629 265.116 C 242.629 265.651,242.809 266.199,243.028 266.335 C 243.247 266.470,243.426 267.198,243.426 267.952 C 243.426 268.706,243.590 269.323,243.791 269.323 C 243.991 269.323,244.252 270.443,244.371 271.813 C 244.490 273.182,244.702 275.154,244.844 276.195 C 245.015 277.462,244.955 278.088,244.662 278.088 C 244.396 278.088,244.223 278.950,244.223 280.279 C 244.223 281.484,244.044 282.470,243.825 282.470 C 243.606 282.470,243.426 282.997,243.426 283.642 C 243.426 284.286,243.247 284.924,243.028 285.060 C 242.809 285.195,242.629 285.654,242.629 286.079 C 242.629 286.505,242.361 286.853,242.032 286.853 C 241.703 286.853,241.434 287.032,241.434 287.251 C 241.434 287.778,233.991 287.778,233.665 287.251 C 233.506 286.993,225.494 286.853,210.933 286.853 C 196.207 286.853,188.446 286.990,188.446 287.251 C 188.446 287.470,187.819 287.649,187.052 287.649 C 186.078 287.649,185.657 287.830,185.657 288.247 C 185.657 288.664,185.237 288.845,184.263 288.845 C 183.496 288.845,182.869 289.024,182.869 289.243 C 182.869 289.462,182.510 289.641,182.072 289.641 C 181.633 289.641,181.275 289.821,181.275 290.040 C 181.275 290.259,181.006 290.438,180.677 290.438 C 180.349 290.438,180.080 290.618,180.080 290.837 C 180.080 291.056,179.805 291.235,179.470 291.235 C 179.134 291.235,178.756 291.504,178.630 291.833 C 178.504 292.161,178.235 292.430,178.032 292.430 C 177.527 292.430,174.900 295.093,174.900 295.604 C 174.900 295.831,174.708 296.016,174.474 296.016 C 173.848 296.016,172.908 297.061,172.908 297.757 C 172.908 298.088,172.729 298.470,172.510 298.606 C 172.291 298.741,172.112 299.123,172.112 299.454 C 172.112 299.786,171.843 300.326,171.514 300.655 C 171.185 300.983,170.916 301.688,170.916 302.220 C 170.916 302.752,170.737 303.187,170.518 303.187 C 170.272 303.187,170.120 305.246,170.120 308.566 C 170.120 311.524,170.279 313.944,170.475 313.944 C 170.670 313.944,170.951 314.426,171.099 315.016 C 171.247 315.605,171.714 316.574,172.138 317.169 C 172.562 317.764,172.908 318.370,172.908 318.517 C 172.908 318.983,176.686 322.542,178.010 323.324 C 178.710 323.738,179.283 324.217,179.283 324.389 C 179.283 324.561,179.631 324.701,180.056 324.701 C 180.481 324.701,180.940 324.880,181.076 325.100 C 181.211 325.319,181.651 325.498,182.053 325.498 C 182.454 325.498,182.886 325.767,183.013 326.096 C 183.139 326.424,183.685 326.693,184.227 326.693 C 184.769 326.693,185.323 326.873,185.458 327.092 C 185.594 327.311,186.321 327.490,187.075 327.490 C 187.829 327.490,188.446 327.669,188.446 327.888 C 188.446 328.108,189.238 328.287,190.206 328.287 C 191.242 328.287,192.032 328.488,192.128 328.776 C 192.515 329.936,207.413 330.703,209.346 329.662 C 210.604 328.985,211.554 327.502,211.554 326.215 C 211.554 325.821,211.733 325.498,211.952 325.498 C 212.171 325.498,212.351 324.960,212.351 324.303 C 212.351 323.645,212.171 323.108,211.952 323.108 C 211.733 323.108,211.554 322.552,211.554 321.873 C 211.554 319.583,209.642 318.327,206.157 318.327 C 204.549 318.327,203.123 318.147,202.988 317.928 C 202.853 317.709,201.329 317.530,199.602 317.530 C 197.874 317.530,196.351 317.351,196.215 317.131 C 196.080 316.912,195.083 316.733,194.000 316.733 C 192.918 316.733,192.032 316.554,192.032 316.335 C 192.032 316.116,191.424 315.936,190.680 315.936 C 189.846 315.936,189.240 315.707,189.099 315.339 C 188.973 315.010,188.505 314.741,188.060 314.741 C 187.615 314.741,187.251 314.562,187.251 314.343 C 187.251 314.124,186.892 313.944,186.454 313.944 C 186.016 313.944,185.657 313.765,185.657 313.546 C 185.657 313.327,185.431 313.147,185.154 313.147 C 184.878 313.147,184.295 312.670,183.860 312.086 C 183.424 311.502,182.844 310.797,182.570 310.520 C 181.809 309.751,181.942 306.146,182.769 305.124 C 184.457 303.039,186.655 301.195,187.453 301.195 C 187.780 301.195,188.048 301.016,188.048 300.797 C 188.048 300.578,188.396 300.398,188.821 300.398 C 189.246 300.398,189.705 300.219,189.841 300.000 C 189.976 299.781,190.691 299.602,191.429 299.602 C 192.168 299.602,193.041 299.333,193.369 299.004 C 194.171 298.202,207.405 298.110,207.669 298.904 C 207.947 299.740,247.809 299.859,247.809 299.025 C 247.809 298.672,248.151 298.406,248.606 298.406 C 249.044 298.406,249.402 298.255,249.402 298.070 C 249.402 297.885,249.850 297.213,250.398 296.576 C 250.945 295.939,251.394 295.105,251.394 294.721 C 251.394 294.338,251.574 294.024,251.793 294.024 C 252.012 294.024,252.191 293.685,252.191 293.270 C 252.191 292.855,252.460 292.412,252.789 292.286 C 253.118 292.160,253.386 291.693,253.386 291.248 C 253.386 290.802,253.566 290.438,253.785 290.438 C 254.004 290.438,254.183 289.990,254.183 289.442 C 254.183 288.894,254.363 288.446,254.582 288.446 C 254.801 288.446,254.980 287.855,254.980 287.131 C 254.980 286.408,255.172 285.625,255.406 285.391 C 257.085 283.712,257.081 268.475,255.401 266.795 C 255.169 266.564,254.980 265.693,254.980 264.861 C 254.980 264.028,254.801 263.347,254.582 263.347 C 254.363 263.347,254.183 262.809,254.183 262.151 C 254.183 261.494,254.004 260.956,253.785 260.956 C 253.566 260.956,253.386 260.592,253.386 260.147 C 253.386 259.702,253.118 259.234,252.789 259.108 C 252.460 258.982,252.191 258.450,252.191 257.926 C 252.191 257.401,252.012 256.972,251.793 256.972 C 251.574 256.972,251.394 256.614,251.394 256.175 C 251.394 255.737,251.215 255.378,250.996 255.378 C 250.777 255.378,250.598 255.110,250.598 254.781 C 250.598 254.452,250.418 254.183,250.199 254.183 C 249.980 254.183,249.801 253.939,249.801 253.641 C 249.801 253.343,249.353 252.763,248.805 252.352 C 248.257 251.940,247.809 251.459,247.809 251.282 C 247.809 251.105,247.405 250.528,246.912 250.001 C 246.419 249.474,245.792 248.772,245.518 248.442 C 245.186 248.042,245.020 246.377,245.020 243.443 C 245.020 240.776,244.863 239.044,244.622 239.044 C 244.402 239.044,244.223 238.414,244.223 237.644 C 244.223 236.874,244.064 235.933,243.869 235.552 C 243.674 235.172,243.185 234.188,242.782 233.367 C 242.379 232.545,241.911 231.873,241.742 231.873 C 241.573 231.873,241.434 231.559,241.434 231.175 C 241.433 230.361,239.756 228.287,239.097 228.287 C 238.849 228.287,238.645 228.095,238.645 227.860 C 238.645 226.747,237.445 226.295,234.491 226.295 C 232.832 226.295,231.474 226.462,231.474 226.666 C 231.474 226.871,231.116 227.152,230.677 227.291 C 230.239 227.430,229.880 227.890,229.880 228.314 C 229.880 228.737,229.701 229.084,229.482 229.084 C 229.250 229.084,229.084 230.412,229.084 232.271 C 229.084 234.130,229.250 235.458,229.482 235.458 C 229.701 235.458,229.880 235.777,229.880 236.167 C 229.880 236.557,230.239 237.134,230.677 237.450 C 231.116 237.766,231.474 238.259,231.474 238.547 C 231.474 238.834,231.743 239.172,232.072 239.298 C 233.054 239.675,232.767 240.637,231.673 240.637 C 231.125 240.637,230.677 240.458,230.677 240.239 C 230.677 240.002,229.158 239.841,226.916 239.841 C 224.838 239.841,223.044 239.662,222.908 239.442 C 222.773 239.223,221.697 239.044,220.518 239.044 C 219.339 239.044,218.263 239.223,218.127 239.442 C 217.992 239.661,216.379 239.841,214.542 239.841 C 212.705 239.841,211.092 240.020,210.956 240.239 C 210.821 240.458,210.202 240.637,209.581 240.637 C 208.945 240.637,208.352 240.898,208.222 241.235 C 208.088 241.584,207.491 241.833,206.785 241.833 C 206.121 241.833,205.578 242.012,205.578 242.231 C 205.578 242.450,205.129 242.629,204.582 242.629 C 204.034 242.629,203.586 242.797,203.586 243.001 C 203.586 243.205,203.224 243.487,202.781 243.628 C 202.339 243.768,201.403 244.408,200.701 245.049 C 199.999 245.690,199.195 246.215,198.915 246.215 C 198.635 246.215,198.406 246.394,198.406 246.614 C 198.406 246.833,198.137 247.012,197.809 247.012 C 197.480 247.012,197.211 247.199,197.211 247.428 C 197.211 247.656,196.225 248.791,195.020 249.949 C 193.815 251.107,192.829 252.312,192.829 252.626 C 192.829 252.940,192.380 253.534,191.833 253.945 C 191.285 254.357,190.837 254.987,190.837 255.346 C 190.837 255.706,190.478 256.258,190.040 256.574 C 189.602 256.890,189.243 257.557,189.243 258.056 C 189.243 258.556,189.064 258.964,188.845 258.964 C 188.625 258.964,188.446 259.301,188.446 259.712 C 188.446 260.124,188.177 260.683,187.849 260.956 C 187.520 261.229,187.251 261.878,187.251 262.399 C 187.251 263.401,185.209 263.834,184.661 262.948 C 184.511 262.705,181.470 262.550,176.869 262.550 C 172.104 262.550,169.323 262.697,169.323 262.948 C 169.323 263.173,168.194 263.347,166.733 263.347 C 165.189 263.347,164.143 263.516,164.143 263.765 C 164.143 263.995,163.561 263.638,162.849 262.970 C 162.136 262.303,161.419 261.756,161.255 261.755 C 161.091 261.754,160.956 261.524,160.956 261.243 C 160.956 260.963,160.598 260.475,160.159 260.159 C 159.721 259.843,159.363 259.266,159.363 258.876 C 159.363 258.486,159.183 258.167,158.964 258.167 C 158.745 258.167,158.566 257.738,158.566 257.214 C 158.566 256.690,158.297 256.157,157.968 256.031 C 157.099 255.698,157.099 249.193,157.968 248.860 C 158.317 248.726,158.566 248.129,158.566 247.423 C 158.566 246.759,158.745 246.215,158.964 246.215 C 159.183 246.215,159.363 245.767,159.363 245.219 C 159.363 244.671,159.542 244.223,159.761 244.223 C 159.980 244.223,160.159 243.967,160.159 243.654 C 160.159 243.341,160.787 242.419,161.554 241.606 C 162.321 240.793,162.948 239.926,162.948 239.680 C 162.948 239.434,163.396 238.896,163.944 238.485 C 164.501 238.067,164.940 237.333,164.940 236.820 C 164.940 236.316,165.120 235.793,165.339 235.657 C 166.765 234.776,164.547 229.084,162.777 229.084 C 162.433 229.084,162.151 228.904,162.151 228.685 C 162.151 228.461,161.029 228.287,159.581 228.287 L 157.011 228.287 154.601 230.689 C 153.276 232.011,152.191 233.356,152.191 233.678 C 152.191 234.000,152.012 234.263,151.793 234.263 C 151.574 234.263,151.394 234.532,151.394 234.861 C 151.394 235.189,151.125 235.458,150.797 235.458 C 150.465 235.458,150.199 235.812,150.199 236.255 C 150.199 236.693,150.020 237.052,149.801 237.052 C 149.582 237.052,149.402 237.321,149.402 237.649 C 149.402 237.978,149.223 238.247,149.004 238.247 C 148.785 238.247,148.606 238.606,148.606 239.044 C 148.606 239.482,148.426 239.841,148.207 239.841 C 147.988 239.841,147.809 240.468,147.809 241.235 C 147.809 242.209,147.629 242.629,147.211 242.629 C 146.794 242.629,146.614 243.050,146.614 244.024 C 146.614 244.791,146.434 245.418,146.215 245.418 C 145.996 245.418,145.817 246.215,145.817 247.188 C 145.817 248.161,145.637 249.068,145.418 249.203 C 145.199 249.339,145.020 250.952,145.020 252.789 C 145.020 254.626,145.199 256.239,145.418 256.375 C 145.637 256.510,145.817 257.507,145.817 258.589 C 145.817 259.672,145.996 260.558,146.215 260.558 C 146.434 260.558,146.614 260.993,146.614 261.525 C 146.614 262.057,146.849 262.730,147.136 263.019 C 147.423 263.309,147.915 264.128,148.229 264.841 C 148.543 265.553,148.936 266.135,149.101 266.135 C 149.267 266.135,149.402 266.378,149.402 266.675 C 149.402 266.972,149.851 267.698,150.398 268.289 C 151.429 269.401,151.714 270.518,150.968 270.518 C 150.509 270.518,149.402 271.497,149.402 271.902 C 149.402 272.314,147.474 274.104,147.030 274.104 C 146.801 274.104,146.614 274.333,146.614 274.613 C 146.614 274.894,146.255 275.381,145.817 275.697 C 145.378 276.013,145.020 276.591,145.020 276.980 C 145.020 277.370,144.841 277.689,144.622 277.689 C 144.402 277.689,144.223 277.958,144.223 278.287 C 144.223 278.616,144.057 278.884,143.854 278.884 C 143.383 278.884,142.231 281.173,142.231 282.109 C 142.231 282.501,142.052 282.932,141.833 283.068 C 141.614 283.203,141.434 283.640,141.434 284.038 C 141.434 284.437,141.165 284.986,140.837 285.259 C 140.508 285.532,140.239 286.171,140.239 286.679 C 140.239 287.187,140.060 287.713,139.841 287.849 C 139.622 287.984,139.442 288.791,139.442 289.641 C 139.442 290.492,139.263 291.299,139.044 291.434 C 138.825 291.570,138.645 293.004,138.645 294.622 C 138.645 296.239,138.466 297.673,138.247 297.809 C 138.028 297.944,137.834 299.613,137.817 301.518 C 137.800 303.422,137.695 304.756,137.585 304.482 C 137.474 304.208,137.148 303.984,136.860 303.984 C 136.227 303.984,132.923 300.782,131.295 298.593 C 130.649 297.723,129.798 296.722,129.403 296.368 C 129.008 296.013,128.685 295.553,128.685 295.344 C 128.685 295.136,128.058 294.261,127.291 293.399 C 126.524 292.538,125.897 291.519,125.897 291.135 C 125.897 290.752,125.717 290.438,125.498 290.438 C 125.279 290.438,125.100 290.080,125.100 289.641 C 125.100 289.203,124.920 288.845,124.701 288.845 C 124.482 288.845,124.303 288.480,124.303 288.035 C 124.303 287.590,124.034 287.123,123.705 286.997 C 123.365 286.866,123.108 286.272,123.108 285.615 C 123.108 284.981,122.928 284.462,122.709 284.462 C 122.490 284.462,122.311 283.835,122.311 283.068 C 122.311 282.301,122.150 281.673,121.954 281.673 C 121.758 281.673,121.501 281.001,121.382 280.179 C 120.793 276.103,120.261 273.439,119.910 272.814 C 119.416 271.934,119.399 264.429,119.890 263.924 C 120.092 263.716,120.459 262.112,120.705 260.359 C 120.950 258.606,121.251 256.454,121.373 255.578 C 121.496 254.701,121.756 253.814,121.953 253.606 C 122.150 253.397,122.311 252.635,122.311 251.912 C 122.311 251.189,122.490 250.598,122.709 250.598 C 122.928 250.598,123.108 249.989,123.108 249.246 C 123.108 248.412,123.336 247.806,123.705 247.665 C 124.055 247.531,124.303 246.934,124.303 246.228 C 124.303 245.563,124.482 245.020,124.701 245.020 C 124.920 245.020,125.100 244.672,125.100 244.247 C 125.100 243.821,125.279 243.363,125.498 243.227 C 125.717 243.092,125.896 242.633,125.896 242.208 C 125.896 241.782,126.076 241.434,126.295 241.434 C 126.514 241.434,126.693 241.076,126.693 240.637 C 126.693 240.199,126.838 239.841,127.015 239.841 C 127.368 239.841,128.685 237.064,128.685 236.320 C 128.685 236.065,128.865 235.857,129.084 235.857 C 129.303 235.857,129.482 235.498,129.482 235.060 C 129.482 234.622,129.661 234.263,129.880 234.263 C 130.100 234.263,130.279 233.904,130.279 233.466 C 130.279 233.023,130.544 232.669,130.876 232.669 C 131.205 232.669,131.474 232.345,131.474 231.948 C 131.474 231.551,131.833 230.841,132.271 230.371 C 132.709 229.900,133.068 229.320,133.068 229.081 C 133.068 228.843,133.516 228.232,134.064 227.724 C 134.612 227.216,135.060 226.598,135.060 226.349 C 135.060 226.100,135.239 225.896,135.458 225.896 C 135.677 225.896,135.857 225.628,135.857 225.300 C 135.857 224.972,136.484 224.038,137.251 223.225 C 138.018 222.412,138.645 221.596,138.645 221.412 C 138.645 220.907,151.243 208.367,151.751 208.367 C 151.993 208.367,152.191 208.174,152.191 207.940 C 152.191 207.305,153.240 206.375,153.956 206.375 C 154.300 206.375,154.582 206.195,154.582 205.976 C 154.582 205.757,154.774 205.578,155.009 205.578 C 155.560 205.578,156.574 204.564,156.574 204.013 C 156.574 203.778,156.932 203.586,157.371 203.586 C 157.809 203.586,158.167 203.406,158.167 203.187 C 158.167 202.968,158.436 202.789,158.765 202.789 C 159.094 202.789,159.363 202.650,159.363 202.481 C 159.363 202.312,159.990 201.835,160.757 201.422 C 161.524 201.009,162.151 200.520,162.151 200.336 C 162.151 200.151,162.510 200.000,162.948 200.000 C 163.386 200.000,163.745 199.821,163.745 199.602 C 163.745 199.382,164.014 199.203,164.343 199.203 C 164.671 199.203,164.940 199.024,164.940 198.805 C 164.940 198.586,165.299 198.406,165.737 198.406 C 166.180 198.406,166.534 198.141,166.534 197.809 C 166.534 197.480,166.882 197.211,167.307 197.211 C 167.732 197.211,168.191 197.032,168.327 196.813 C 168.462 196.594,169.190 196.414,169.944 196.414 C 170.698 196.414,171.315 196.594,171.315 196.813 C 171.315 197.032,171.654 197.211,172.069 197.211 C 172.484 197.211,172.926 197.480,173.052 197.809 C 173.186 198.158,173.783 198.406,174.489 198.406 C 175.154 198.406,175.697 198.586,175.697 198.805 C 175.697 199.024,176.145 199.203,176.693 199.203 C 177.241 199.203,177.689 199.382,177.689 199.602 C 177.689 199.821,178.384 200.000,179.234 200.000 C 180.121 200.000,180.990 200.254,181.275 200.598 C 181.560 200.941,182.429 201.195,183.316 201.195 C 184.165 201.195,184.861 201.375,184.861 201.594 C 184.861 201.824,186.114 201.992,187.825 201.992 C 189.456 201.992,190.900 202.171,191.036 202.390 C 191.178 202.620,193.298 202.789,196.039 202.789 C 198.945 202.789,200.797 202.634,200.797 202.390 C 200.797 202.158,202.117 201.992,203.961 201.992 C 205.701 201.992,207.235 201.813,207.371 201.594 C 207.506 201.375,208.239 201.195,209.000 201.195 C 209.862 201.195,210.470 200.970,210.613 200.598 C 210.769 200.192,211.404 200.000,212.592 200.000 C 213.555 200.000,214.343 199.821,214.343 199.602 C 214.343 199.382,214.870 199.203,215.514 199.203 C 216.159 199.203,216.797 199.024,216.932 198.805 C 217.068 198.586,217.507 198.406,217.909 198.406 C 218.311 198.406,218.743 198.137,218.869 197.809 C 218.995 197.480,219.463 197.211,219.908 197.211 C 220.353 197.211,220.717 197.032,220.717 196.813 C 220.717 196.594,221.165 196.414,221.713 196.414 C 222.261 196.414,222.709 196.235,222.709 196.016 C 222.709 195.797,223.053 195.618,223.473 195.618 C 223.893 195.618,224.318 195.393,224.417 195.120 C 224.561 194.721,224.766 194.721,225.441 195.120 C 225.904 195.393,226.645 195.618,227.086 195.618 C 227.527 195.618,227.888 195.797,227.888 196.016 C 227.888 196.235,228.157 196.414,228.486 196.414 C 228.815 196.414,229.084 196.594,229.084 196.813 C 229.084 197.032,229.423 197.211,229.838 197.211 C 230.253 197.211,230.695 197.480,230.821 197.809 C 230.947 198.137,231.415 198.406,231.860 198.406 C 232.305 198.406,232.669 198.586,232.669 198.805 C 232.669 199.024,233.028 199.203,233.466 199.203 C 233.904 199.203,234.263 199.382,234.263 199.602 C 234.263 199.821,234.450 200.000,234.678 200.000 C 234.907 200.000,235.310 200.183,235.575 200.406 C 237.815 202.297,238.520 202.788,238.999 202.788 C 239.303 202.789,240.088 203.416,240.743 204.183 C 241.398 204.950,242.161 205.578,242.439 205.578 C 242.717 205.578,244.127 206.743,245.573 208.167 C 247.018 209.592,248.285 210.757,248.387 210.757 C 248.667 210.757,252.590 214.672,252.590 214.951 C 252.590 215.084,253.755 216.340,255.179 217.744 C 256.604 219.147,257.769 220.504,257.769 220.758 C 257.769 221.012,258.352 221.780,259.064 222.463 C 259.776 223.146,260.627 224.243,260.956 224.900 C 261.679 226.346,262.347 227.092,262.920 227.092 C 263.155 227.092,263.347 227.500,263.347 228.000 C 263.347 228.499,263.705 229.166,264.143 229.482 C 264.582 229.798,264.940 230.292,264.940 230.580 C 264.940 231.076,266.039 233.037,266.557 233.466 C 266.689 233.576,267.050 234.248,267.360 234.960 C 267.670 235.672,268.059 236.255,268.225 236.255 C 268.390 236.255,268.526 236.619,268.526 237.064 C 268.526 237.509,268.795 237.977,269.124 238.103 C 269.452 238.229,269.721 238.674,269.721 239.092 C 269.721 239.510,269.900 240.208,270.120 240.643 C 270.339 241.078,270.697 241.790,270.916 242.226 C 271.135 242.661,271.315 243.288,271.315 243.620 C 271.315 243.952,271.494 244.223,271.713 244.223 C 271.932 244.223,272.112 244.587,272.112 245.032 C 272.112 245.478,272.380 245.945,272.709 246.071 C 273.075 246.211,273.307 246.816,273.307 247.629 C 273.307 248.359,273.486 249.068,273.705 249.203 C 273.924 249.339,274.104 249.876,274.104 250.398 C 274.104 250.920,274.283 251.458,274.502 251.594 C 274.721 251.729,274.900 252.446,274.900 253.187 C 274.900 253.928,275.057 254.632,275.249 254.750 C 275.441 254.868,275.682 255.991,275.786 257.243 C 275.890 258.496,276.182 259.590,276.434 259.674 C 276.725 259.771,276.892 260.908,276.892 262.782 C 276.892 264.486,277.061 265.737,277.291 265.737 C 277.528 265.737,277.689 267.264,277.689 269.522 C 277.689 271.780,277.528 273.307,277.291 273.307 C 277.066 273.307,276.892 274.445,276.892 275.925 C 276.892 277.721,276.705 278.731,276.295 279.141 C 275.966 279.469,275.697 280.353,275.697 281.104 C 275.697 281.855,275.518 282.470,275.299 282.470 C 275.080 282.470,274.900 283.098,274.900 283.865 C 274.900 284.631,274.721 285.259,274.502 285.259 C 274.283 285.259,274.104 285.797,274.104 286.454 C 274.104 287.112,273.924 287.649,273.705 287.649 C 273.486 287.649,273.307 288.098,273.307 288.645 C 273.307 289.265,273.081 289.641,272.709 289.641 C 272.377 289.641,272.112 289.996,272.112 290.438 C 272.112 290.876,271.932 291.235,271.713 291.235 C 271.494 291.235,271.315 291.644,271.315 292.143 C 271.315 292.643,270.956 293.310,270.518 293.625 C 270.080 293.941,269.721 294.608,269.721 295.108 C 269.721 295.607,269.529 296.016,269.294 296.016 C 268.660 296.016,267.729 297.065,267.729 297.780 C 267.729 298.125,267.550 298.406,267.331 298.406 C 267.112 298.406,266.932 298.675,266.932 299.004 C 266.932 299.333,266.745 299.602,266.516 299.602 C 266.072 299.602,264.143 301.391,264.143 301.803 C 264.143 302.169,263.057 303.187,262.666 303.187 C 262.480 303.187,262.069 303.546,261.753 303.984 C 261.437 304.422,260.944 304.781,260.657 304.781 C 260.369 304.781,260.031 305.050,259.905 305.378 C 259.779 305.707,259.466 305.976,259.209 305.976 C 258.952 305.976,258.483 306.335,258.167 306.773 C 257.851 307.211,257.339 307.570,257.029 307.570 C 256.719 307.570,256.050 308.018,255.543 308.566 C 255.035 309.114,254.424 309.562,254.186 309.562 C 253.947 309.562,253.367 309.920,252.896 310.359 C 252.426 310.797,251.716 311.155,251.319 311.155 C 250.922 311.155,250.596 311.290,250.595 311.454 C 250.592 311.855,248.288 313.147,247.577 313.147 C 247.266 313.147,247.012 313.327,247.012 313.546 C 247.012 313.765,246.664 313.944,246.239 313.944 C 245.813 313.944,245.355 314.124,245.219 314.343 C 245.084 314.562,244.625 314.741,244.200 314.741 C 243.774 314.741,243.426 315.010,243.426 315.339 C 243.426 315.756,243.006 315.936,242.032 315.936 C 241.265 315.936,240.637 316.116,240.637 316.335 C 240.637 316.554,240.289 316.733,239.864 316.733 C 239.439 316.733,238.980 316.912,238.845 317.131 C 238.709 317.351,238.071 317.530,237.427 317.530 C 236.782 317.530,236.255 317.709,236.255 317.928 C 236.255 318.147,235.712 318.327,235.047 318.327 C 234.341 318.327,233.744 318.575,233.610 318.924 C 233.465 319.304,232.851 319.522,231.929 319.523 C 230.298 319.524,227.888 321.253,227.888 322.422 C 227.888 322.799,227.709 323.108,227.490 323.108 C 227.268 323.108,227.092 324.180,227.092 325.529 C 227.092 328.431,229.158 331.076,231.425 331.076 C 232.073 331.076,232.684 331.300,232.783 331.574 C 232.928 331.972,233.132 331.972,233.807 331.574 C 234.271 331.300,235.193 331.076,235.857 331.076 C 236.520 331.076,237.374 330.914,237.754 330.716 C 238.135 330.518,239.253 330.128,240.239 329.849 C 241.225 329.569,242.315 329.103,242.661 328.814 C 243.007 328.524,243.679 328.287,244.155 328.287 C 244.631 328.287,245.020 328.108,245.020 327.888 C 245.020 327.669,245.547 327.490,246.192 327.490 C 246.836 327.490,247.474 327.311,247.610 327.092 C 247.745 326.873,248.209 326.693,248.642 326.693 C 249.074 326.693,249.531 326.424,249.657 326.096 C 249.783 325.767,250.225 325.498,250.640 325.498 C 251.055 325.498,251.394 325.319,251.394 325.100 C 251.394 324.880,251.843 324.701,252.390 324.701 C 252.938 324.701,253.386 324.522,253.386 324.303 C 253.386 324.084,253.745 323.904,254.183 323.904 C 254.622 323.904,254.980 323.725,254.980 323.506 C 254.980 323.287,255.344 323.108,255.789 323.108 C 256.235 323.108,256.702 322.839,256.828 322.510 C 256.954 322.181,257.397 321.912,257.812 321.912 C 258.226 321.912,258.566 321.733,258.566 321.514 C 258.566 321.295,258.835 321.116,259.163 321.116 C 259.492 321.116,259.761 320.936,259.761 320.717 C 259.761 320.498,260.043 320.319,260.387 320.319 C 260.731 320.319,261.263 320.095,261.568 319.821 C 262.840 318.680,263.330 318.327,263.640 318.327 C 263.820 318.327,264.226 317.968,264.542 317.530 C 264.858 317.092,265.333 316.733,265.597 316.733 C 265.862 316.733,266.921 315.926,267.950 314.940 C 268.979 313.954,269.978 313.147,270.169 313.147 C 270.361 313.147,270.518 312.968,270.518 312.748 C 270.518 312.288,273.316 309.562,273.788 309.562 C 273.962 309.562,274.104 309.370,274.104 309.136 C 274.104 308.902,274.910 307.937,275.896 306.993 C 276.882 306.048,277.689 305.024,277.689 304.717 C 277.689 304.411,278.048 303.902,278.486 303.586 C 278.924 303.270,279.283 302.859,279.283 302.672 C 279.283 302.486,279.507 302.084,279.781 301.778 C 281.052 300.360,281.275 299.979,281.275 299.220 C 281.275 298.773,281.454 298.406,281.673 298.406 C 281.892 298.406,282.072 298.137,282.072 297.809 C 282.072 297.480,282.436 296.847,282.881 296.402 C 283.326 295.957,283.797 295.060,283.927 294.410 C 284.057 293.759,284.320 293.227,284.512 293.227 C 284.704 293.227,284.861 292.779,284.861 292.231 C 284.861 291.683,285.040 291.235,285.259 291.235 C 285.478 291.235,285.657 290.608,285.657 289.841 C 285.657 289.074,285.800 288.446,285.974 288.446 C 286.438 288.446,287.649 284.258,287.649 282.654 C 287.649 281.895,287.829 281.275,288.048 281.275 C 288.275 281.275,288.446 280.080,288.446 278.486 C 288.446 276.892,288.617 275.697,288.845 275.697 C 289.356 275.697,289.385 263.653,288.876 263.127 C 288.674 262.919,288.411 261.494,288.293 259.960 C 287.943 255.427,287.588 252.815,287.262 252.390 C 287.094 252.171,286.835 251.320,286.687 250.498 C 286.539 249.676,286.247 249.004,286.038 249.004 C 285.829 249.004,285.657 248.376,285.657 247.610 C 285.657 246.843,285.478 246.215,285.259 246.215 C 285.040 246.215,284.861 245.588,284.861 244.821 C 284.861 244.054,284.681 243.426,284.462 243.426 C 284.243 243.426,284.064 243.006,284.064 242.491 C 284.064 241.486,283.056 239.207,282.445 238.829 C 282.240 238.702,282.072 238.171,282.072 237.649 C 282.072 237.127,281.892 236.590,281.673 236.454 C 281.454 236.319,281.275 235.860,281.275 235.435 C 281.275 235.009,281.096 234.661,280.876 234.661 C 280.657 234.661,280.478 234.297,280.478 233.852 C 280.478 233.407,280.209 232.940,279.880 232.813 C 279.552 232.687,279.283 232.155,279.283 231.631 C 279.283 231.106,279.104 230.677,278.884 230.677 C 278.665 230.677,278.486 230.319,278.486 229.880 C 278.486 229.442,278.307 229.084,278.088 229.084 C 277.869 229.084,277.689 228.787,277.689 228.424 C 277.689 227.774,275.830 225.026,275.216 224.768 C 275.042 224.695,274.900 224.283,274.900 223.853 C 274.900 223.423,274.452 222.623,273.904 222.075 C 273.357 221.528,272.908 220.858,272.908 220.588 C 272.908 220.317,272.550 219.838,272.112 219.522 C 271.673 219.206,271.315 218.629,271.315 218.239 C 271.315 217.849,271.135 217.530,270.916 217.530 C 270.697 217.530,270.518 217.291,270.518 217.000 C 270.518 216.708,270.070 216.229,269.522 215.936 C 268.974 215.643,268.526 215.075,268.526 214.674 C 268.526 214.272,268.347 213.944,268.127 213.944 C 267.908 213.944,267.729 213.752,267.729 213.517 C 267.729 213.017,266.737 211.954,266.264 211.947 C 265.958 211.943,264.143 209.405,264.143 208.982 C 264.143 208.583,253.731 198.406,253.322 198.406 C 253.087 198.406,252.235 197.734,251.429 196.912 C 250.623 196.091,249.458 195.060,248.842 194.622 C 248.225 194.183,247.484 193.601,247.195 193.327 C 246.907 193.053,246.478 192.829,246.244 192.829 C 246.009 192.829,245.817 192.649,245.817 192.430 C 245.817 192.211,245.572 192.032,245.273 192.032 C 244.975 192.032,244.302 191.625,243.779 191.127 C 243.257 190.629,242.336 189.972,241.733 189.665 C 241.130 189.359,240.637 188.959,240.637 188.777 C 240.637 188.595,240.271 188.446,239.823 188.446 C 239.374 188.446,238.578 188.016,238.052 187.491 C 237.527 186.966,236.863 186.452,236.576 186.349 C 236.205 186.217,236.313 185.934,236.952 185.365 C 237.445 184.927,237.849 184.430,237.849 184.261 C 237.849 184.092,238.476 183.418,239.243 182.763 C 240.010 182.108,240.637 181.301,240.637 180.970 C 240.637 180.639,241.265 179.832,242.032 179.177 C 242.799 178.522,243.426 177.690,243.426 177.328 C 243.426 176.966,243.785 176.411,244.223 176.096 C 244.661 175.780,245.020 175.224,245.020 174.861 C 245.020 174.498,245.289 173.978,245.618 173.705 C 245.946 173.432,246.215 172.962,246.215 172.660 C 246.215 172.359,246.394 172.112,246.614 172.112 C 246.833 172.112,247.012 171.764,247.012 171.338 C 247.012 170.913,247.191 170.454,247.410 170.319 C 247.629 170.183,247.809 169.725,247.809 169.299 C 247.809 168.874,247.988 168.526,248.207 168.526 C 248.426 168.526,248.606 168.155,248.606 167.701 C 248.606 167.247,248.875 166.606,249.203 166.278 C 249.532 165.949,249.801 165.245,249.801 164.713 C 249.801 164.180,249.980 163.745,250.199 163.745 C 250.418 163.745,250.598 163.218,250.598 162.573 C 250.598 161.929,250.777 161.291,250.996 161.155 C 251.215 161.020,251.394 160.113,251.394 159.140 C 251.394 158.167,251.574 157.371,251.793 157.371 C 252.012 157.371,252.191 156.502,252.191 155.440 C 252.191 154.378,252.476 152.938,252.824 152.240 C 253.628 150.629,253.516 139.012,252.689 138.187 C 251.970 137.468,252.019 133.068,252.746 133.068 C 253.051 133.068,253.404 133.337,253.531 133.665 C 253.682 134.060,254.306 134.263,255.366 134.263 C 256.249 134.263,256.972 134.442,256.972 134.661 C 256.972 134.905,258.824 135.060,261.729 135.060 C 264.471 135.060,266.591 134.891,266.733 134.661 C 266.868 134.442,267.512 134.263,268.164 134.263 C 268.849 134.263,269.444 134.011,269.577 133.665 C 269.703 133.337,270.146 133.068,270.561 133.068 C 270.975 133.068,271.315 132.888,271.315 132.669 C 271.315 132.450,271.673 132.271,272.112 132.271 C 272.550 132.271,272.908 132.092,272.908 131.873 C 272.908 131.653,273.100 131.474,273.335 131.474 C 273.800 131.474,274.900 130.493,274.900 130.080 C 274.900 129.753,275.960 128.685,276.284 128.685 C 276.697 128.685,278.486 126.757,278.486 126.313 C 278.486 126.084,278.665 125.896,278.884 125.896 C 279.104 125.896,279.283 125.636,279.283 125.319 C 279.283 125.001,279.507 124.597,279.781 124.422 C 283.098 122.300,280.830 114.343,276.908 114.343 C 276.242 114.343,275.697 114.163,275.697 113.944 C 275.697 113.725,275.339 113.546,274.900 113.546 C 274.462 113.546,274.104 113.307,274.104 113.016 C 274.104 112.724,273.655 112.245,273.108 111.952 C 272.560 111.659,272.112 111.091,272.112 110.690 C 272.112 110.288,271.932 109.960,271.713 109.960 C 271.494 109.960,271.315 109.726,271.315 109.441 C 271.315 108.765,269.268 104.622,268.848 104.449 C 268.671 104.376,268.526 103.880,268.526 103.348 C 268.526 102.815,268.347 102.023,268.127 101.588 C 267.908 101.153,267.550 100.441,267.331 100.005 C 267.112 99.570,266.932 98.763,266.932 98.213 C 266.932 97.588,266.707 97.211,266.335 97.211 C 265.917 97.211,265.737 96.791,265.737 95.817 C 265.737 95.050,265.558 94.422,265.339 94.422 C 265.120 94.422,264.940 93.895,264.940 93.251 C 264.940 92.606,264.761 91.968,264.542 91.833 C 264.323 91.697,264.143 91.238,264.143 90.813 C 264.143 90.388,263.964 90.040,263.745 90.040 C 263.526 90.040,263.347 89.703,263.347 89.292 C 263.347 88.880,263.078 88.321,262.749 88.048 C 262.420 87.775,262.151 87.341,262.151 87.082 C 262.151 86.388,261.202 84.469,260.857 84.465 C 260.692 84.464,260.558 84.185,260.558 83.847 C 260.558 83.509,260.110 82.749,259.562 82.158 C 259.014 81.567,258.566 80.950,258.566 80.786 C 258.566 80.505,257.711 79.362,256.739 78.342 C 256.501 78.093,255.829 77.532,255.245 77.097 C 254.661 76.661,254.183 76.143,254.183 75.945 C 254.183 75.472,252.927 74.531,252.274 74.515 C 251.991 74.508,251.375 74.143,250.904 73.705 C 250.434 73.267,249.545 72.908,248.929 72.908 C 248.199 72.908,247.809 72.700,247.809 72.311 C 247.809 71.915,247.413 71.713,246.637 71.713 C 245.993 71.713,245.355 71.534,245.219 71.315 C 245.084 71.096,244.177 70.916,243.204 70.916 C 242.230 70.916,241.434 70.737,241.434 70.518 C 241.434 70.275,239.583 70.120,236.677 70.120 C 233.935 70.120,231.815 70.288,231.673 70.518 M241.578 83.068 C 241.704 83.396,242.172 83.665,242.617 83.665 C 243.062 83.665,243.426 83.845,243.426 84.064 C 243.426 84.283,243.785 84.462,244.223 84.462 C 244.661 84.462,245.020 84.641,245.020 84.861 C 245.020 85.080,245.289 85.259,245.618 85.259 C 245.946 85.259,246.215 85.403,246.215 85.580 C 246.215 86.089,248.866 88.845,249.357 88.845 C 249.601 88.845,249.801 89.131,249.801 89.480 C 249.801 89.830,250.122 90.592,250.515 91.174 C 250.907 91.755,251.576 92.903,252.000 93.725 C 252.424 94.547,252.909 95.219,253.079 95.219 C 253.248 95.219,253.386 95.670,253.386 96.221 C 253.386 96.771,253.594 97.623,253.847 98.113 C 254.855 100.062,254.980 100.425,254.980 101.389 C 254.980 102.014,255.205 102.390,255.578 102.390 C 255.995 102.390,256.175 102.811,256.175 103.785 C 256.175 104.552,256.355 105.179,256.574 105.179 C 256.793 105.179,256.972 105.630,256.972 106.181 C 256.972 106.731,257.151 107.538,257.371 107.974 C 257.590 108.409,257.948 109.121,258.167 109.556 C 258.386 109.992,258.566 110.798,258.566 111.349 C 258.566 111.974,258.791 112.351,259.163 112.351 C 259.535 112.351,259.761 112.727,259.761 113.347 C 259.761 113.894,259.940 114.343,260.159 114.343 C 260.378 114.343,260.558 114.701,260.558 115.139 C 260.558 115.578,260.737 115.936,260.956 115.936 C 261.175 115.936,261.355 116.308,261.355 116.762 C 261.355 117.644,262.217 118.725,262.920 118.725 C 263.155 118.725,263.347 119.084,263.347 119.522 C 263.347 119.960,263.526 120.319,263.745 120.319 C 263.964 120.319,264.143 120.767,264.143 121.315 C 264.143 122.282,264.064 122.311,261.355 122.311 C 259.761 122.311,258.566 122.140,258.566 121.912 C 258.566 121.693,258.038 121.514,257.394 121.514 C 256.750 121.514,256.112 121.335,255.976 121.116 C 255.841 120.896,255.382 120.717,254.957 120.717 C 254.531 120.717,254.183 120.550,254.183 120.346 C 254.183 120.141,253.780 119.847,253.287 119.691 C 252.794 119.535,252.100 119.075,251.746 118.668 C 251.392 118.261,250.809 117.928,250.451 117.928 C 250.094 117.928,249.801 117.749,249.801 117.530 C 249.801 117.311,249.532 117.131,249.203 117.131 C 248.875 117.131,248.606 116.893,248.606 116.601 C 248.606 116.310,248.157 115.831,247.610 115.538 C 247.062 115.245,246.614 114.856,246.614 114.674 C 246.614 114.492,246.332 114.343,245.987 114.343 C 245.272 114.343,244.223 113.412,244.223 112.777 C 244.223 112.543,243.865 112.351,243.426 112.351 C 242.988 112.351,242.629 112.179,242.629 111.970 C 242.629 111.761,242.181 111.142,241.633 110.594 C 241.086 110.046,240.637 109.487,240.637 109.352 C 240.637 108.947,239.531 107.968,239.072 107.968 C 238.838 107.968,238.645 107.701,238.645 107.374 C 238.645 107.046,237.480 105.631,236.056 104.227 C 234.631 102.824,233.466 101.399,233.466 101.060 C 233.466 100.722,233.312 100.350,233.124 100.234 C 232.936 100.118,232.680 98.901,232.556 97.531 C 232.432 96.161,232.138 94.975,231.902 94.897 C 231.242 94.677,231.363 88.727,232.054 87.383 C 232.374 86.763,232.867 85.670,233.150 84.955 C 233.433 84.241,233.979 83.556,234.362 83.435 C 234.746 83.313,235.060 83.046,235.060 82.842 C 235.060 82.170,241.317 82.387,241.578 83.068 M204.582 101.195 C 204.717 101.414,205.524 101.594,206.375 101.594 C 207.225 101.594,208.032 101.773,208.167 101.992 C 208.303 102.211,208.922 102.390,209.543 102.390 C 210.179 102.390,210.772 102.651,210.901 102.988 C 211.035 103.337,211.632 103.586,212.338 103.586 C 213.002 103.586,213.546 103.765,213.546 103.984 C 213.546 104.203,213.994 104.382,214.542 104.382 C 215.090 104.382,215.538 104.562,215.538 104.781 C 215.538 105.000,215.896 105.179,216.335 105.179 C 216.773 105.179,217.131 105.359,217.131 105.578 C 217.131 105.797,217.580 105.976,218.127 105.976 C 218.721 105.976,219.124 106.204,219.124 106.540 C 219.124 106.851,219.661 107.343,220.319 107.634 C 220.976 107.925,221.514 108.298,221.514 108.464 C 221.514 108.629,221.783 108.765,222.112 108.765 C 222.440 108.765,222.710 108.899,222.712 109.064 C 222.713 109.228,223.379 109.811,224.190 110.359 C 225.849 111.478,227.888 113.489,227.888 114.003 C 227.888 114.190,228.076 114.343,228.305 114.343 C 228.827 114.343,230.677 116.166,230.677 116.681 C 230.677 116.891,231.305 117.709,232.072 118.499 C 232.839 119.289,233.466 120.167,233.466 120.450 C 233.466 120.733,233.803 121.327,234.214 121.768 C 234.626 122.210,235.086 122.961,235.237 123.437 C 235.388 123.913,235.679 124.303,235.883 124.303 C 236.088 124.303,236.255 124.661,236.255 125.100 C 236.255 125.538,236.434 125.896,236.653 125.896 C 236.873 125.896,237.052 126.345,237.052 126.892 C 237.052 127.440,237.231 127.888,237.450 127.888 C 237.669 127.888,237.849 128.247,237.849 128.685 C 237.849 129.124,238.028 129.482,238.247 129.482 C 238.466 129.482,238.645 129.917,238.645 130.450 C 238.645 130.982,238.914 131.686,239.243 132.015 C 239.579 132.350,239.841 133.324,239.841 134.234 C 239.841 135.127,240.020 135.857,240.239 135.857 C 240.464 135.857,240.637 136.985,240.637 138.446 C 240.637 139.907,240.811 141.036,241.036 141.036 C 241.275 141.036,241.434 142.622,241.434 144.996 C 241.434 147.207,241.258 149.066,241.036 149.203 C 240.817 149.339,240.637 150.515,240.637 151.816 L 240.637 154.183 239.286 154.183 C 238.452 154.183,237.846 153.954,237.705 153.586 C 237.543 153.165,236.888 152.988,235.494 152.988 C 234.405 152.988,233.402 152.809,233.267 152.590 C 233.132 152.371,232.314 152.191,231.451 152.191 C 230.587 152.191,229.880 152.012,229.880 151.793 C 229.880 151.574,229.432 151.394,228.884 151.394 C 228.337 151.394,227.888 151.215,227.888 150.996 C 227.888 150.777,227.261 150.598,226.494 150.598 C 225.520 150.598,225.100 150.417,225.100 150.000 C 225.100 149.668,224.745 149.402,224.303 149.402 C 223.865 149.402,223.506 149.223,223.506 149.004 C 223.506 148.785,223.058 148.606,222.510 148.606 C 221.962 148.606,221.514 148.426,221.514 148.207 C 221.514 147.988,221.155 147.809,220.717 147.809 C 220.279 147.809,219.920 147.649,219.920 147.454 C 219.920 147.258,219.472 146.986,218.924 146.848 C 218.376 146.711,217.928 146.422,217.928 146.208 C 217.928 145.993,217.570 145.817,217.131 145.817 C 216.693 145.817,216.335 145.637,216.335 145.418 C 216.335 145.199,216.066 145.020,215.737 145.020 C 215.408 145.020,215.139 144.841,215.139 144.622 C 215.139 144.402,214.781 144.223,214.343 144.223 C 213.904 144.223,213.546 144.056,213.546 143.852 C 213.546 143.647,213.142 143.353,212.649 143.197 C 212.156 143.041,211.484 142.612,211.155 142.244 C 210.827 141.875,209.975 141.319,209.263 141.008 C 208.551 140.697,207.968 140.233,207.968 139.976 C 207.968 139.719,207.430 139.271,206.773 138.980 C 206.116 138.689,205.578 138.315,205.578 138.150 C 205.578 137.984,205.386 137.849,205.153 137.849 C 204.919 137.849,204.136 137.221,203.412 136.454 C 202.689 135.687,201.900 135.060,201.660 135.060 C 201.419 135.060,199.079 132.929,196.459 130.324 C 193.840 127.719,191.117 125.299,190.408 124.945 C 188.993 124.239,185.657 124.068,185.657 124.701 C 185.657 124.920,185.356 125.100,184.988 125.100 C 184.620 125.100,182.917 126.534,181.203 128.287 C 179.490 130.040,177.909 131.474,177.689 131.474 C 177.470 131.474,177.291 131.653,177.291 131.873 C 177.291 132.092,177.035 132.271,176.722 132.271 C 176.409 132.271,175.801 132.719,175.370 133.267 C 174.939 133.815,174.332 134.263,174.022 134.263 C 173.711 134.263,173.072 134.622,172.602 135.060 C 172.131 135.498,171.479 135.857,171.152 135.857 C 170.825 135.857,170.414 136.081,170.239 136.355 C 169.847 136.967,168.650 137.648,164.536 139.597 C 163.328 140.169,162.118 140.637,161.847 140.637 C 161.576 140.637,161.355 140.817,161.355 141.036 C 161.355 141.255,160.906 141.434,160.359 141.434 C 159.811 141.434,159.363 141.614,159.363 141.833 C 159.363 142.052,158.835 142.231,158.191 142.231 C 157.546 142.231,156.908 142.410,156.773 142.629 C 156.637 142.849,156.192 143.028,155.782 143.028 C 155.372 143.028,154.768 143.297,154.439 143.625 C 154.111 143.954,153.277 144.223,152.588 144.223 L 151.334 144.223 151.545 141.135 C 151.877 136.285,152.238 133.865,152.628 133.865 C 152.826 133.865,152.988 133.237,152.988 132.470 C 152.988 131.703,153.167 131.076,153.386 131.076 C 153.606 131.076,153.785 130.557,153.785 129.923 C 153.785 129.266,154.042 128.672,154.382 128.541 C 154.711 128.415,154.980 128.043,154.980 127.714 C 154.980 127.385,155.339 126.477,155.777 125.697 C 156.215 124.917,156.574 124.015,156.574 123.693 C 156.574 123.371,156.753 123.108,156.972 123.108 C 157.191 123.108,157.371 122.749,157.371 122.311 C 157.371 121.868,157.636 121.514,157.968 121.514 C 158.297 121.514,158.566 121.245,158.566 120.916 C 158.566 120.588,158.745 120.319,158.964 120.319 C 159.183 120.319,159.363 120.026,159.363 119.668 C 159.363 119.310,159.686 118.728,160.080 118.373 C 160.475 118.019,161.327 117.018,161.973 116.149 C 163.450 114.161,166.019 111.554,166.500 111.554 C 166.701 111.554,167.732 110.747,168.790 109.761 C 169.849 108.775,170.947 107.968,171.231 107.968 C 171.715 107.968,172.136 107.690,173.491 106.474 C 173.797 106.200,174.239 105.976,174.474 105.976 C 174.708 105.976,174.900 105.797,174.900 105.578 C 174.900 105.359,175.259 105.179,175.697 105.179 C 176.135 105.179,176.494 105.000,176.494 104.781 C 176.494 104.562,176.932 104.382,177.467 104.382 C 178.001 104.382,178.550 104.203,178.685 103.984 C 178.821 103.765,179.369 103.586,179.904 103.586 C 180.503 103.586,180.876 103.356,180.876 102.988 C 180.876 102.571,181.297 102.390,182.271 102.390 C 183.038 102.390,183.665 102.211,183.665 101.992 C 183.665 101.773,184.551 101.594,185.634 101.594 C 186.717 101.594,187.713 101.414,187.849 101.195 C 188.000 100.951,191.231 100.797,196.215 100.797 C 201.199 100.797,204.431 100.951,204.582 101.195 M188.446 139.786 C 188.446 140.351,190.501 142.231,191.119 142.231 C 191.697 142.231,192.829 143.154,192.829 143.625 C 192.829 143.999,193.910 145.020,194.306 145.020 C 194.492 145.020,194.903 145.378,195.219 145.817 C 195.535 146.255,196.112 146.614,196.502 146.614 C 196.892 146.614,197.211 146.882,197.211 147.211 C 197.211 147.540,197.441 147.809,197.721 147.809 C 198.001 147.809,198.489 148.167,198.805 148.606 C 199.121 149.044,199.596 149.402,199.860 149.402 C 200.125 149.402,201.007 150.030,201.820 150.797 C 202.633 151.564,203.543 152.191,203.841 152.191 C 204.139 152.191,204.382 152.371,204.382 152.590 C 204.382 152.809,204.716 152.988,205.123 152.988 C 205.531 152.988,206.201 153.436,206.612 153.984 C 207.024 154.532,207.727 154.980,208.174 154.980 C 208.621 154.980,209.246 155.339,209.562 155.777 C 209.878 156.215,210.545 156.574,211.044 156.574 C 211.586 156.574,211.952 156.815,211.952 157.171 C 211.952 157.503,212.306 157.769,212.749 157.769 C 213.187 157.769,213.546 157.948,213.546 158.167 C 213.546 158.386,213.994 158.566,214.542 158.566 C 215.090 158.566,215.538 158.745,215.538 158.964 C 215.538 159.183,215.896 159.363,216.335 159.363 C 216.773 159.363,217.131 159.542,217.131 159.761 C 217.131 159.980,217.580 160.159,218.127 160.159 C 218.747 160.159,219.124 160.385,219.124 160.757 C 219.124 161.153,219.519 161.355,220.295 161.355 C 220.940 161.355,221.578 161.534,221.713 161.753 C 221.849 161.972,222.307 162.151,222.733 162.151 C 223.158 162.151,223.506 162.331,223.506 162.550 C 223.506 162.769,224.057 162.948,224.730 162.948 C 225.403 162.948,226.222 163.217,226.551 163.546 C 226.880 163.875,227.663 164.143,228.292 164.143 C 228.921 164.143,229.546 164.323,229.681 164.542 C 229.817 164.761,230.544 164.940,231.298 164.940 C 232.052 164.940,232.669 165.120,232.669 165.339 C 232.669 165.558,233.476 165.737,234.462 165.737 C 236.553 165.737,236.565 165.759,235.259 167.169 C 234.711 167.760,234.263 168.487,234.263 168.783 C 234.263 169.080,234.117 169.323,233.939 169.323 C 233.761 169.323,233.369 169.950,233.068 170.717 C 232.767 171.484,232.285 172.112,231.997 172.112 C 231.710 172.112,231.474 172.282,231.474 172.491 C 231.474 172.938,225.368 179.283,224.938 179.283 C 224.494 179.283,223.506 180.363,223.506 180.848 C 223.506 181.083,223.147 181.275,222.709 181.275 C 222.271 181.275,221.912 181.454,221.912 181.673 C 221.912 181.892,221.643 182.072,221.315 182.072 C 220.986 182.072,220.717 182.251,220.717 182.470 C 220.717 182.689,220.491 182.869,220.215 182.869 C 219.939 182.869,219.230 183.317,218.639 183.865 C 218.048 184.412,217.288 184.861,216.950 184.861 C 216.611 184.861,216.335 185.040,216.335 185.259 C 216.335 185.478,215.886 185.657,215.339 185.657 C 214.791 185.657,214.343 185.837,214.343 186.056 C 214.343 186.275,213.997 186.454,213.574 186.454 C 213.152 186.454,212.537 186.723,212.208 187.052 C 211.880 187.380,211.239 187.649,210.785 187.649 C 210.332 187.649,209.960 187.829,209.960 188.048 C 209.960 188.267,209.279 188.446,208.446 188.446 C 207.614 188.446,206.762 188.608,206.554 188.806 C 205.640 189.674,190.682 190.443,189.901 189.662 C 189.671 189.432,188.632 189.243,187.593 189.243 C 186.554 189.243,185.594 189.064,185.458 188.845 C 185.323 188.625,184.595 188.446,183.841 188.446 C 183.087 188.446,182.470 188.267,182.470 188.048 C 182.470 187.829,182.009 187.649,181.446 187.649 C 180.882 187.649,180.152 187.380,179.824 187.052 C 179.495 186.723,178.791 186.454,178.258 186.454 C 177.726 186.454,177.291 186.275,177.291 186.056 C 177.291 185.837,176.932 185.657,176.494 185.657 C 176.056 185.657,175.697 185.478,175.697 185.259 C 175.697 185.040,175.428 184.861,175.100 184.861 C 174.771 184.861,174.502 184.681,174.502 184.462 C 174.502 184.243,174.255 184.064,173.953 184.064 C 173.651 184.064,173.181 183.795,172.908 183.466 C 172.636 183.137,172.115 182.869,171.752 182.869 C 171.389 182.869,170.834 182.510,170.518 182.072 C 170.202 181.633,169.729 181.275,169.466 181.275 C 168.757 181.275,160.159 172.639,160.159 171.927 C 160.159 171.590,160.025 171.311,159.861 171.306 C 159.696 171.301,159.024 170.495,158.367 169.514 C 157.709 168.533,157.037 167.730,156.873 167.730 C 156.708 167.729,156.574 167.281,156.574 166.733 C 156.574 166.185,156.394 165.737,156.175 165.737 C 155.956 165.737,155.777 165.378,155.777 164.940 C 155.777 164.502,155.598 164.143,155.378 164.143 C 155.159 164.143,154.980 163.779,154.980 163.334 C 154.980 162.889,154.711 162.422,154.382 162.295 C 154.046 162.166,153.785 161.573,153.785 160.937 C 153.785 160.316,153.606 159.697,153.386 159.562 C 152.211 158.836,152.965 156.574,154.382 156.574 C 155.149 156.574,155.777 156.394,155.777 156.175 C 155.777 155.956,156.304 155.777,156.949 155.777 C 157.593 155.777,158.231 155.598,158.367 155.378 C 158.502 155.159,159.140 154.980,159.784 154.980 C 160.429 154.980,160.956 154.801,160.956 154.582 C 160.956 154.363,161.392 154.183,161.924 154.183 C 162.456 154.183,163.160 153.914,163.489 153.586 C 163.818 153.257,164.458 152.988,164.912 152.988 C 165.366 152.988,165.737 152.809,165.737 152.590 C 165.737 152.371,166.096 152.191,166.534 152.191 C 166.972 152.191,167.331 152.012,167.331 151.793 C 167.331 151.574,167.676 151.394,168.099 151.394 C 168.859 151.394,173.952 148.912,174.681 148.186 C 174.889 147.978,175.382 147.809,175.777 147.809 C 176.171 147.809,176.494 147.540,176.494 147.211 C 176.494 146.879,176.848 146.614,177.291 146.614 C 177.729 146.614,178.088 146.434,178.088 146.215 C 178.088 145.996,178.357 145.817,178.685 145.817 C 179.014 145.817,179.283 145.637,179.283 145.418 C 179.283 145.199,179.576 145.020,179.934 145.020 C 180.293 145.020,181.001 144.572,181.509 144.024 C 182.017 143.476,182.670 143.028,182.961 143.028 C 183.252 143.028,183.748 142.669,184.064 142.231 C 184.380 141.793,184.785 141.434,184.965 141.434 C 185.294 141.434,186.078 140.856,186.971 139.955 C 187.530 139.392,188.446 139.287,188.446 139.786 M378.088 178.884 C 378.088 179.542,378.267 180.080,378.486 180.080 C 378.729 180.080,378.884 181.873,378.884 184.661 C 378.884 188.977,378.931 189.243,379.681 189.243 C 380.432 189.243,380.478 188.977,380.478 184.661 C 380.478 181.120,380.358 180.080,379.949 180.080 C 379.589 180.080,379.477 179.700,379.596 178.884 C 379.744 177.878,379.639 177.689,378.930 177.689 C 378.260 177.689,378.088 177.933,378.088 178.884 M214.343 255.777 C 214.343 255.996,213.636 256.175,212.773 256.175 C 211.909 256.175,211.092 256.355,210.956 256.574 C 210.821 256.793,210.362 256.972,209.937 256.972 C 209.511 256.972,209.163 257.151,209.163 257.371 C 209.163 257.590,208.900 257.769,208.579 257.769 C 208.258 257.769,207.367 258.396,206.600 259.163 C 205.833 259.930,205.021 260.558,204.794 260.558 C 204.568 260.558,204.382 260.710,204.382 260.897 C 204.382 261.084,203.845 261.799,203.187 262.487 C 202.530 263.175,201.992 264.098,201.992 264.538 C 201.992 264.984,201.727 265.339,201.394 265.339 C 201.062 265.339,200.797 265.693,200.797 266.135 C 200.797 266.574,200.618 266.932,200.398 266.932 C 200.164 266.932,200.000 268.336,200.000 270.347 C 200.000 273.707,200.410 274.900,201.565 274.900 C 201.800 274.900,201.992 275.169,201.992 275.498 C 201.992 275.827,202.340 276.096,202.765 276.096 C 203.191 276.096,203.649 276.275,203.785 276.494 C 203.920 276.713,204.637 276.892,205.378 276.892 C 206.120 276.892,206.837 276.713,206.972 276.494 C 207.108 276.275,207.502 276.096,207.849 276.096 C 208.637 276.096,210.757 273.920,210.757 273.111 C 210.757 272.781,210.936 272.510,211.155 272.510 C 211.375 272.510,211.554 272.241,211.554 271.912 C 211.554 271.584,211.721 271.315,211.925 271.315 C 212.130 271.315,212.411 270.956,212.550 270.518 C 212.689 270.080,213.149 269.721,213.573 269.721 C 213.996 269.721,214.343 269.561,214.343 269.366 C 214.343 269.171,214.791 268.898,215.339 268.761 C 215.886 268.623,216.335 268.335,216.335 268.120 C 216.335 267.441,223.862 267.630,224.559 268.327 C 224.988 268.756,226.034 268.924,228.273 268.924 C 230.675 268.924,231.441 268.787,231.618 268.327 C 231.744 267.998,232.167 267.728,232.557 267.726 C 233.276 267.723,234.263 266.111,234.263 264.940 C 234.263 264.590,234.478 264.088,234.741 263.825 C 235.113 263.453,235.113 263.240,234.741 262.869 C 234.478 262.606,234.263 261.881,234.263 261.258 C 234.263 260.198,233.967 259.636,232.783 258.452 C 231.620 257.290,231.049 256.972,230.120 256.972 C 229.576 256.972,229.020 256.793,228.884 256.574 C 228.749 256.355,227.842 256.175,226.869 256.175 C 225.896 256.175,225.100 255.996,225.100 255.777 C 225.100 255.531,223.041 255.378,219.721 255.378 C 216.401 255.378,214.343 255.531,214.343 255.777 "></path><path id="path1" d=""></path><path id="path2" d="" ></path><path id="path3" d="" ></path><path id="path4" d=""></path></g></svg>