<svg id="svg" version="1.1" xmlns="http://www.w3.org/2000/svg" xmlns:xlink="http://www.w3.org/1999/xlink" width="400" height="397.9166666666667" viewBox="0, 0, 400,397.9166666666667"><g id="svgg"><path id="path0" d="M208.725 19.211 C 208.270 19.700,207.644 20.682,207.334 21.393 C 207.024 22.104,206.662 22.687,206.529 22.687 C 206.150 22.687,203.781 26.655,203.781 27.290 C 203.781 27.604,203.512 27.861,203.184 27.861 C 202.856 27.861,202.587 28.141,202.587 28.484 C 202.587 28.827,202.139 29.695,201.592 30.412 C 201.045 31.130,200.597 32.013,200.597 32.376 C 200.597 32.738,200.373 33.036,200.100 33.038 C 199.586 33.041,198.607 34.788,198.607 35.701 C 198.607 35.986,198.338 36.219,198.010 36.219 C 197.682 36.219,197.413 36.568,197.413 36.995 C 197.413 37.422,197.189 37.915,196.915 38.090 C 196.264 38.507,195.423 40.028,195.423 40.791 C 195.423 41.122,195.199 41.394,194.925 41.396 C 194.469 41.399,193.433 43.110,193.433 43.860 C 193.433 44.036,193.119 44.524,192.736 44.947 C 191.554 46.249,191.242 46.715,190.516 48.259 C 190.129 49.080,189.643 49.751,189.434 49.751 C 189.225 49.751,189.055 50.032,189.055 50.375 C 189.055 50.718,188.607 51.585,188.060 52.303 C 187.512 53.020,187.065 53.904,187.065 54.266 C 187.065 54.629,186.841 54.927,186.567 54.928 C 186.053 54.932,185.075 56.678,185.075 57.592 C 185.075 57.877,184.806 58.109,184.478 58.109 C 184.149 58.109,183.881 58.337,183.881 58.614 C 183.881 58.892,183.433 59.778,182.886 60.583 C 182.338 61.388,181.891 62.325,181.891 62.665 C 181.891 63.005,181.725 63.284,181.522 63.284 C 181.319 63.284,180.898 63.776,180.587 64.378 C 179.188 67.081,178.486 68.268,178.212 68.390 C 178.050 68.463,177.609 69.179,177.233 69.982 C 176.856 70.786,176.317 71.679,176.035 71.969 C 175.753 72.258,175.522 72.751,175.522 73.063 C 175.522 73.376,175.375 73.632,175.195 73.632 C 174.912 73.632,174.161 74.881,172.542 78.039 C 172.326 78.461,172.013 78.806,171.846 78.806 C 171.679 78.806,171.542 79.145,171.542 79.559 C 171.542 79.974,171.274 80.416,170.945 80.542 C 170.617 80.668,170.348 81.045,170.348 81.381 C 170.348 81.716,170.173 81.990,169.958 81.990 C 169.743 81.990,169.455 82.438,169.318 82.985 C 169.180 83.532,168.908 83.980,168.713 83.980 C 168.518 83.980,168.358 84.344,168.358 84.789 C 168.358 85.233,168.090 85.700,167.761 85.826 C 167.433 85.952,167.164 86.232,167.164 86.449 C 167.164 86.665,166.761 87.404,166.269 88.090 C 165.064 89.767,164.441 90.806,164.139 91.642 C 164.001 92.025,163.729 92.338,163.536 92.338 C 163.342 92.338,163.184 92.702,163.184 93.147 C 163.184 93.592,162.915 94.058,162.587 94.184 C 162.259 94.310,161.990 94.675,161.990 94.995 C 161.990 95.314,161.542 96.163,160.995 96.880 C 160.448 97.598,160.000 98.481,160.000 98.844 C 160.000 99.206,159.834 99.502,159.631 99.502 C 159.218 99.502,158.010 101.741,158.010 102.506 C 158.010 102.777,157.741 103.103,157.413 103.229 C 157.085 103.355,156.816 103.732,156.816 104.067 C 156.816 104.402,156.640 104.677,156.425 104.677 C 156.211 104.677,155.923 105.124,155.785 105.672 C 155.648 106.219,155.376 106.667,155.181 106.667 C 154.986 106.667,154.826 107.025,154.826 107.463 C 154.826 107.900,154.659 108.259,154.455 108.259 C 154.251 108.259,153.958 108.653,153.805 109.136 C 153.652 109.618,153.282 110.258,152.982 110.557 C 152.683 110.857,152.438 111.357,152.438 111.670 C 152.438 111.983,152.259 112.239,152.040 112.239 C 151.821 112.239,151.642 112.495,151.642 112.807 C 151.642 113.120,151.418 113.620,151.144 113.917 C 150.366 114.764,149.652 116.149,149.652 116.811 C 149.652 117.142,149.383 117.413,149.055 117.413 C 148.726 117.413,148.458 117.761,148.458 118.185 C 148.458 118.610,148.278 119.069,148.059 119.205 C 147.839 119.340,147.296 120.202,146.851 121.119 C 146.406 122.036,145.703 123.323,145.289 123.980 C 144.875 124.637,144.523 125.555,144.507 126.021 C 144.491 126.487,144.209 127.091,143.881 127.363 C 143.543 127.643,143.284 128.511,143.284 129.359 C 143.284 130.326,143.071 130.942,142.687 131.089 C 142.295 131.240,142.090 131.861,142.090 132.899 C 142.090 133.769,141.910 134.591,141.692 134.726 C 141.473 134.862,141.294 135.870,141.294 136.967 C 141.294 138.210,141.068 139.187,140.697 139.559 C 140.261 139.995,140.100 141.056,140.100 143.478 C 140.100 145.648,139.939 146.853,139.637 146.954 C 138.956 147.180,138.923 157.283,139.602 157.511 C 139.957 157.631,140.100 158.862,140.100 161.824 C 140.100 165.244,140.204 165.970,140.697 165.970 C 141.166 165.970,141.294 166.523,141.294 168.557 C 141.294 170.017,141.467 171.144,141.692 171.144 C 141.910 171.144,142.090 171.777,142.090 172.550 C 142.090 173.432,142.312 174.041,142.687 174.184 C 143.076 174.334,143.284 174.953,143.284 175.963 C 143.284 177.075,143.452 177.512,143.881 177.512 C 144.248 177.512,144.478 177.886,144.478 178.484 C 144.478 179.018,144.657 179.566,144.876 179.701 C 145.095 179.837,145.274 180.480,145.274 181.131 C 145.274 181.815,145.525 182.410,145.871 182.543 C 146.199 182.669,146.468 183.200,146.468 183.724 C 146.468 184.248,146.647 184.677,146.866 184.677 C 147.085 184.677,147.264 184.918,147.264 185.214 C 147.264 185.509,147.801 186.493,148.458 187.400 C 149.114 188.306,149.652 189.318,149.652 189.648 C 149.652 189.979,149.786 190.251,149.950 190.255 C 150.114 190.258,150.876 191.330,151.642 192.637 C 152.408 193.944,153.169 195.016,153.333 195.019 C 153.498 195.022,153.632 195.294,153.632 195.622 C 153.632 195.950,153.900 196.219,154.229 196.219 C 154.557 196.219,154.826 196.400,154.826 196.622 C 154.826 197.608,164.979 207.761,165.965 207.761 C 166.187 207.761,166.368 207.996,166.368 208.284 C 166.368 208.571,166.995 209.053,167.761 209.353 C 168.527 209.654,169.154 210.031,169.154 210.191 C 169.154 210.351,169.826 210.892,170.647 211.393 C 171.468 211.894,172.199 212.446,172.272 212.620 C 172.345 212.793,172.837 212.935,173.367 212.935 C 173.896 212.935,174.328 213.105,174.328 213.312 C 174.328 213.683,175.860 214.664,177.214 215.161 C 177.597 215.301,177.910 215.574,177.910 215.768 C 177.910 215.961,178.281 216.119,178.735 216.119 C 179.188 216.119,179.828 216.388,180.156 216.716 C 180.485 217.045,181.188 217.313,181.720 217.313 C 182.252 217.313,182.687 217.493,182.687 217.711 C 182.687 217.930,183.224 218.109,183.881 218.109 C 184.677 218.109,185.075 218.308,185.075 218.706 C 185.075 219.126,185.498 219.303,186.496 219.303 C 187.278 219.303,188.186 219.572,188.515 219.900 C 188.843 220.229,189.715 220.498,190.453 220.498 C 191.190 220.498,191.905 220.677,192.040 220.896 C 192.175 221.114,193.184 221.294,194.281 221.294 C 195.523 221.294,196.501 221.519,196.873 221.891 C 197.329 222.347,198.475 222.488,201.740 222.488 C 204.359 222.488,206.182 222.660,206.455 222.933 C 207.048 223.526,214.046 223.526,214.639 222.933 C 214.910 222.662,216.691 222.488,219.184 222.488 C 222.563 222.488,223.284 222.383,223.284 221.891 C 223.284 221.421,223.836 221.294,225.871 221.294 C 227.330 221.294,228.458 221.120,228.458 220.896 C 228.458 220.677,229.174 220.498,230.050 220.498 C 231.200 220.498,231.642 220.332,231.642 219.900 C 231.642 219.471,232.081 219.303,233.205 219.303 C 234.065 219.303,235.038 219.035,235.366 218.706 C 235.694 218.378,236.424 218.109,236.986 218.109 C 237.549 218.109,238.010 217.930,238.010 217.711 C 238.010 217.493,238.458 217.313,239.005 217.313 C 239.624 217.313,240.000 217.088,240.000 216.716 C 240.000 216.345,240.376 216.119,240.995 216.119 C 241.542 216.119,241.990 215.940,241.990 215.721 C 241.990 215.502,242.443 215.323,242.998 215.323 C 243.552 215.323,244.108 215.055,244.234 214.726 C 244.360 214.398,244.892 214.129,245.416 214.129 C 245.997 214.129,246.368 213.897,246.368 213.532 C 246.368 213.188,246.728 212.935,247.218 212.935 C 247.685 212.935,248.483 212.488,248.990 211.940 C 249.497 211.393,250.195 210.945,250.541 210.945 C 250.886 210.945,251.272 210.677,251.398 210.348 C 251.524 210.020,251.834 209.751,252.087 209.751 C 252.340 209.751,252.884 209.303,253.295 208.756 C 253.706 208.209,254.310 207.761,254.637 207.761 C 254.964 207.761,255.647 207.313,256.154 206.766 C 256.661 206.219,257.264 205.771,257.493 205.771 C 257.723 205.771,257.910 205.579,257.910 205.345 C 257.910 204.794,258.923 203.781,259.474 203.781 C 259.709 203.781,259.900 203.512,259.900 203.184 C 259.900 202.856,260.139 202.587,260.430 202.587 C 260.722 202.587,261.200 202.139,261.493 201.592 C 261.785 201.045,262.263 200.597,262.555 200.597 C 262.846 200.597,263.085 200.421,263.085 200.206 C 263.085 199.991,263.701 199.181,264.454 198.405 C 265.207 197.630,265.935 196.642,266.073 196.209 C 266.210 195.777,266.489 195.423,266.693 195.423 C 266.898 195.423,267.065 195.154,267.065 194.826 C 267.065 194.498,267.333 194.229,267.662 194.229 C 267.990 194.229,268.259 193.960,268.259 193.632 C 268.259 193.303,268.434 193.035,268.649 193.035 C 268.864 193.035,269.152 192.587,269.289 192.040 C 269.427 191.493,269.699 191.045,269.894 191.045 C 270.089 191.045,270.249 190.776,270.249 190.448 C 270.249 190.119,270.424 189.851,270.639 189.851 C 270.854 189.851,271.142 189.403,271.279 188.856 C 271.417 188.308,271.689 187.861,271.884 187.861 C 272.079 187.861,272.239 187.413,272.239 186.866 C 272.239 186.247,272.464 185.871,272.836 185.871 C 273.200 185.871,273.433 185.499,273.433 184.918 C 273.433 184.394,273.701 183.863,274.030 183.737 C 274.358 183.611,274.627 183.154,274.627 182.723 C 274.627 182.291,274.806 181.827,275.025 181.692 C 275.244 181.556,275.423 181.030,275.423 180.523 C 275.423 180.015,275.692 179.377,276.020 179.104 C 276.348 178.832,276.617 178.194,276.617 177.686 C 276.617 177.179,276.796 176.653,277.015 176.517 C 277.234 176.382,277.413 175.674,277.413 174.944 C 277.413 174.132,277.644 173.529,278.010 173.388 C 278.429 173.228,278.607 172.574,278.607 171.199 C 278.607 169.824,278.785 169.171,279.204 169.010 C 279.643 168.842,279.801 168.147,279.801 166.381 C 279.801 165.046,279.978 163.980,280.199 163.980 C 280.455 163.980,280.597 160.133,280.597 153.234 C 280.597 146.335,280.455 142.488,280.199 142.488 C 279.970 142.488,279.801 141.243,279.801 139.551 C 279.801 137.427,279.636 136.478,279.204 136.119 C 278.838 135.816,278.607 134.943,278.607 133.869 C 278.607 132.676,278.416 132.041,278.010 131.885 C 277.623 131.737,277.413 131.119,277.413 130.130 C 277.413 129.291,277.234 128.493,277.015 128.358 C 276.796 128.223,276.617 127.596,276.617 126.965 C 276.617 126.334,276.448 125.714,276.242 125.587 C 276.036 125.459,275.467 124.553,274.978 123.573 C 274.488 122.593,273.940 121.791,273.760 121.791 C 273.580 121.791,273.433 121.443,273.433 121.019 C 273.433 120.594,273.253 120.135,273.034 119.999 C 272.814 119.864,272.270 119.002,271.825 118.085 C 271.380 117.168,270.479 115.522,269.823 114.428 C 269.168 113.333,268.516 112.169,268.375 111.841 C 268.235 111.512,267.882 111.101,267.592 110.925 C 267.302 110.750,267.065 110.258,267.065 109.831 C 267.065 109.404,266.906 109.055,266.713 109.055 C 266.520 109.055,266.253 108.741,266.121 108.358 C 265.988 107.975,265.518 107.124,265.075 106.468 C 264.632 105.811,264.161 104.960,264.029 104.577 C 263.896 104.194,263.649 103.881,263.479 103.881 C 263.310 103.881,263.058 103.433,262.921 102.886 C 262.784 102.338,262.496 101.891,262.281 101.891 C 262.066 101.891,261.891 101.618,261.891 101.286 C 261.891 100.953,261.443 99.971,260.896 99.104 C 260.348 98.238,259.900 97.346,259.900 97.122 C 259.900 96.899,259.726 96.716,259.512 96.716 C 259.299 96.716,258.759 95.955,258.311 95.025 C 257.457 93.247,257.025 92.502,255.721 90.557 C 254.687 89.014,254.328 88.403,253.163 86.203 C 252.632 85.199,252.050 84.378,251.870 84.378 C 251.690 84.378,251.542 84.020,251.542 83.582 C 251.542 83.144,251.368 82.786,251.154 82.786 C 250.941 82.786,250.392 82.025,249.935 81.095 C 248.973 79.137,248.467 78.253,247.363 76.607 C 245.886 74.404,245.550 73.833,245.315 73.134 C 245.187 72.751,244.944 72.438,244.776 72.438 C 244.608 72.438,244.366 72.124,244.237 71.741 C 243.904 70.750,243.070 69.507,242.488 69.134 C 242.214 68.959,241.990 68.467,241.990 68.040 C 241.990 67.613,241.811 67.264,241.592 67.264 C 241.373 67.264,241.194 67.008,241.194 66.695 C 241.194 66.382,240.970 65.887,240.697 65.593 C 240.423 65.300,239.854 64.436,239.433 63.674 C 239.012 62.912,238.564 62.199,238.438 62.090 C 238.072 61.772,237.291 60.430,236.431 58.642 C 235.993 57.731,235.497 56.925,235.329 56.851 C 235.047 56.726,234.354 55.558,232.946 52.836 C 232.634 52.234,232.214 51.741,232.011 51.741 C 231.808 51.741,231.642 51.409,231.642 51.003 C 231.642 50.598,231.194 49.782,230.647 49.192 C 230.100 48.601,229.652 47.868,229.652 47.561 C 229.652 47.255,229.418 46.862,229.133 46.686 C 228.847 46.511,228.302 45.697,227.920 44.876 C 227.539 44.055,227.056 43.383,226.847 43.383 C 226.638 43.383,226.468 43.145,226.468 42.854 C 226.468 42.380,224.258 38.703,223.676 38.209 C 223.547 38.100,223.129 37.338,222.747 36.517 C 222.365 35.697,221.926 35.023,221.772 35.022 C 221.618 35.020,221.298 34.617,221.060 34.126 C 219.799 31.521,218.786 29.851,218.467 29.851 C 218.270 29.851,218.109 29.535,218.109 29.150 C 218.109 28.765,217.662 27.967,217.114 27.376 C 216.567 26.786,216.119 26.129,216.119 25.916 C 216.119 25.704,215.895 25.293,215.621 25.004 C 215.347 24.714,214.769 23.806,214.336 22.985 C 213.904 22.164,213.431 21.493,213.286 21.493 C 213.141 21.493,212.909 21.045,212.772 20.498 C 212.635 19.950,212.346 19.502,212.132 19.502 C 211.917 19.502,211.741 19.234,211.741 18.905 C 211.741 17.975,209.681 18.184,208.725 19.211 M210.945 95.323 C 210.945 95.943,211.171 96.318,211.542 96.318 C 211.871 96.318,212.139 96.587,212.139 96.915 C 212.139 97.244,212.318 97.512,212.537 97.512 C 212.756 97.512,212.935 97.876,212.935 98.321 C 212.935 98.766,213.188 99.226,213.496 99.345 C 213.805 99.463,214.167 99.995,214.300 100.526 C 214.433 101.058,214.718 101.493,214.933 101.493 C 215.148 101.493,215.323 101.761,215.323 102.090 C 215.323 102.418,215.502 102.687,215.721 102.687 C 215.940 102.687,216.119 103.050,216.119 103.495 C 216.119 103.940,216.388 104.407,216.716 104.533 C 217.045 104.659,217.313 105.011,217.313 105.316 C 217.313 105.621,217.493 105.871,217.711 105.871 C 217.930 105.871,218.109 106.234,218.109 106.679 C 218.109 107.124,218.378 107.591,218.706 107.717 C 219.035 107.843,219.303 108.291,219.303 108.712 C 219.303 109.133,219.572 109.581,219.900 109.707 C 220.229 109.833,220.498 110.185,220.498 110.490 C 220.498 110.795,220.677 111.045,220.896 111.045 C 221.114 111.045,221.294 111.409,221.294 111.853 C 221.294 112.298,221.562 112.765,221.891 112.891 C 222.219 113.017,222.488 113.433,222.488 113.815 C 222.488 114.198,222.935 114.994,223.483 115.584 C 224.030 116.175,224.478 117.007,224.478 117.433 C 224.478 117.860,224.746 118.209,225.075 118.209 C 225.403 118.209,225.672 118.442,225.672 118.727 C 225.672 119.640,226.650 121.387,227.164 121.390 C 227.438 121.392,227.662 121.841,227.662 122.388 C 227.662 122.935,227.841 123.383,228.061 123.383 C 228.280 123.383,228.770 124.100,229.150 124.975 C 229.529 125.851,230.066 126.567,230.343 126.567 C 230.619 126.567,230.846 127.015,230.846 127.562 C 230.846 128.109,231.004 128.557,231.197 128.557 C 231.391 128.557,231.667 128.871,231.812 129.254 C 232.388 130.782,233.050 131.741,233.527 131.741 C 233.804 131.741,234.030 132.189,234.030 132.736 C 234.030 133.284,234.209 133.731,234.428 133.731 C 234.647 133.731,234.826 133.981,234.826 134.286 C 234.826 134.591,235.095 134.943,235.423 135.069 C 235.751 135.195,236.020 135.662,236.020 136.107 C 236.020 136.552,236.199 136.915,236.418 136.915 C 236.637 136.915,236.816 137.171,236.816 137.484 C 236.816 137.797,237.061 138.298,237.360 138.597 C 237.660 138.897,238.030 139.536,238.183 140.019 C 238.336 140.501,238.629 140.896,238.833 140.896 C 239.037 140.896,239.204 141.164,239.204 141.493 C 239.204 141.821,239.383 142.090,239.602 142.090 C 239.821 142.090,240.000 142.518,240.000 143.042 C 240.000 143.566,240.269 144.098,240.597 144.224 C 240.925 144.350,241.194 144.822,241.194 145.274 C 241.194 145.725,241.463 146.198,241.791 146.324 C 242.119 146.450,242.388 146.881,242.388 147.283 C 242.388 147.684,242.567 148.123,242.786 148.259 C 243.005 148.394,243.184 148.923,243.184 149.434 C 243.184 149.945,243.453 150.466,243.781 150.592 C 244.201 150.753,244.378 151.408,244.378 152.800 C 244.378 153.888,244.557 154.890,244.776 155.025 C 245.011 155.170,245.174 157.542,245.174 160.796 C 245.174 164.050,245.011 166.422,244.776 166.567 C 244.557 166.702,244.378 167.877,244.378 169.178 C 244.378 171.014,244.245 171.542,243.781 171.542 C 243.413 171.542,243.184 171.916,243.184 172.514 C 243.184 173.048,243.005 173.596,242.786 173.731 C 242.567 173.867,242.388 174.594,242.388 175.347 C 242.388 176.299,242.206 176.716,241.791 176.716 C 241.456 176.716,241.194 177.072,241.194 177.525 C 241.194 177.970,240.925 178.437,240.597 178.563 C 240.269 178.689,240.000 179.041,240.000 179.346 C 240.000 179.651,239.821 179.900,239.602 179.900 C 239.383 179.900,239.204 180.169,239.204 180.498 C 239.204 180.826,239.037 181.095,238.833 181.095 C 238.629 181.095,238.344 181.465,238.200 181.918 C 237.938 182.744,232.647 188.259,232.116 188.259 C 231.960 188.259,231.350 188.706,230.760 189.254 C 230.169 189.801,229.561 190.249,229.408 190.249 C 229.255 190.249,228.543 190.697,227.825 191.244 C 227.108 191.791,226.262 192.239,225.946 192.239 C 225.630 192.239,225.148 192.507,224.876 192.836 C 224.603 193.164,224.041 193.433,223.627 193.433 C 222.872 193.433,222.618 193.530,220.167 194.759 C 219.438 195.124,218.077 195.423,217.143 195.423 C 216.210 195.423,214.864 195.713,214.153 196.068 C 212.647 196.819,206.482 196.691,205.683 195.892 C 205.425 195.634,204.354 195.423,203.303 195.423 C 202.253 195.423,201.393 195.246,201.393 195.030 C 201.393 194.813,200.677 194.522,199.801 194.382 C 198.925 194.242,198.209 193.971,198.209 193.780 C 198.209 193.589,197.783 193.433,197.263 193.433 C 196.742 193.433,196.093 193.164,195.821 192.836 C 195.548 192.507,194.926 192.239,194.437 192.239 C 193.949 192.239,193.066 191.791,192.475 191.244 C 191.885 190.697,191.309 190.249,191.197 190.249 C 190.376 190.249,182.687 183.078,182.687 182.313 C 182.687 182.081,182.507 181.891,182.289 181.891 C 182.070 181.891,181.891 181.662,181.891 181.382 C 181.891 181.103,181.353 180.286,180.697 179.567 C 180.040 178.848,179.502 178.002,179.502 177.687 C 179.502 177.372,179.323 177.114,179.104 177.114 C 178.886 177.114,178.706 176.661,178.706 176.107 C 178.706 175.553,178.438 174.996,178.109 174.870 C 177.769 174.740,177.512 174.146,177.512 173.490 C 177.512 172.856,177.357 172.338,177.166 172.338 C 176.976 172.338,176.725 171.493,176.608 170.461 C 176.492 169.428,176.200 168.518,175.960 168.438 C 175.663 168.339,175.522 165.941,175.522 160.995 C 175.522 156.049,175.663 153.651,175.960 153.552 C 176.200 153.472,176.492 152.558,176.609 151.520 C 176.726 150.482,176.977 149.537,177.167 149.420 C 177.357 149.303,177.512 148.770,177.512 148.235 C 177.512 147.637,177.742 147.264,178.109 147.264 C 178.481 147.264,178.706 146.888,178.706 146.269 C 178.706 145.721,178.865 145.274,179.058 145.274 C 179.251 145.274,179.515 144.960,179.644 144.577 C 179.911 143.780,180.667 142.572,181.393 141.779 C 181.667 141.481,181.891 140.981,181.891 140.668 C 181.891 140.355,182.070 140.100,182.289 140.100 C 182.507 140.100,182.687 139.652,182.687 139.104 C 182.687 138.485,182.912 138.109,183.284 138.109 C 183.612 138.109,183.881 137.833,183.881 137.496 C 183.881 136.921,184.135 136.519,185.373 135.139 C 185.647 134.834,185.871 134.312,185.871 133.979 C 185.871 133.647,186.318 132.891,186.866 132.301 C 187.413 131.710,187.861 130.895,187.861 130.489 C 187.861 130.083,188.129 129.751,188.458 129.751 C 188.786 129.751,189.055 129.402,189.055 128.976 C 189.055 128.549,189.502 127.717,190.050 127.127 C 190.597 126.536,191.045 125.740,191.045 125.358 C 191.045 124.975,191.313 124.559,191.642 124.433 C 191.970 124.307,192.239 123.840,192.239 123.396 C 192.239 122.951,192.418 122.587,192.637 122.587 C 192.856 122.587,193.035 122.338,193.035 122.033 C 193.035 121.728,193.303 121.375,193.632 121.249 C 193.960 121.123,194.229 120.675,194.229 120.254 C 194.229 119.833,194.498 119.385,194.826 119.259 C 195.154 119.133,195.423 118.666,195.423 118.221 C 195.423 117.777,195.602 117.413,195.821 117.413 C 196.040 117.413,196.219 117.163,196.219 116.859 C 196.219 116.554,196.488 116.201,196.816 116.075 C 197.144 115.949,197.413 115.482,197.413 115.037 C 197.413 114.593,197.589 114.229,197.803 114.229 C 198.018 114.229,198.315 113.736,198.462 113.134 C 198.610 112.532,199.151 111.645,199.664 111.163 C 200.177 110.681,200.597 110.127,200.597 109.931 C 200.597 109.302,201.738 107.298,202.775 106.107 C 203.328 105.471,203.781 104.703,203.781 104.399 C 203.781 104.096,204.157 103.452,204.615 102.968 C 205.074 102.485,205.614 101.731,205.814 101.294 C 206.558 99.671,207.864 97.702,208.401 97.393 C 208.706 97.218,208.955 96.813,208.955 96.492 C 208.955 95.645,209.861 94.328,210.444 94.328 C 210.720 94.328,210.945 94.776,210.945 95.323 M115.414 144.490 C 114.509 145.670,113.760 146.863,113.170 148.060 C 112.875 148.658,112.470 149.200,111.542 150.234 C 111.269 150.539,111.045 151.070,111.045 151.414 C 111.045 151.758,110.897 152.040,110.717 152.040 C 110.537 152.040,109.987 152.846,109.495 153.831 C 109.003 154.816,108.434 155.622,108.231 155.622 C 108.027 155.622,107.861 155.829,107.861 156.082 C 107.861 156.335,107.413 157.129,106.866 157.846 C 106.318 158.564,105.871 159.349,105.871 159.592 C 105.871 160.001,105.593 160.412,104.431 161.724 C 104.186 162.000,103.860 162.621,103.707 163.103 C 103.554 163.585,103.262 163.980,103.058 163.980 C 102.854 163.980,102.687 164.256,102.687 164.594 C 102.687 164.932,102.463 165.475,102.189 165.802 C 100.707 167.571,99.965 168.693,99.644 169.652 C 99.515 170.035,99.271 170.348,99.101 170.348 C 98.932 170.348,98.680 170.796,98.543 171.343 C 98.406 171.891,98.118 172.338,97.903 172.338 C 97.688 172.338,97.512 172.615,97.512 172.952 C 97.512 173.526,97.258 173.928,96.020 175.309 C 95.746 175.614,95.522 176.043,95.522 176.262 C 95.522 176.480,95.298 176.896,95.024 177.186 C 94.750 177.475,94.172 178.383,93.739 179.204 C 93.307 180.025,92.815 180.697,92.646 180.697 C 92.477 180.697,92.338 180.960,92.338 181.282 C 92.338 181.883,89.988 185.566,89.453 185.804 C 89.289 185.877,89.154 186.280,89.154 186.700 C 89.154 187.119,89.007 187.463,88.827 187.463 C 88.647 187.463,88.103 188.224,87.618 189.154 C 86.546 191.211,85.851 192.372,85.532 192.637 C 85.190 192.921,83.356 196.118,82.391 198.109 C 81.941 199.040,81.398 199.801,81.184 199.801 C 80.971 199.801,80.796 200.057,80.796 200.370 C 80.796 200.682,80.572 201.182,80.299 201.479 C 79.521 202.326,78.806 203.711,78.806 204.373 C 78.806 204.704,78.537 204.975,78.209 204.975 C 77.881 204.975,77.612 205.236,77.612 205.554 C 77.612 205.873,77.164 206.794,76.617 207.600 C 76.070 208.406,75.622 209.310,75.622 209.608 C 75.622 209.906,75.353 210.149,75.025 210.149 C 74.697 210.149,74.428 210.420,74.428 210.752 C 74.428 211.514,73.587 213.036,72.935 213.453 C 72.662 213.628,72.438 214.120,72.438 214.547 C 72.438 214.974,72.267 215.323,72.058 215.323 C 71.850 215.323,71.367 215.995,70.985 216.816 C 70.604 217.637,70.058 218.452,69.773 218.627 C 69.487 218.802,69.254 219.294,69.254 219.721 C 69.254 220.148,69.106 220.498,68.926 220.498 C 68.644 220.498,67.892 221.747,66.274 224.905 C 66.058 225.327,65.744 225.672,65.577 225.672 C 65.410 225.672,65.274 226.021,65.274 226.448 C 65.274 226.875,65.050 227.367,64.776 227.542 C 64.270 227.866,63.874 228.494,62.426 231.273 C 61.978 232.133,61.450 232.836,61.253 232.836 C 61.057 232.836,60.882 233.149,60.866 233.532 C 60.850 233.915,60.494 234.766,60.075 235.423 C 59.655 236.080,59.189 236.886,59.039 237.214 C 58.889 237.542,58.529 237.954,58.239 238.129 C 57.949 238.304,57.711 238.797,57.711 239.224 C 57.711 239.651,57.532 240.000,57.313 240.000 C 57.095 240.000,56.915 240.358,56.915 240.796 C 56.915 241.234,56.748 241.592,56.544 241.592 C 56.340 241.592,56.048 241.987,55.895 242.469 C 55.742 242.951,55.371 243.591,55.072 243.890 C 54.772 244.190,54.527 244.691,54.527 245.004 C 54.527 245.316,54.348 245.572,54.129 245.572 C 53.910 245.572,53.731 245.936,53.731 246.381 C 53.731 246.825,53.463 247.292,53.134 247.418 C 52.806 247.544,52.537 247.976,52.537 248.377 C 52.537 248.779,52.358 249.218,52.139 249.353 C 51.920 249.489,51.741 249.952,51.741 250.384 C 51.741 250.816,51.473 251.272,51.144 251.398 C 50.758 251.547,50.547 252.163,50.547 253.144 C 50.547 253.978,50.351 254.726,50.110 254.806 C 49.870 254.886,49.577 255.800,49.460 256.838 C 49.343 257.876,49.092 258.821,48.902 258.938 C 48.713 259.055,48.557 260.014,48.557 261.069 C 48.557 262.288,48.340 263.168,47.960 263.483 C 47.516 263.851,47.363 264.834,47.363 267.312 C 47.363 269.270,47.199 270.647,46.965 270.647 C 46.429 270.647,46.429 282.455,46.965 282.786 C 47.185 282.922,47.363 284.718,47.363 286.802 C 47.363 289.786,47.488 290.620,47.960 290.801 C 48.389 290.966,48.557 291.636,48.557 293.177 C 48.557 294.357,48.736 295.323,48.955 295.323 C 49.174 295.323,49.353 296.027,49.353 296.887 C 49.353 297.747,49.622 298.719,49.950 299.048 C 50.279 299.376,50.547 300.200,50.547 300.880 C 50.547 301.610,50.791 302.208,51.144 302.344 C 51.473 302.470,51.741 302.991,51.741 303.502 C 51.741 304.013,51.920 304.541,52.139 304.677 C 52.358 304.812,52.537 305.360,52.537 305.894 C 52.537 306.492,52.767 306.866,53.134 306.866 C 53.506 306.866,53.731 307.242,53.731 307.861 C 53.731 308.408,53.910 308.856,54.129 308.856 C 54.348 308.856,54.527 309.220,54.527 309.664 C 54.527 310.109,54.796 310.576,55.124 310.702 C 55.453 310.828,55.721 311.365,55.721 311.896 C 55.721 312.427,55.990 312.964,56.318 313.090 C 56.647 313.216,56.915 313.639,56.915 314.031 C 56.915 314.422,57.360 315.164,57.904 315.680 C 58.447 316.195,58.895 316.849,58.899 317.133 C 58.902 317.418,59.353 318.065,59.900 318.572 C 60.448 319.079,60.896 319.698,60.896 319.946 C 60.896 320.195,61.164 320.398,61.493 320.398 C 61.821 320.398,62.092 320.711,62.096 321.095 C 62.103 321.898,64.167 324.378,64.829 324.378 C 65.073 324.378,65.274 324.568,65.274 324.801 C 65.274 325.318,70.748 330.746,71.269 330.746 C 71.474 330.746,71.642 330.913,71.642 331.117 C 71.642 331.322,72.036 331.614,72.519 331.767 C 73.543 332.092,74.428 332.897,74.428 333.504 C 74.428 333.738,74.697 333.930,75.025 333.930 C 75.353 333.930,75.622 334.106,75.622 334.321 C 75.622 334.536,76.070 334.824,76.617 334.961 C 77.164 335.098,77.612 335.370,77.612 335.566 C 77.612 335.761,77.881 335.920,78.209 335.920 C 78.537 335.920,78.806 336.189,78.806 336.517 C 78.806 336.889,79.182 337.114,79.801 337.114 C 80.348 337.114,80.796 337.294,80.796 337.512 C 80.796 337.731,81.145 337.910,81.572 337.910 C 81.999 337.910,82.492 338.148,82.667 338.438 C 82.842 338.728,83.254 339.088,83.582 339.238 C 83.910 339.388,84.716 339.854,85.373 340.274 C 86.030 340.693,87.149 341.049,87.861 341.065 C 88.732 341.085,89.154 341.289,89.154 341.692 C 89.154 342.063,89.530 342.289,90.149 342.289 C 90.697 342.289,91.144 342.466,91.144 342.682 C 91.144 342.898,91.861 343.190,92.736 343.330 C 93.612 343.470,94.328 343.741,94.328 343.931 C 94.328 344.122,95.026 344.279,95.878 344.279 C 96.888 344.279,97.507 344.486,97.656 344.876 C 97.818 345.297,98.475 345.473,99.888 345.473 C 100.989 345.473,101.891 345.652,101.891 345.871 C 101.891 346.101,103.160 346.269,104.904 346.269 C 107.052 346.269,108.089 346.440,108.515 346.866 C 109.404 347.755,126.082 347.755,126.423 346.866 C 126.598 346.410,127.344 346.269,129.571 346.269 C 131.177 346.269,132.601 346.090,132.736 345.871 C 132.872 345.652,133.848 345.473,134.906 345.473 C 136.249 345.473,136.899 345.292,137.059 344.876 C 137.216 344.466,137.856 344.279,139.092 344.279 C 140.084 344.279,140.896 344.100,140.896 343.881 C 140.896 343.662,141.309 343.483,141.814 343.483 C 142.320 343.483,143.081 343.220,143.506 342.898 C 143.931 342.577,144.687 342.308,145.187 342.301 C 145.686 342.294,146.198 342.020,146.324 341.692 C 146.450 341.363,146.981 341.095,147.505 341.095 C 148.029 341.095,148.458 340.915,148.458 340.697 C 148.458 340.478,148.905 340.299,149.453 340.299 C 150.072 340.299,150.448 340.073,150.448 339.701 C 150.448 339.330,150.824 339.104,151.443 339.104 C 152.062 339.104,152.438 338.879,152.438 338.507 C 152.438 338.136,152.814 337.910,153.433 337.910 C 153.980 337.910,154.428 337.731,154.428 337.512 C 154.428 337.294,154.697 337.114,155.025 337.114 C 155.353 337.114,155.622 336.846,155.622 336.517 C 155.622 336.146,155.998 335.920,156.617 335.920 C 157.164 335.920,157.612 335.741,157.612 335.522 C 157.612 335.303,157.881 335.124,158.209 335.124 C 158.537 335.124,158.806 334.856,158.806 334.527 C 158.806 334.193,159.161 333.930,159.614 333.930 C 160.059 333.930,160.526 333.662,160.652 333.333 C 160.778 333.005,161.054 332.736,161.266 332.736 C 161.689 332.736,163.429 331.154,167.488 327.079 C 172.691 321.855,174.328 319.967,174.328 319.193 C 174.328 318.760,174.597 318.408,174.925 318.408 C 175.254 318.408,175.522 318.139,175.522 317.811 C 175.522 317.483,175.673 317.214,175.856 317.214 C 176.040 317.214,176.533 316.500,176.951 315.626 C 177.369 314.753,177.935 314.037,178.209 314.034 C 178.483 314.032,178.706 313.582,178.706 313.035 C 178.706 312.488,178.886 312.040,179.104 312.040 C 179.323 312.040,179.502 311.592,179.502 311.045 C 179.502 310.426,179.728 310.050,180.100 310.050 C 180.428 310.050,180.697 309.713,180.697 309.302 C 180.697 308.891,180.965 308.332,181.294 308.060 C 181.622 307.787,181.891 307.138,181.891 306.618 C 181.891 306.097,182.070 305.672,182.289 305.672 C 182.507 305.672,182.687 305.243,182.687 304.719 C 182.687 304.195,182.955 303.664,183.284 303.538 C 183.637 303.402,183.881 302.804,183.881 302.074 C 183.881 301.394,184.149 300.570,184.478 300.242 C 184.806 299.913,185.075 299.120,185.075 298.479 C 185.075 297.838,185.254 297.313,185.473 297.313 C 185.692 297.313,185.871 296.437,185.871 295.366 C 185.871 294.002,186.050 293.350,186.468 293.189 C 186.906 293.021,187.065 292.329,187.065 290.583 C 187.065 289.276,187.244 288.095,187.463 287.960 C 187.711 287.807,187.861 283.910,187.861 277.588 C 187.861 271.103,187.718 267.463,187.463 267.463 C 187.231 267.463,187.065 266.150,187.065 264.321 C 187.065 261.896,186.929 261.127,186.468 260.951 C 186.046 260.789,185.871 260.132,185.871 258.719 C 185.871 257.618,185.715 256.716,185.525 256.716 C 185.335 256.716,185.078 255.959,184.954 255.033 C 184.830 254.108,184.537 253.287,184.304 253.209 C 184.071 253.132,183.881 252.558,183.881 251.936 C 183.881 251.313,183.612 250.534,183.284 250.206 C 182.955 249.878,182.687 249.328,182.687 248.984 C 182.687 248.640,182.507 248.358,182.289 248.358 C 182.070 248.358,181.891 248.022,181.891 247.611 C 181.891 247.200,181.622 246.641,181.294 246.368 C 180.965 246.096,180.697 245.620,180.697 245.312 C 180.697 245.003,180.428 244.648,180.100 244.522 C 179.771 244.396,179.502 243.954,179.502 243.540 C 179.502 243.125,179.323 242.786,179.104 242.786 C 178.886 242.786,178.706 242.447,178.706 242.033 C 178.706 241.618,178.438 241.176,178.109 241.050 C 177.781 240.924,177.512 240.561,177.512 240.244 C 177.512 239.524,176.225 237.220,175.821 237.216 C 175.657 237.215,175.522 236.958,175.522 236.645 C 175.522 236.333,175.292 235.840,175.010 235.551 C 174.728 235.262,174.182 234.353,173.797 233.532 C 173.412 232.711,172.926 232.040,172.718 232.040 C 172.509 232.040,172.338 231.796,172.338 231.498 C 172.338 231.201,171.891 230.297,171.343 229.491 C 170.796 228.684,170.348 227.783,170.348 227.488 C 170.348 227.192,170.080 226.848,169.751 226.722 C 169.423 226.596,169.154 226.129,169.154 225.684 C 169.154 225.239,168.995 224.876,168.799 224.876 C 168.604 224.876,168.332 224.428,168.195 223.881 C 168.057 223.333,167.769 222.886,167.555 222.886 C 167.340 222.886,167.164 222.527,167.164 222.090 C 167.164 221.652,166.998 221.294,166.794 221.294 C 166.591 221.294,166.021 220.488,165.530 219.502 C 165.038 218.517,164.488 217.711,164.308 217.711 C 164.127 217.711,163.980 217.353,163.980 216.915 C 163.980 216.478,163.804 216.119,163.590 216.119 C 163.375 216.119,163.087 215.672,162.950 215.124 C 162.812 214.577,162.561 214.129,162.391 214.129 C 162.222 214.129,161.975 213.816,161.843 213.433 C 161.569 212.639,159.606 209.256,159.244 208.955 C 158.980 208.735,158.382 207.704,157.152 205.344 C 156.704 204.484,156.220 203.781,156.077 203.781 C 155.934 203.781,155.562 203.199,155.251 202.488 C 154.731 201.299,153.339 199.082,152.815 198.607 C 152.694 198.498,152.283 197.736,151.901 196.915 C 151.519 196.095,151.036 195.423,150.827 195.423 C 150.618 195.423,150.448 195.126,150.448 194.764 C 150.448 194.402,150.000 193.518,149.453 192.800 C 148.905 192.083,148.458 191.215,148.458 190.872 C 148.458 190.529,148.218 190.249,147.924 190.249 C 147.631 190.249,147.158 189.542,146.873 188.677 C 146.587 187.813,146.111 187.013,145.814 186.899 C 145.517 186.785,145.274 186.328,145.274 185.883 C 145.274 185.430,145.011 185.075,144.677 185.075 C 144.348 185.075,144.080 184.804,144.080 184.472 C 144.080 183.710,143.239 182.188,142.587 181.771 C 142.313 181.596,142.090 181.104,142.090 180.677 C 142.090 180.250,141.931 179.900,141.738 179.900 C 141.545 179.900,141.278 179.587,141.146 179.204 C 141.013 178.821,140.542 177.970,140.100 177.313 C 139.657 176.657,139.186 175.806,139.053 175.423 C 138.921 175.040,138.675 174.726,138.507 174.726 C 138.340 174.726,138.097 174.413,137.968 174.030 C 137.724 173.301,136.880 171.883,136.487 171.542 C 136.361 171.433,135.914 170.716,135.492 169.950 C 135.071 169.184,134.502 168.414,134.229 168.239 C 133.955 168.064,133.731 167.571,133.731 167.144 C 133.731 166.717,133.573 166.368,133.380 166.368 C 133.186 166.368,132.915 166.055,132.776 165.672 C 132.474 164.836,131.852 163.797,130.647 162.119 C 130.154 161.433,129.751 160.695,129.751 160.479 C 129.751 160.262,129.483 159.982,129.154 159.856 C 128.826 159.730,128.557 159.263,128.557 158.818 C 128.557 158.374,128.399 158.010,128.206 158.010 C 128.012 158.010,127.746 157.697,127.613 157.313 C 127.481 156.930,127.010 156.080,126.567 155.423 C 126.124 154.766,125.654 153.915,125.521 153.532 C 125.389 153.149,125.122 152.836,124.929 152.836 C 124.735 152.836,124.577 152.586,124.577 152.281 C 124.577 151.976,124.308 151.624,123.980 151.498 C 123.652 151.372,123.383 150.905,123.383 150.460 C 123.383 150.016,123.245 149.652,123.076 149.652 C 122.906 149.652,122.416 148.980,121.985 148.159 C 121.554 147.338,120.976 146.523,120.700 146.348 C 120.425 146.173,120.199 145.772,120.199 145.457 C 120.199 143.211,116.904 142.545,115.414 144.490 M285.609 176.258 C 285.454 176.510,284.799 176.716,284.156 176.716 C 283.260 176.716,282.985 176.899,282.985 177.493 C 282.985 177.920,282.759 178.412,282.484 178.587 C 282.208 178.762,281.630 179.577,281.199 180.398 C 280.768 181.219,280.278 181.891,280.108 181.891 C 279.939 181.891,279.801 182.254,279.801 182.699 C 279.801 183.144,279.532 183.611,279.204 183.737 C 278.876 183.863,278.607 184.215,278.607 184.520 C 278.607 184.825,278.428 185.075,278.209 185.075 C 277.990 185.075,277.811 185.433,277.811 185.871 C 277.811 186.308,277.642 186.667,277.435 186.667 C 277.063 186.667,276.082 188.198,275.585 189.552 C 275.445 189.935,275.172 190.249,274.978 190.249 C 274.785 190.249,274.627 190.613,274.627 191.057 C 274.627 191.502,274.358 191.969,274.030 192.095 C 273.701 192.221,273.433 192.501,273.433 192.717 C 273.433 192.934,273.030 193.672,272.537 194.358 C 271.333 196.036,270.710 197.075,270.408 197.910 C 270.269 198.294,269.998 198.607,269.804 198.607 C 269.611 198.607,269.453 198.965,269.453 199.403 C 269.453 199.841,269.283 200.199,269.076 200.199 C 268.705 200.199,267.724 201.730,267.227 203.085 C 267.087 203.468,266.814 203.781,266.620 203.781 C 266.427 203.781,266.269 204.145,266.269 204.590 C 266.269 205.034,266.000 205.501,265.672 205.627 C 265.343 205.753,265.075 206.106,265.075 206.411 C 265.075 206.716,264.916 206.965,264.723 206.965 C 264.530 206.965,264.263 207.279,264.131 207.662 C 263.998 208.045,263.527 208.896,263.085 209.552 C 262.642 210.209,262.171 211.060,262.038 211.443 C 261.906 211.826,261.639 212.139,261.446 212.139 C 261.253 212.139,261.095 212.489,261.095 212.916 C 261.095 213.342,260.869 213.835,260.593 214.010 C 260.317 214.185,259.739 215.000,259.309 215.821 C 258.878 216.642,258.387 217.313,258.218 217.313 C 258.049 217.313,257.910 217.663,257.910 218.090 C 257.910 218.517,257.687 219.009,257.413 219.184 C 256.761 219.601,255.920 221.123,255.920 221.885 C 255.920 222.216,255.652 222.488,255.323 222.488 C 254.995 222.488,254.726 222.768,254.726 223.111 C 254.726 223.454,254.279 224.322,253.731 225.039 C 253.184 225.757,252.736 226.640,252.736 227.003 C 252.736 227.365,252.468 227.662,252.139 227.662 C 251.811 227.662,251.542 227.942,251.542 228.285 C 251.542 228.628,251.139 229.479,250.646 230.176 C 249.455 231.859,248.915 232.758,248.091 234.428 C 247.714 235.194,247.245 235.931,247.049 236.066 C 246.639 236.348,245.914 237.576,244.901 239.701 C 244.510 240.522,244.067 241.194,243.915 241.194 C 243.613 241.194,242.388 243.492,242.388 244.058 C 242.388 244.451,241.751 245.290,240.697 246.286 C 240.313 246.647,240.000 247.261,240.000 247.651 C 240.000 248.040,239.842 248.358,239.648 248.358 C 239.455 248.358,239.192 248.672,239.063 249.055 C 238.836 249.732,238.014 251.140,237.612 251.542 C 237.502 251.652,237.055 252.458,236.618 253.333 C 236.181 254.209,235.599 255.162,235.324 255.451 C 235.050 255.741,234.826 256.233,234.826 256.546 C 234.826 256.859,234.647 257.114,234.428 257.114 C 234.209 257.114,234.030 257.361,234.030 257.663 C 234.030 257.964,233.761 258.434,233.433 258.706 C 233.104 258.979,232.836 259.544,232.836 259.962 C 232.836 260.380,232.567 260.825,232.239 260.951 C 231.910 261.077,231.642 261.429,231.642 261.734 C 231.642 262.039,231.463 262.289,231.244 262.289 C 231.025 262.289,230.846 262.736,230.846 263.284 C 230.846 263.903,230.620 264.279,230.249 264.279 C 229.920 264.279,229.652 264.551,229.652 264.884 C 229.652 265.216,229.204 266.198,228.657 267.065 C 228.109 267.932,227.662 268.824,227.662 269.047 C 227.662 269.270,227.496 269.453,227.293 269.453 C 226.865 269.453,225.672 271.704,225.672 272.511 C 225.672 272.813,225.403 273.163,225.075 273.289 C 224.746 273.415,224.478 273.767,224.478 274.072 C 224.478 274.377,224.318 274.627,224.123 274.627 C 223.928 274.627,223.656 275.075,223.518 275.622 C 223.381 276.169,223.093 276.617,222.878 276.617 C 222.663 276.617,222.488 276.953,222.488 277.364 C 222.488 277.775,222.219 278.334,221.891 278.607 C 221.562 278.879,221.294 279.352,221.294 279.656 C 221.294 280.377,220.435 281.903,219.801 282.308 C 219.527 282.483,219.303 283.044,219.303 283.553 C 219.303 284.063,219.035 284.703,218.706 284.975 C 218.378 285.248,218.109 285.975,218.109 286.592 C 218.109 287.209,217.930 287.825,217.711 287.960 C 217.493 288.095,217.313 288.890,217.313 289.726 C 217.313 290.591,217.056 291.459,216.716 291.741 C 216.323 292.068,216.119 292.956,216.119 294.344 C 216.119 295.503,215.935 296.513,215.709 296.588 C 215.483 296.663,215.187 298.296,215.052 300.217 C 214.916 302.137,214.653 303.803,214.467 303.918 C 214.022 304.193,214.028 316.020,214.473 316.020 C 214.662 316.020,214.907 317.733,215.016 319.826 C 215.126 321.920,215.419 323.836,215.667 324.085 C 215.916 324.334,216.119 325.403,216.119 326.460 C 216.119 327.802,216.300 328.452,216.716 328.612 C 217.106 328.762,217.313 329.381,217.313 330.391 C 217.313 331.243,217.493 331.940,217.711 331.940 C 217.930 331.940,218.109 332.545,218.109 333.285 C 218.109 334.024,218.378 334.852,218.706 335.124 C 219.035 335.397,219.303 336.135,219.303 336.765 C 219.303 337.518,219.508 337.910,219.900 337.910 C 220.299 337.910,220.498 338.308,220.498 339.104 C 220.498 339.761,220.677 340.299,220.896 340.299 C 221.114 340.299,221.294 340.746,221.294 341.294 C 221.294 341.913,221.519 342.289,221.891 342.289 C 222.262 342.289,222.488 342.664,222.488 343.284 C 222.488 343.831,222.647 344.279,222.842 344.279 C 223.038 344.279,223.310 344.726,223.447 345.274 C 223.584 345.821,223.872 346.269,224.087 346.269 C 224.302 346.269,224.478 346.518,224.478 346.823 C 224.478 347.128,224.746 347.481,225.075 347.607 C 225.403 347.733,225.672 348.200,225.672 348.644 C 225.672 349.089,225.851 349.453,226.070 349.453 C 226.289 349.453,226.468 349.721,226.468 350.050 C 226.468 350.378,226.736 350.647,227.065 350.647 C 227.436 350.647,227.662 351.023,227.662 351.642 C 227.662 352.261,227.887 352.637,228.259 352.637 C 228.587 352.637,228.856 352.829,228.856 353.063 C 228.856 353.594,229.860 354.627,230.376 354.627 C 230.587 354.627,230.869 355.062,231.002 355.593 C 231.227 356.491,237.179 362.985,237.776 362.985 C 238.081 362.985,238.734 363.509,240.380 365.075 C 241.013 365.677,241.724 366.169,241.959 366.169 C 242.195 366.169,242.388 366.438,242.388 366.766 C 242.388 367.121,242.753 367.363,243.289 367.363 C 243.785 367.363,244.525 367.810,244.936 368.358 C 245.347 368.905,245.972 369.356,246.324 369.360 C 246.677 369.364,247.387 369.812,247.902 370.355 C 248.418 370.899,249.269 371.343,249.793 371.343 C 250.375 371.343,250.746 371.576,250.746 371.940 C 250.746 372.312,251.122 372.537,251.741 372.537 C 252.289 372.537,252.736 372.716,252.736 372.935 C 252.736 373.154,253.184 373.333,253.731 373.333 C 254.350 373.333,254.726 373.559,254.726 373.930 C 254.726 374.280,255.097 374.533,255.622 374.540 C 256.114 374.547,256.865 374.816,257.290 375.137 C 257.715 375.458,258.476 375.721,258.982 375.721 C 259.487 375.721,259.900 375.900,259.900 376.119 C 259.900 376.338,260.617 376.517,261.493 376.517 C 262.642 376.517,263.085 376.683,263.085 377.114 C 263.085 377.534,263.508 377.711,264.506 377.711 C 265.288 377.711,266.196 377.980,266.525 378.308 C 266.892 378.676,267.868 378.905,269.060 378.905 C 270.126 378.905,271.108 379.085,271.244 379.303 C 271.379 379.522,273.069 379.701,275.000 379.701 C 277.634 379.701,278.633 379.850,279.005 380.299 C 279.730 381.173,290.611 381.173,291.485 380.299 C 291.928 379.856,293.014 379.701,295.693 379.701 C 297.835 379.701,299.303 379.540,299.303 379.303 C 299.303 379.085,300.165 378.905,301.217 378.905 C 302.284 378.905,303.473 378.647,303.904 378.321 C 304.329 378.000,305.348 377.731,306.169 377.724 C 307.225 377.715,307.662 377.537,307.662 377.114 C 307.662 376.683,308.104 376.517,309.254 376.517 C 310.129 376.517,310.846 376.338,310.846 376.119 C 310.846 375.900,311.294 375.721,311.841 375.721 C 312.460 375.721,312.836 375.496,312.836 375.124 C 312.836 374.730,313.231 374.527,314.001 374.527 C 314.643 374.527,315.436 374.259,315.764 373.930 C 316.092 373.602,316.732 373.333,317.186 373.333 C 317.639 373.333,318.010 373.154,318.010 372.935 C 318.010 372.716,318.259 372.537,318.564 372.537 C 318.869 372.537,319.222 372.269,319.348 371.940 C 319.474 371.612,319.941 371.343,320.386 371.343 C 320.830 371.343,321.194 371.164,321.194 370.945 C 321.194 370.726,321.507 370.541,321.891 370.534 C 322.710 370.518,324.378 369.217,324.378 368.593 C 324.378 368.354,324.826 368.159,325.373 368.159 C 325.920 368.159,326.368 367.980,326.368 367.761 C 326.368 367.542,326.637 367.363,326.965 367.363 C 327.294 367.363,327.562 367.095,327.562 366.766 C 327.562 366.431,327.917 366.169,328.371 366.169 C 328.815 366.169,329.282 365.900,329.408 365.572 C 329.534 365.244,329.821 364.975,330.045 364.975 C 330.270 364.975,331.044 364.348,331.767 363.582 C 332.490 362.816,333.272 362.189,333.506 362.189 C 333.739 362.189,333.930 361.920,333.930 361.592 C 333.930 361.264,334.109 360.995,334.328 360.995 C 334.547 360.995,334.726 360.726,334.726 360.398 C 334.726 360.070,334.921 359.801,335.160 359.801 C 335.760 359.801,341.095 354.328,341.095 353.712 C 341.095 353.437,341.408 352.921,341.791 352.565 C 343.177 351.279,344.279 349.929,344.279 349.517 C 344.279 349.285,344.726 348.613,345.274 348.022 C 345.821 347.432,346.269 346.636,346.269 346.253 C 346.269 345.871,346.537 345.455,346.866 345.329 C 347.194 345.203,347.463 344.646,347.463 344.092 C 347.463 343.538,347.642 343.085,347.861 343.085 C 348.080 343.085,348.259 342.637,348.259 342.090 C 348.259 341.470,348.484 341.095,348.856 341.095 C 349.220 341.095,349.453 340.723,349.453 340.142 C 349.453 339.618,349.721 339.087,350.050 338.961 C 350.395 338.828,350.647 338.233,350.647 337.548 C 350.647 336.898,350.826 336.255,351.045 336.119 C 351.264 335.984,351.443 335.455,351.443 334.944 C 351.443 334.434,351.711 333.912,352.040 333.786 C 352.398 333.649,352.642 333.036,352.649 332.251 C 352.656 331.533,352.925 330.598,353.246 330.173 C 353.568 329.748,353.831 328.718,353.831 327.884 C 353.831 327.050,354.010 326.368,354.229 326.368 C 354.453 326.368,354.627 325.257,354.627 323.830 C 354.627 322.059,354.807 321.142,355.224 320.796 C 355.725 320.380,355.821 318.736,355.821 310.586 C 355.821 302.317,355.732 300.836,355.224 300.641 C 354.768 300.467,354.627 299.721,354.627 297.493 C 354.627 295.888,354.448 294.464,354.229 294.328 C 354.010 294.193,353.831 293.411,353.831 292.590 C 353.831 291.769,353.568 290.750,353.246 290.325 C 352.925 289.900,352.656 288.875,352.649 288.047 C 352.641 287.086,352.421 286.459,352.040 286.313 C 351.695 286.181,351.431 285.556,351.414 284.833 C 351.398 284.145,351.042 283.045,350.624 282.388 C 350.205 281.731,349.685 280.791,349.468 280.299 C 349.252 279.806,348.891 279.403,348.667 279.403 C 348.442 279.403,348.259 279.162,348.259 278.867 C 348.259 278.069,347.062 275.821,346.638 275.821 C 346.435 275.821,346.269 275.577,346.269 275.279 C 346.269 274.982,345.821 274.078,345.274 273.272 C 344.726 272.465,344.279 271.539,344.279 271.214 C 344.279 270.888,344.010 270.519,343.682 270.393 C 343.353 270.267,343.085 269.929,343.085 269.641 C 343.085 268.964,341.781 266.672,341.393 266.669 C 341.229 266.668,341.095 266.308,341.095 265.871 C 341.095 265.433,340.927 265.075,340.723 265.075 C 340.519 265.075,340.226 264.672,340.073 264.179 C 339.919 263.687,339.683 263.194,339.548 263.085 C 339.226 262.823,338.540 261.680,337.457 259.602 C 336.972 258.672,336.428 257.910,336.248 257.910 C 336.068 257.910,335.920 257.655,335.920 257.342 C 335.920 257.029,335.697 256.530,335.423 256.232 C 334.663 255.405,333.930 254.006,333.930 253.381 C 333.930 253.073,333.662 252.718,333.333 252.592 C 333.005 252.466,332.736 251.999,332.736 251.555 C 332.736 251.110,332.589 250.746,332.409 250.746 C 332.229 250.746,331.679 249.940,331.187 248.955 C 330.695 247.970,330.126 247.164,329.922 247.164 C 329.719 247.164,329.552 246.806,329.552 246.368 C 329.552 245.930,329.373 245.572,329.154 245.572 C 328.935 245.572,328.756 245.323,328.756 245.018 C 328.756 244.713,328.488 244.360,328.159 244.234 C 327.831 244.108,327.562 243.719,327.562 243.369 C 327.562 243.019,327.114 242.146,326.567 241.428 C 326.020 240.711,325.572 239.936,325.572 239.707 C 325.572 239.477,325.303 239.186,324.975 239.060 C 324.647 238.934,324.378 238.467,324.378 238.022 C 324.378 237.578,324.199 237.214,323.980 237.214 C 323.761 237.214,323.582 236.958,323.582 236.645 C 323.582 236.333,323.358 235.833,323.085 235.534 C 322.490 234.885,321.689 233.660,321.320 232.836 C 321.173 232.507,320.950 232.149,320.825 232.040 C 320.513 231.767,319.799 230.569,318.750 228.557 C 318.266 227.627,317.721 226.866,317.541 226.866 C 317.361 226.866,317.214 226.610,317.214 226.297 C 317.214 225.984,316.990 225.492,316.715 225.203 C 316.441 224.913,315.863 224.005,315.431 223.184 C 314.999 222.363,314.526 221.692,314.380 221.692 C 314.235 221.692,314.004 221.244,313.866 220.697 C 313.729 220.149,313.441 219.701,313.226 219.701 C 313.012 219.701,312.836 219.343,312.836 218.905 C 312.836 218.468,312.678 218.109,312.484 218.109 C 312.291 218.109,312.025 217.796,311.893 217.413 C 311.542 216.396,309.743 213.409,308.205 211.290 C 307.468 210.276,306.866 209.165,306.866 208.822 C 306.866 208.479,306.627 208.056,306.336 207.880 C 306.044 207.705,305.283 206.577,304.644 205.373 C 304.005 204.169,303.346 203.123,303.178 203.049 C 303.010 202.975,302.533 202.166,302.116 201.252 C 301.699 200.338,300.896 199.090,300.331 198.481 C 299.766 197.871,299.303 197.112,299.303 196.795 C 299.303 196.478,299.124 196.219,298.905 196.219 C 298.687 196.219,298.507 195.855,298.507 195.410 C 298.507 194.966,298.256 194.506,297.950 194.388 C 297.643 194.270,297.290 193.873,297.165 193.505 C 296.926 192.798,296.640 192.324,294.726 189.453 C 293.114 187.035,292.690 186.340,291.692 184.478 C 291.222 183.602,290.728 182.796,290.593 182.687 C 290.289 182.440,289.569 181.269,288.756 179.701 C 287.728 177.717,285.926 175.746,285.609 176.258 M118.209 216.566 C 118.209 216.977,118.478 217.313,118.806 217.313 C 119.134 217.313,119.403 217.645,119.403 218.051 C 119.403 218.457,119.851 219.272,120.398 219.863 C 120.945 220.453,121.393 221.286,121.393 221.712 C 121.393 222.139,121.619 222.488,121.896 222.488 C 122.173 222.488,122.710 223.204,123.089 224.080 C 123.468 224.955,123.958 225.672,124.178 225.672 C 124.397 225.672,124.577 226.004,124.577 226.410 C 124.577 226.815,125.025 227.631,125.572 228.221 C 126.119 228.812,126.567 229.560,126.567 229.884 C 126.567 230.208,126.836 230.576,127.164 230.702 C 127.493 230.828,127.761 231.244,127.761 231.626 C 127.761 232.009,128.209 232.805,128.756 233.395 C 129.303 233.986,129.751 234.818,129.751 235.244 C 129.751 235.671,129.931 236.020,130.150 236.020 C 130.370 236.020,130.860 236.736,131.239 237.612 C 131.619 238.488,132.155 239.204,132.432 239.204 C 132.709 239.204,132.935 239.652,132.935 240.199 C 132.935 240.746,133.086 241.194,133.269 241.194 C 133.453 241.194,133.946 241.908,134.364 242.782 C 134.782 243.655,135.348 244.371,135.622 244.374 C 135.896 244.376,136.119 244.826,136.119 245.373 C 136.119 245.920,136.278 246.368,136.471 246.368 C 136.664 246.368,136.928 246.682,137.056 247.065 C 137.310 247.820,138.160 249.233,138.553 249.552 C 138.688 249.662,138.924 250.154,139.078 250.647 C 139.231 251.139,139.524 251.542,139.728 251.542 C 139.932 251.542,140.100 251.792,140.100 252.097 C 140.100 252.402,140.368 252.754,140.697 252.880 C 141.025 253.006,141.294 253.473,141.294 253.918 C 141.294 254.363,141.473 254.726,141.692 254.726 C 141.910 254.726,142.090 255.090,142.090 255.535 C 142.090 255.980,142.358 256.446,142.687 256.572 C 143.015 256.698,143.284 257.032,143.284 257.313 C 143.284 257.595,143.552 257.928,143.881 258.054 C 144.209 258.180,144.478 258.647,144.478 259.092 C 144.478 259.537,144.657 259.900,144.876 259.900 C 145.095 259.900,145.274 260.348,145.274 260.896 C 145.274 261.515,145.499 261.891,145.871 261.891 C 146.242 261.891,146.468 262.266,146.468 262.886 C 146.468 263.433,146.647 263.881,146.866 263.881 C 147.085 263.881,147.264 264.130,147.264 264.435 C 147.264 264.740,147.532 265.093,147.861 265.219 C 148.189 265.345,148.458 265.811,148.458 266.256 C 148.458 266.710,148.720 267.065,149.055 267.065 C 149.422 267.065,149.652 267.438,149.652 268.036 C 149.652 268.571,149.831 269.118,150.050 269.254 C 150.269 269.389,150.448 270.116,150.448 270.869 C 150.448 271.821,150.630 272.239,151.045 272.239 C 151.502 272.239,151.642 272.745,151.642 274.404 C 151.642 275.595,151.821 276.681,152.040 276.816 C 152.272 276.959,152.438 279.208,152.438 282.213 C 152.438 285.381,152.285 287.363,152.040 287.363 C 151.818 287.363,151.642 288.429,151.642 289.764 C 151.642 291.530,151.484 292.225,151.045 292.393 C 150.716 292.519,150.448 293.041,150.448 293.551 C 150.448 294.062,150.269 294.591,150.050 294.726 C 149.831 294.862,149.652 295.388,149.652 295.895 C 149.652 296.403,149.383 297.041,149.055 297.313 C 148.726 297.586,148.458 298.151,148.458 298.569 C 148.458 298.987,148.189 299.432,147.861 299.558 C 147.532 299.684,147.264 300.036,147.264 300.341 C 147.264 300.646,147.085 300.896,146.866 300.896 C 146.647 300.896,146.468 301.087,146.468 301.320 C 146.468 302.214,139.509 310.050,138.715 310.050 C 138.572 310.050,137.867 310.498,137.150 311.045 C 136.432 311.592,135.657 312.040,135.428 312.040 C 135.198 312.040,134.907 312.308,134.781 312.637 C 134.655 312.965,134.199 313.234,133.767 313.234 C 133.336 313.234,132.880 313.399,132.755 313.601 C 132.630 313.803,131.993 314.086,131.339 314.230 C 130.685 314.374,130.149 314.656,130.149 314.857 C 130.149 315.059,129.736 315.224,129.230 315.224 C 128.725 315.224,127.964 315.487,127.539 315.808 C 127.114 316.130,125.926 316.398,124.899 316.405 C 123.872 316.412,122.921 316.597,122.786 316.816 C 122.642 317.049,120.335 317.214,117.214 317.214 C 114.092 317.214,111.786 317.049,111.642 316.816 C 111.507 316.597,110.530 316.418,109.472 316.418 C 108.129 316.418,107.479 316.238,107.319 315.821 C 107.193 315.493,106.663 315.224,106.141 315.224 C 105.620 315.224,104.351 314.776,103.322 314.229 C 102.293 313.682,101.273 313.234,101.056 313.234 C 100.839 313.234,100.179 312.786,99.589 312.239 C 98.998 311.692,98.335 311.241,98.114 311.237 C 97.892 311.234,97.085 310.699,96.318 310.048 C 95.552 309.397,94.709 308.683,94.445 308.462 C 94.180 308.241,93.777 308.060,93.549 308.060 C 93.321 308.060,93.134 307.867,93.134 307.631 C 93.134 307.395,92.578 306.646,91.897 305.965 C 91.217 305.285,90.208 304.045,89.655 303.210 C 89.103 302.375,88.540 301.689,88.405 301.687 C 88.270 301.684,87.817 300.968,87.399 300.095 C 86.980 299.222,86.488 298.507,86.304 298.507 C 86.120 298.507,85.970 298.079,85.970 297.555 C 85.970 297.031,85.701 296.499,85.373 296.373 C 85.028 296.241,84.776 295.646,84.776 294.961 C 84.776 294.311,84.597 293.668,84.378 293.532 C 84.159 293.397,83.980 292.692,83.980 291.966 C 83.980 291.239,83.711 290.422,83.383 290.149 C 82.953 289.792,82.786 288.847,82.786 286.766 C 82.786 284.685,82.619 283.740,82.189 283.383 C 81.424 282.748,81.424 281.630,82.189 280.995 C 82.622 280.636,82.786 279.685,82.786 277.535 C 82.786 275.430,82.959 274.397,83.383 273.973 C 83.711 273.645,83.980 272.672,83.980 271.812 C 83.980 270.952,84.159 270.249,84.378 270.249 C 84.597 270.249,84.776 269.801,84.776 269.254 C 84.776 268.635,85.002 268.259,85.373 268.259 C 85.745 268.259,85.970 267.883,85.970 267.264 C 85.970 266.716,86.152 266.269,86.375 266.269 C 86.597 266.269,87.090 265.597,87.469 264.776 C 87.849 263.955,88.383 263.140,88.657 262.965 C 88.930 262.790,89.154 262.298,89.154 261.871 C 89.154 261.444,89.333 261.095,89.552 261.095 C 89.771 261.095,89.950 260.647,89.950 260.100 C 89.950 259.552,90.114 259.104,90.314 259.104 C 90.854 259.104,93.134 255.238,93.134 254.322 C 93.134 253.888,93.338 253.532,93.588 253.532 C 94.203 253.532,95.096 252.301,95.112 251.430 C 95.119 251.040,95.393 250.618,95.721 250.492 C 96.050 250.366,96.318 249.834,96.318 249.311 C 96.318 248.729,96.551 248.358,96.915 248.358 C 97.244 248.358,97.512 248.090,97.512 247.761 C 97.512 247.433,97.692 247.164,97.910 247.164 C 98.129 247.164,98.308 246.716,98.308 246.169 C 98.308 245.550,98.534 245.174,98.905 245.174 C 99.277 245.174,99.502 244.798,99.502 244.179 C 99.502 243.560,99.728 243.184,100.100 243.184 C 100.428 243.184,100.697 242.915,100.697 242.587 C 100.697 242.259,100.876 241.990,101.095 241.990 C 101.313 241.990,101.493 241.542,101.493 240.995 C 101.493 240.376,101.718 240.000,102.090 240.000 C 102.418 240.000,102.687 239.767,102.687 239.482 C 102.687 238.569,103.665 236.822,104.179 236.819 C 104.453 236.817,104.677 236.368,104.677 235.821 C 104.677 235.202,104.902 234.826,105.274 234.826 C 105.602 234.826,105.871 234.593,105.871 234.308 C 105.871 233.394,106.849 231.648,107.363 231.645 C 107.637 231.643,107.861 231.194,107.861 230.647 C 107.861 230.100,108.040 229.652,108.259 229.652 C 108.478 229.652,108.657 229.383,108.657 229.055 C 108.657 228.726,108.832 228.458,109.047 228.458 C 109.262 228.458,109.550 228.010,109.687 227.463 C 109.825 226.915,110.186 226.468,110.491 226.468 C 110.816 226.468,111.045 226.057,111.045 225.473 C 111.045 224.925,111.224 224.478,111.443 224.478 C 111.662 224.478,111.841 224.228,111.841 223.923 C 111.841 223.618,112.109 223.266,112.438 223.140 C 112.766 223.014,113.035 222.566,113.035 222.145 C 113.035 221.723,113.288 221.282,113.597 221.163 C 113.906 221.045,114.389 220.309,114.672 219.528 C 114.954 218.748,115.417 218.109,115.702 218.109 C 115.988 218.109,116.219 217.665,116.219 217.114 C 116.219 216.567,116.398 216.119,116.617 216.119 C 116.836 216.119,117.015 215.829,117.015 215.474 C 117.015 214.945,117.123 214.918,117.612 215.323 C 117.940 215.596,118.209 216.155,118.209 216.566 M286.965 251.592 C 286.965 251.981,287.199 252.442,287.484 252.617 C 287.770 252.792,288.315 253.607,288.697 254.428 C 289.078 255.249,289.561 255.920,289.770 255.920 C 289.979 255.920,290.152 256.234,290.156 256.617 C 290.160 257.000,290.608 257.735,291.151 258.251 C 291.695 258.766,292.139 259.519,292.139 259.922 C 292.139 260.326,292.373 260.800,292.658 260.975 C 292.944 261.150,293.489 261.965,293.871 262.786 C 294.253 263.607,294.735 264.279,294.944 264.279 C 295.153 264.279,295.326 264.592,295.330 264.975 C 295.334 265.358,295.782 266.093,296.325 266.609 C 296.869 267.124,297.313 267.891,297.313 268.313 C 297.313 268.735,297.582 269.183,297.910 269.309 C 298.239 269.435,298.507 269.834,298.507 270.196 C 298.507 270.558,298.955 271.337,299.502 271.927 C 300.050 272.517,300.498 273.282,300.498 273.627 C 300.498 273.972,300.766 274.357,301.095 274.483 C 301.423 274.609,301.692 275.075,301.692 275.519 C 301.692 275.963,302.139 276.742,302.687 277.249 C 303.234 277.756,303.682 278.538,303.682 278.986 C 303.682 279.445,303.942 279.801,304.279 279.801 C 304.650 279.801,304.876 280.177,304.876 280.796 C 304.876 281.343,305.055 281.791,305.274 281.791 C 305.493 281.791,305.672 282.060,305.672 282.388 C 305.672 282.716,305.940 282.985,306.269 282.985 C 306.640 282.985,306.866 283.361,306.866 283.980 C 306.866 284.527,307.041 284.975,307.256 284.975 C 307.471 284.975,307.759 285.423,307.896 285.970 C 308.034 286.517,308.306 286.965,308.501 286.965 C 308.696 286.965,308.856 287.234,308.856 287.562 C 308.856 287.891,309.124 288.159,309.453 288.159 C 309.824 288.159,310.050 288.535,310.050 289.154 C 310.050 289.701,310.209 290.149,310.405 290.149 C 310.600 290.149,310.872 290.597,311.009 291.144 C 311.147 291.692,311.435 292.139,311.649 292.139 C 311.864 292.139,312.040 292.408,312.040 292.736 C 312.040 293.065,312.215 293.333,312.430 293.333 C 312.645 293.333,312.933 293.781,313.070 294.328 C 313.208 294.876,313.480 295.323,313.675 295.323 C 313.870 295.323,314.030 295.771,314.030 296.318 C 314.030 296.938,314.255 297.313,314.627 297.313 C 314.998 297.313,315.224 297.689,315.224 298.308 C 315.224 298.856,315.403 299.303,315.622 299.303 C 315.841 299.303,316.020 299.572,316.020 299.900 C 316.020 300.229,316.289 300.498,316.617 300.498 C 316.988 300.498,317.214 300.873,317.214 301.493 C 317.214 302.112,317.439 302.488,317.811 302.488 C 318.242 302.488,318.408 302.930,318.408 304.080 C 318.408 304.955,318.587 305.672,318.806 305.672 C 319.025 305.672,319.204 306.644,319.204 307.832 C 319.204 309.222,319.417 310.206,319.801 310.590 C 320.647 311.436,320.636 319.850,319.788 320.972 C 319.465 321.399,319.204 322.589,319.204 323.635 C 319.204 324.674,319.025 325.636,318.806 325.771 C 318.587 325.906,318.408 326.525,318.408 327.145 C 318.408 327.781,318.147 328.373,317.811 328.502 C 317.483 328.628,317.214 329.185,317.214 329.739 C 317.214 330.293,317.069 330.746,316.893 330.746 C 316.716 330.746,316.237 331.504,315.828 332.431 C 315.419 333.357,314.668 334.564,314.159 335.113 C 313.650 335.662,313.234 336.311,313.234 336.554 C 313.234 337.070,305.880 344.279,305.353 344.279 C 305.159 344.279,304.479 344.731,303.843 345.284 C 303.207 345.837,302.284 346.394,301.791 346.521 C 301.299 346.649,300.896 346.913,300.896 347.108 C 300.896 347.303,300.559 347.463,300.148 347.463 C 299.737 347.463,299.178 347.731,298.905 348.060 C 298.633 348.388,297.905 348.657,297.288 348.657 C 296.671 348.657,296.068 348.815,295.949 349.009 C 295.829 349.202,294.927 349.481,293.945 349.629 C 292.962 349.776,292.054 350.065,291.926 350.272 C 291.615 350.774,278.726 350.763,278.415 350.260 C 278.284 350.048,277.288 349.756,276.203 349.612 C 275.117 349.468,274.229 349.194,274.229 349.003 C 274.229 348.813,273.885 348.657,273.465 348.657 C 272.647 348.657,270.137 347.460,269.917 346.965 C 269.844 346.801,269.514 346.667,269.182 346.667 C 268.144 346.667,265.493 344.974,263.414 342.985 C 263.014 342.602,262.605 342.289,262.505 342.289 C 262.161 342.289,257.910 337.910,257.910 337.555 C 257.910 337.360,257.642 337.096,257.313 336.970 C 256.985 336.844,256.716 336.459,256.716 336.115 C 256.716 335.770,256.269 335.005,255.721 334.415 C 255.174 333.824,254.726 333.110,254.726 332.827 C 254.726 332.545,254.458 332.210,254.129 332.084 C 253.801 331.958,253.532 331.514,253.532 331.096 C 253.532 330.335,253.436 330.082,252.207 327.629 C 251.841 326.900,251.542 325.775,251.542 325.129 C 251.542 324.453,251.289 323.858,250.945 323.726 C 250.490 323.551,250.348 322.805,250.348 320.578 C 250.348 318.972,250.169 317.548,249.950 317.413 C 249.731 317.278,249.552 316.461,249.552 315.598 C 249.552 314.736,249.731 314.030,249.950 314.030 C 250.182 314.030,250.348 312.703,250.348 310.846 C 250.348 308.281,250.464 307.662,250.945 307.662 C 251.395 307.662,251.542 307.180,251.542 305.714 C 251.542 304.350,251.721 303.698,252.139 303.538 C 252.468 303.412,252.736 302.945,252.736 302.500 C 252.736 302.055,252.915 301.692,253.134 301.692 C 253.353 301.692,253.532 301.328,253.532 300.883 C 253.532 300.438,253.801 299.971,254.129 299.845 C 254.458 299.719,254.726 299.382,254.726 299.095 C 254.726 298.808,254.861 298.514,255.025 298.441 C 255.443 298.255,256.716 295.766,256.716 295.135 C 256.716 294.848,256.985 294.509,257.313 294.383 C 257.642 294.257,257.910 293.817,257.910 293.404 C 257.910 292.991,258.358 292.170,258.905 291.580 C 259.453 290.989,259.900 290.157,259.900 289.731 C 259.900 289.304,260.169 288.955,260.498 288.955 C 260.826 288.955,261.095 288.722,261.095 288.438 C 261.095 287.524,262.073 285.777,262.587 285.774 C 262.861 285.773,263.085 285.323,263.085 284.776 C 263.085 284.229,263.264 283.781,263.483 283.781 C 263.701 283.781,263.881 283.512,263.881 283.184 C 263.881 282.856,264.056 282.587,264.271 282.587 C 264.486 282.587,264.771 282.152,264.904 281.621 C 265.037 281.089,265.399 280.558,265.708 280.439 C 266.016 280.321,266.269 279.860,266.269 279.415 C 266.269 278.971,266.427 278.607,266.620 278.607 C 266.814 278.607,267.077 278.294,267.206 277.910 C 267.473 277.113,268.229 275.905,268.955 275.113 C 269.229 274.814,269.453 274.314,269.453 274.001 C 269.453 273.689,269.632 273.433,269.851 273.433 C 270.070 273.433,270.249 273.164,270.249 272.836 C 270.249 272.507,270.424 272.239,270.639 272.239 C 270.854 272.239,271.142 271.791,271.279 271.244 C 271.417 270.697,271.689 270.249,271.884 270.249 C 272.079 270.249,272.239 269.801,272.239 269.254 C 272.239 268.635,272.464 268.259,272.836 268.259 C 273.164 268.259,273.433 267.990,273.433 267.662 C 273.433 267.333,273.609 267.065,273.823 267.065 C 274.038 267.065,274.326 266.617,274.463 266.070 C 274.601 265.522,274.873 265.075,275.068 265.075 C 275.263 265.075,275.423 264.627,275.423 264.080 C 275.423 263.460,275.648 263.085,276.020 263.085 C 276.348 263.085,276.617 262.816,276.617 262.488 C 276.617 262.159,276.796 261.891,277.015 261.891 C 277.234 261.891,277.413 261.443,277.413 260.896 C 277.413 260.276,277.638 259.900,278.010 259.900 C 278.345 259.900,278.607 259.545,278.607 259.092 C 278.607 258.647,278.876 258.180,279.204 258.054 C 279.532 257.928,279.801 257.576,279.801 257.271 C 279.801 256.966,279.980 256.716,280.199 256.716 C 280.418 256.716,280.597 256.269,280.597 255.721 C 280.597 255.102,280.823 254.726,281.194 254.726 C 281.522 254.726,281.791 254.458,281.791 254.129 C 281.791 253.801,281.967 253.532,282.181 253.532 C 282.396 253.532,282.684 253.085,282.822 252.537 C 282.959 251.990,283.231 251.542,283.426 251.542 C 283.621 251.542,283.781 251.193,283.781 250.766 C 283.781 250.339,284.095 249.814,284.478 249.598 C 285.311 249.130,286.965 250.456,286.965 251.592 "></path><path id="path1" d="" stroke="none" fill="#080404" fill-rule="evenodd"></path><path id="path2" d="" stroke="none" fill="#080404" fill-rule="evenodd"></path><path id="path3" d="" stroke="none" fill="#080404" fill-rule="evenodd"></path><path id="path4" d="" stroke="none" fill="#080404" fill-rule="evenodd"></path></g></svg>